<?xml version="1.0" encoding="UTF-8"?>
<svg aria-labelledby="wordmark-light-colorful-title" role="img" version="1.1" viewBox="0 0 800 240" xmlns="http://www.w3.org/2000/svg" xmlns:cc="http://creativecommons.org/ns#" xmlns:dc="http://purl.org/dc/elements/1.1/" xmlns:rdf="http://www.w3.org/1999/02/22-rdf-syntax-ns#" xmlns:xlink="http://www.w3.org/1999/xlink">
 <title id="wordmark-light-colorful-title">Automatonic AI - Full Wordmark (Light Mode - Colorful)</title>
 <defs>
  <!-- Mask for "a" cutouts -->
  <mask id="aMask">
   <circle cx="70" cy="150" r="45" fill="#fff"/>
   <circle cx="70" cy="145" r="28"/>
  </mask>
  <linearGradient id="linearGradient14" x1="-117.6" x2="-89.605" y1="73.307" y2="73.307" gradientTransform="matrix(.75572 0 0 .75572 685.24 12.752)" gradientUnits="userSpaceOnUse">
   <stop stop-color="#10b981" offset="0"/>
  </linearGradient>
 </defs>
 <!-- First "a" (logo style, NO dot) - scaled 85%, slight right shift, vertically centered -->
 <!-- "utonomic " text - colorful with teal/green "o"s -->
 <!-- Final "ai" (exact logo with dot) - scaled 85%, moved right to clear "c", lowered to align -->
 <circle transform="matrix(.78277 0 0 .78277 -2.2616 7.6095)" cx="70" cy="150" r="45" fill="#8b5cf6" mask="url(#aMask)"/>
 <rect x="83.843" y="89.801" width="12.524" height="70.45" rx="6.2622" fill="#06b6d4" stroke-width=".78277"/>
 <g fill="#8b5cf6" stroke="#8b5cf6" stroke-width=".81532">
  <path transform="translate(2.6511)" d="m666.87 105.92v12.787q-3.1968-2.1896-6.4374-3.2406-3.1968-1.051-6.6563-1.051-6.5687 0-10.247 3.8537-3.6347 3.8099-3.6347 10.685 0 6.8753 3.6347 10.729 3.6785 3.8099 10.247 3.8099 3.6785 0 6.9629-1.0948 3.3282-1.0948 6.1308-3.2406v12.831q-3.6785 1.3575-7.4884 2.0144-3.7661 0.70067-7.576 0.70067-13.269 0-20.757-6.7877-7.4884-6.8315-7.4884-18.962 0-12.13 7.4884-18.918 7.4884-6.8315 20.757-6.8315 3.8537 0 7.576 0.70067 3.7661 0.65687 7.4884 2.0144z"/>
  <path transform="translate(2.6511)" d="m596.5 104.39h15.677v49.047h-15.677z"/>
  <path transform="translate(2.6511)" d="m581.96 123.57v29.866h-15.765v-22.859q0-6.3498-0.30654-8.7583-0.26275-2.4085-0.96341-3.5471-0.91963-1.5327-2.4961-2.3647-1.5765-0.87584-3.5909-0.87584-4.9047 0-7.7073 3.8099-2.8027 3.7661-2.8027 10.466v24.129h-15.677v-49.047h15.677v7.1818q3.5471-4.2916 7.5322-6.306 3.985-2.0582 8.8021-2.0582 8.4956 0 12.875 5.2112 4.423 5.2112 4.423 15.152z"/>
 </g>
 <path transform="translate(2.6511)" d="m494.37 103.21c-8.4664 0-15.093 2.2777-19.881 6.832-4.7587 4.5543-7.1367 10.86-7.1367 18.918s2.378 14.364 7.1367 18.918c4.7879 4.5543 11.414 6.832 19.881 6.832 8.4372 0 15.02-2.2777 19.75-6.832 4.7587-4.5543 7.1387-10.86 7.1387-18.918s-2.38-14.364-7.1387-18.918c-4.7295-4.5543-11.313-6.832-19.75-6.832zm0 11.211c3.4157 0 6.0298 1.2568 7.8398 3.7676 1.8101 2.4815 2.7148 6.0712 2.7148 10.771s-0.90479 8.3057-2.7148 10.816c-1.81 2.4815-4.4241 3.7227-7.8398 3.7227-3.4741 0-6.1295-1.2411-7.9688-3.7227-1.8101-2.5107-2.7148-6.1161-2.7148-10.816s0.90479-8.29 2.7148-10.771c1.8392-2.5107 4.4946-3.7676 7.9688-3.7676z" fill="#10b981" stroke="#10b981" stroke-width=".81532"/>
 <g fill="#8b5cf6" stroke="#8b5cf6" stroke-width=".81532">
  <path transform="translate(2.6511)" d="m445.28 90.463v13.926h16.159v11.211h-16.159v20.801q0 3.4157 1.3575 4.6419 1.3575 1.1824 5.3864 1.1824h8.0577v11.211h-13.444q-9.2838 0-13.181-3.8537-3.8537-3.8974-3.8537-13.181v-20.801h-7.7949v-11.211h7.7949v-13.926z"/>
  <path transform="translate(2.6511)" d="m388.53 103.21c-3.3866 0-6.7736 0.22028-10.16 0.6582-3.3865 0.40872-6.7579 1.0204-10.115 1.8379v11.955c2.4815-1.3429 5.1683-2.35 8.0586-3.0215 2.8902-0.67148 6.0137-1.0059 9.3711-1.0059 4.1456 0 7.1963 0.58417 9.1524 1.752 1.956 1.1386 2.9336 2.9482 2.9336 5.4297v1.2266h-9.2402c-8.4664 0-14.684 1.3415-18.654 4.0273-3.9412 2.6859-5.9121 6.905-5.9121 12.656 0 4.7295 1.5755 8.5827 4.7285 11.561 3.1822 2.9486 7.3147 4.4238 12.395 4.4238 3.7661 0 6.9624-0.67073 9.5898-2.0137 2.6275-1.3721 4.9918-3.5476 7.0938-6.5254v7.2695h15.809v-27.984c0-7.8533-1.9709-13.516-5.9121-16.99-3.9121-3.5033-10.291-5.2559-19.137-5.2559zm1.0957 28.158h8.1445v1.7969c0 3.1822-1.0071 5.8376-3.0215 7.9688-2.0144 2.102-4.4967 3.1543-7.4453 3.1543-2.3648 0-4.2176-0.55467-5.5606-1.6641-1.3138-1.1386-1.9707-2.7003-1.9707-4.6856 0-2.1604 0.81823-3.7969 2.4531-4.9062 1.6641-1.1094 4.1306-1.6641 7.4004-1.6641z"/>
  <path transform="translate(2.6511)" d="m319.65 112.53q2.9778-4.5543 7.0504-6.9191 4.1164-2.4085 9.0211-2.4085 8.4518 0 12.875 5.2112 4.423 5.2112 4.423 15.152v29.866h-15.765v-25.574q0.0438-0.56929 0.0438-1.1824 0.0438-0.61308 0.0438-1.7517 0-5.2112-1.5327-7.5322-1.5327-2.3648-4.9484-2.3648-4.4668 0-6.9191 3.6785-2.4085 3.6785-2.4961 10.641v24.085h-15.765v-25.574q0-8.1452-1.4013-10.466-1.4013-2.3648-4.9922-2.3648-4.5105 0-6.9629 3.7223-2.4523 3.6785-2.4523 10.554v24.129h-15.765v-49.047h15.765v7.1818q2.8902-4.1602 6.6125-6.2622 3.7661-2.102 8.2766-2.102 5.0798 0 8.9773 2.4523t5.9119 6.8753z"/>
 </g>
 <path transform="translate(2.6511)" d="m235.92 103.21c-8.4664 0-15.093 2.2777-19.881 6.832-4.7587 4.5543-7.1387 10.86-7.1387 18.918s2.38 14.364 7.1387 18.918c4.7879 4.5543 11.414 6.832 19.881 6.832 8.4372 0 15.02-2.2777 19.75-6.832 4.7587-4.5543 7.1387-10.86 7.1387-18.918s-2.38-14.364-7.1387-18.918c-4.7295-4.5543-11.313-6.832-19.75-6.832zm0 11.211c3.4157 0 6.0278 1.2568 7.8379 3.7676 1.81 2.4815 2.7168 6.0712 2.7168 10.771s-0.90674 8.3057-2.7168 10.816c-1.8101 2.4815-4.4222 3.7227-7.8379 3.7227-3.4741 0-6.1315-1.2411-7.9707-3.7227-1.81-2.5107-2.7148-6.1161-2.7148-10.816s0.90479-8.29 2.7148-10.771c1.8392-2.5107 4.4966-3.7676 7.9707-3.7676z" fill="#10b981" stroke="#10b981" stroke-width=".81532"/>
 <g fill="#8b5cf6">
  <path transform="translate(2.6511)" d="m186.83 90.463v13.926h16.159v11.211h-16.159v20.801q0 3.4157 1.3575 4.6419 1.3575 1.1824 5.3864 1.1824h8.0576v11.211h-13.444q-9.2838 0-13.181-3.8537-3.8537-3.8974-3.8537-13.181v-20.801h-7.7949v-11.211h7.7949v-13.926z" stroke="#8b5cf6" stroke-width=".81532"/>
  <path transform="translate(2.6511)" d="m105.33 134.34v-29.953h15.765v4.9046q0 3.985-0.0438 10.028-0.0438 5.9994-0.0438 8.0139 0 5.9119 0.30654 8.5394 0.30654 2.5837 1.051 3.7661 0.96342 1.5327 2.4961 2.3647 1.5765 0.83204 3.5909 0.83204 4.9047 0 7.7073-3.7661 2.8027-3.7661 2.8027-10.466v-24.217h15.677v49.047h-15.677v-7.0942q-3.5471 4.2916-7.5322 6.3498-3.9412 2.0144-8.7145 2.0144-8.4956 0-12.962-5.2112-4.423-5.2112-4.423-15.152z" stroke="#8b5cf6" stroke-width=".81532"/>
  <circle transform="matrix(.75572 0 0 .75572 685.24 12.752)" cx="70" cy="150" r="45" mask="url(#aMask)"/>
 </g>
 <g stroke-width=".75572">
  <rect x="768.37" y="92.103" width="12.092" height="68.015" rx="6.0458" fill="#06b6d4"/>
  <circle cx="774.41" cy="69.209" r="10.58" fill="#10b981"/>
  <circle cx="606.94" cy="68.152" r="10.58" fill="#06b6d4" stroke="url(#linearGradient14)"/>
 </g>
 <metadata>
  <rdf:RDF>
   <cc:Work rdf:about="">
    <dc:title>Automatonic AI - Full Wordmark (Light Mode - Colorful)</dc:title>
   </cc:Work>
  </rdf:RDF>
 </metadata>
</svg>
