<?xml version="1.0" encoding="UTF-8" standalone="no"?>
<svg
   viewBox="0 0 800 240"
   role="img"
   aria-labelledby="wordmark-light-colorful-title"
   version="1.1"
   id="svg8"
   sodipodi:docname="logo-wordmark-automatonic-ai-light-colorful.svg"
   inkscape:version="1.4.2 (2aeb623e1d, 2025-05-12)"
   xmlns:inkscape="http://www.inkscape.org/namespaces/inkscape"
   xmlns:sodipodi="http://sodipodi.sourceforge.net/DTD/sodipodi-0.dtd"
   xmlns="http://www.w3.org/2000/svg"
   xmlns:svg="http://www.w3.org/2000/svg">
  <sodipodi:namedview
     id="namedview8"
     pagecolor="#ffffff"
     bordercolor="#000000"
     borderopacity="0.25"
     inkscape:showpageshadow="2"
     inkscape:pageopacity="0.0"
     inkscape:pagecheckerboard="0"
     inkscape:deskcolor="#d1d1d1"
     inkscape:zoom="1.5087891"
     inkscape:cx="405.62329"
     inkscape:cy="93.783817"
     inkscape:window-width="1854"
     inkscape:window-height="1011"
     inkscape:window-x="0"
     inkscape:window-y="0"
     inkscape:window-maximized="1"
     inkscape:current-layer="g8" />
  <title
     id="wordmark-light-colorful-title">Automatonic AI - Full Wordmark (Light Mode - Colorful)</title>
  <defs
     id="defs2">
    <!-- Mask for "a" cutouts -->
    <mask
       id="aMask">
      <circle
         cx="70"
         cy="150"
         r="45"
         fill="white"
         id="circle1" />
      <circle
         cx="70"
         cy="145"
         r="28"
         fill="black"
         id="circle2" />
    </mask>
  </defs>
  <!-- First "a" (logo style, NO dot) - scaled 85%, slight right shift, vertically centered -->
  <g
     transform="matrix(0.85,0,0,0.85,-8,10.2)"
     id="g3">
    <circle
       cx="70"
       cy="150"
       r="45"
       fill="#8b5cf6"
       mask="url(#aMask)"
       id="circle3" />
    <rect
       x="110"
       y="105"
       width="16"
       height="90"
       fill="#06b6d4"
       rx="8"
       id="rect3" />
  </g>
  <!-- "utonomic " text - colorful with teal/green "o"s -->
  <g
     id="text7"
     style="font-weight:700;font-size:110px;font-family:Poppins, sans-serif;letter-spacing:0"
     aria-label="utonomic"
     transform="translate(2.6511326)">
    <path
       style="fill:#8b5cf6"
       d="m 110.59375,149.58203 v -36.73828 h 19.33594 v 6.01563 q 0,4.88769 -0.0537,12.2998 -0.0537,7.3584 -0.0537,9.8291 0,7.25098 0.37597,10.47363 0.37598,3.16895 1.28906,4.61914 1.18165,1.87989 3.06153,2.9004 1.93359,1.0205 4.40429,1.0205 6.01563,0 9.45313,-4.61914 3.4375,-4.61914 3.4375,-12.83691 v -29.70215 h 19.22852 V 173 h -19.22852 v -8.70117 q -4.35059,5.26367 -9.23828,7.78808 -4.83399,2.47071 -10.68848,2.47071 -10.41992,0 -15.89844,-6.3916 -5.4248,-6.39161 -5.4248,-18.58399 z M 210.5498,95.763672 v 17.080078 h 19.81934 v 13.75 H 210.5498 v 25.5127 q 0,4.18945 1.66504,5.69335 1.66504,1.4502 6.60645,1.4502 h 9.88281 V 173 h -16.48926 q -11.38672,0 -16.16699,-4.72656 -4.72656,-4.78028 -4.72656,-16.16699 v -25.5127 h -9.56055 v -13.75 h 9.56055 V 95.763672 Z"
       id="path8" />
    <path
       style="fill:#06b6d4"
       d="m 266.75977,125.14355 q -6.39161,0 -9.7754,4.61915 -3.33007,4.56542 -3.33007,13.21289 0,8.64746 3.33007,13.2666 3.38379,4.56543 9.7754,4.56543 6.28418,0 9.61425,-4.56543 3.33008,-4.61914 3.33008,-13.2666 0,-8.64747 -3.33008,-13.21289 -3.33007,-4.61915 -9.61425,-4.61915 z m 0,-13.75 q 15.52246,0 24.22363,8.37891 8.75488,8.37891 8.75488,23.20313 0,14.82421 -8.75488,23.20312 -8.70117,8.37891 -24.22363,8.37891 -15.57618,0 -24.38477,-8.37891 -8.75488,-8.37891 -8.75488,-23.20312 0,-14.82422 8.75488,-23.20313 8.80859,-8.37891 24.38477,-8.37891 z"
       id="path9" />
    <path
       style="fill:#8b5cf6"
       d="M 370.18164,136.36914 V 173 H 350.8457 v -5.96191 -22.0752 q 0,-7.78809 -0.37597,-10.74219 -0.32227,-2.9541 -1.18164,-4.35058 -1.12793,-1.87989 -3.06153,-2.90039 -1.93359,-1.07422 -4.40429,-1.07422 -6.01563,0 -9.45313,4.67285 -3.4375,4.61914 -3.4375,12.83691 V 173 h -19.22852 v -60.15625 h 19.22852 v 8.80859 q 4.35059,-5.26367 9.23828,-7.73437 4.8877,-2.52442 10.7959,-2.52442 10.41992,0 15.79102,6.39161 5.4248,6.3916 5.4248,18.58398 z"
       id="path10" />
    <path
       style="fill:#10b981"
       d="m 410.6416,125.14355 q -6.3916,0 -9.77539,4.61915 -3.33008,4.56542 -3.33008,13.21289 0,8.64746 3.33008,13.2666 3.38379,4.56543 9.77539,4.56543 6.28418,0 9.61426,-4.56543 3.33008,-4.61914 3.33008,-13.2666 0,-8.64747 -3.33008,-13.21289 -3.33008,-4.61915 -9.61426,-4.61915 z m 0,-13.75 q 15.52246,0 24.22363,8.37891 8.75489,8.37891 8.75489,23.20313 0,14.82421 -8.75489,23.20312 -8.70117,8.37891 -24.22363,8.37891 -15.57617,0 -24.38476,-8.37891 -8.75489,-8.37891 -8.75489,-23.20312 0,-14.82422 8.75489,-23.20313 8.80859,-8.37891 24.38476,-8.37891 z"
       id="path11" />
    <path
       style="fill:#8b5cf6"
       d="m 509.33691,122.83398 c 2.4349,-3.72395 5.31739,-6.55273 8.64746,-8.48632 3.36589,-1.96941 7.05404,-2.95411 11.06446,-2.95411 6.91081,0 12.17448,2.13054 15.79101,6.39161 3.61654,4.26107 5.42481,10.45573 5.42481,18.58398 V 173 h -19.33594 v -31.36719 c 0.0358,-0.46549 0.0537,-0.94889 0.0537,-1.45019 0.0358,-0.50131 0.0537,-1.21745 0.0537,-2.14844 0,-4.26107 -0.62663,-7.34049 -1.87988,-9.23828 -1.25325,-1.93359 -3.27637,-2.90039 -6.06934,-2.90039 -3.65234,0 -6.48111,1.50391 -8.48632,4.51172 -1.96941,3.00781 -2.98992,7.3584 -3.06153,13.05175 V 173 H 492.2031 v -31.36719 c 0,-6.66015 -0.57292,-10.93912 -1.71875,-12.83691 -1.14583,-1.93359 -3.18685,-2.90039 -6.12304,-2.90039 -3.68815,0 -6.53483,1.52181 -8.54004,4.56543 -2.00521,3.00781 -3.00781,7.32259 -3.00781,12.94433 V 173 h -19.33594 v -60.15625 h 19.33594 v 8.80859 c 2.36328,-3.40169 5.06673,-5.96191 8.11035,-7.68066 3.07943,-1.71875 6.46322,-2.57813 10.15137,-2.57813 4.15364,0 7.82389,1.00261 11.01074,3.00782 3.18685,2.00521 5.60384,4.81608 7.25097,8.43261 z m 58.86719,-9.99023 h 19.22852 V 173 H 568.2041 Z m 86.31348,1.87988 v 15.6836 c -2.61393,-1.79037 -5.24577,-3.11524 -7.89551,-3.97461 -2.61393,-0.85938 -5.33529,-1.28907 -8.16406,-1.28907 -5.37109,0 -9.56055,1.57552 -12.56836,4.72657 -2.97201,3.11523 -4.45801,7.48372 -4.45801,13.10547 0,5.62174 1.486,10.00813 4.45801,13.15918 3.00781,3.11523 7.19727,4.67285 12.56836,4.67285 3.00781,0 5.85449,-0.44759 8.54004,-1.34278 2.72135,-0.89518 5.22786,-2.22005 7.51953,-3.97461 v 15.73731 c -3.00781,1.11003 -6.06934,1.93359 -9.18457,2.4707 -3.07943,0.57292 -6.17676,0.85938 -9.29199,0.85938 -10.84961,0 -19.33594,-2.77507 -25.45899,-8.3252 -6.12305,-5.58593 -9.18457,-13.33821 -9.18457,-23.25683 0,-9.91862 3.06152,-17.653 9.18457,-23.20313 6.12305,-5.58594 14.60938,-8.37891 25.45899,-8.37891 3.15104,0 6.24837,0.28646 9.29199,0.85938 3.07943,0.53711 6.14095,1.36067 9.18457,2.4707 z"
       id="path12"
       sodipodi:nodetypes="scsssccccscsccccscscsccccccssssccccccccscscsccccscscscc" />
  </g>
  <!-- Final "ai" (exact logo with dot) - scaled 85%, moved right to clear "c", lowered to align -->
  <g
     transform="matrix(0.85,0,0,0.85,669.97613,14.101365)"
     id="g8">
    <circle
       cx="70"
       cy="150"
       r="45"
       fill="#8b5cf6"
       mask="url(#aMask)"
       id="circle7" />
    <rect
       x="110"
       y="105"
       width="16"
       height="90"
       fill="#06b6d4"
       rx="8"
       id="rect7" />
    <circle
       cx="118"
       cy="74.705887"
       r="14"
       fill="#10b981"
       id="circle8" />
    <circle
       cx="-103.60452"
       cy="73.307381"
       r="14"
       fill="#10b981"
       id="circle8-6"
       style="fill:#06b6d4;fill-opacity:1"
       inkscape:transform-center-x="-11.267314"
       inkscape:transform-center-y="-14.581229" />
  </g>
</svg>
