<svg
  xmlns="http://www.w3.org/2000/svg"
  viewBox="0 0 800 600"
  width="800"
  height="600"
  role="img"
  aria-label="Automatonic AI Geometric Illustration"
>
  <title>Automatonic AI - Abstract Geometric Composition</title>

  <!-- Background -->
  <rect width="800" height="600" fill="#FFFFFF" />

  <line x1="60" y1="300" x2="740" y2="300" stroke="#E5E7EB" stroke-width="1" opacity="0.2" stroke-dasharray="2,4" />
<g id="timeseries-waves">
<path d="M 60,120 L 60,150.53524226683498 L 65,147.95262114025422 L 70,145.1625559271507 L 75,142.18575246854613 L 80,139.0443024413223 L 85,135.76151940981305 L 90,132.36176580943393 L 95,128.87027214635089 L 100,125.31294975495732 L 105,121.71619850273785 L 110,118.10671086959347 L 115,114.51127385560963 L 120,110.95657018736405 L 125,107.46898029807687 L 130,104.07438655116296 L 135,100.79798116009701 L 140,97.66407923007147 L 145,94.69593830891569 L 150,91.91558578643938 L 155,89.34365542311687 L 160,86.99923422127763 L 165,84.89972077521446 L 170,83.06069615143187 L 175,81.49580825726775 L 180,80.21667055602083 L 185,79.23277588024658 L 190,78.55142598283709 L 195,78.17767734870515 L 200,78.11430366921977 L 205,78.36177525787978 L 210,78.91825555998813 L 215,79.77961478222923 L 220,80.93946054100049 L 225,82.38918530204856 L 230,84.1180302593475 L 235,86.1131651791562 L 240,88.35978361671037 L 245,90.84121279891998 L 250,93.53903735760214 L 255,96.43323599499132 L 260,99.50233006729476 L 265,102.72354298361287 L 270,106.07296923728249 L 275,109.52575181521416 L 280,113.05626666862022 L 285,116.63831287612574 L 290,120.24530708800937 L 295,123.85048080855039 L 300,127.42707905239476 L 305,130.94855890065733 L 310,134.3887864832203 L 315,137.72223092536842 L 320,140.92415381942948 L 325,143.97079281529886 L 330,146.83953796737285 L 335,149.50909952917104 L 340,151.9596659503982 L 345,154.17305090390585 L 350,156.13282825142593 L 355,157.82445394645907 L 360,159.23537396964207 L 365,160.35511749557742 L 370,161.1753745997069 L 375,161.6900579285467 L 380,161.89534787561118 L 385,161.78972092776254 L 390,161.37396097162093 L 395,160.65115347612613 L 400,159.62666259442435 L 405,158.308091355013 L 410,156.7052252375758 L 415,154.8299595522478 L 420,152.69621116124836 L 425,150.31981519802056 L 430,147.7184075503524 L 435,144.9112939796047 L 440,141.91930684734837 L 445,138.76465051268184 L 450,135.4707365475773 L 455,132.06200999316877 L 460,128.56376794638098 L 465,125.0019718232182 L 470,121.40305469195833 L 475,117.79372510608628 L 480,114.20076889277523 L 485,110.65085036789907 L 490,107.1703144528134 L 495,103.78499116145116 L 500,100.52000390868774 L 505,97.39958306257195 L 510,94.44688612410317 L 515,91.68382586904949 L 520,89.1309077272145 L 525,86.80707760600501 L 530,84.72958128764336 L 535,82.91383644347614 L 540,81.37331821519642 L 545,80.1194592121124 L 550,79.16156466661064 L 555,78.50674337746815 L 560,78.15985495350233 L 565,78.12347374907779 L 570,78.39786975911485 L 575,78.98100661538311 L 580,79.86855669894982 L 585,81.05393325662982 L 590,82.52833928309185 L 595,84.28083280585369 L 600,86.2984080886682 L 605,88.5660921506677 L 610,91.06705588497152 L 615,93.78273895211501 L 620,96.69298752143162 L 625,99.776203838171 L 630,103.00950650637498 L 635,106.36890029800783 L 640,109.82945422814049 L 645,113.36548657464402 L 650,116.95075546931025 L 655,120.55865364597047 L 660,124.16240590033274 L 665,127.73526779613441 L 670,131.2507241429563 L 675,134.682685772741 L 680,138.0056831546813 L 685,141.19505541161095 L 690,144.22713333515412 L 695,147.07941504142812 L 700,149.73073296371012 L 705,152.16141094276952 L 710,154.35341024905503 L 715,156.29046345306628 L 720,157.95819515042035 L 725,159.3442286456802 L 730,160.43827780321394 L 735,161.2322233834355 L 740,161.72017329791385" stroke="#8B5CF6" stroke-width="2.8693930041152265" fill="none" opacity="0.75" stroke-linecap="round" />
<path d="M 60,230 L 60,289.39909712442346 L 65,290.39843953169924 L 70,291.2251644815538 L 75,291.8769092116387 L 80,292.35181104935725 L 85,292.6485127353435 L 90,292.7661663024802 L 95,292.70443549937124 L 100,292.463496751341 L 105,292.044038656214 L 110,291.4472600163177 L 115,290.67486641233035 L 120,289.7290653287677 L 125,288.61255984503947 L 130,287.32854091010546 L 135,285.88067822281124 L 140,284.2731097439671 L 145,282.5104298701434 L 150,280.59767630298325 L 155,278.540315651558 L 160,276.3442278089146 L 165,274.015689147466 L 170,271.5613545812525 L 175,268.98823854633844 L 180,266.30369495370303 L 185,263.5153961719188 L 190,260.6313110996853 L 195,257.6596823908861 L 200,254.60900289725834 L 205,251.48799139600374 L 210,248.30556767170785 L 215,245.07082702378543 L 220,241.7930142723078 L 225,238.4814973365035 L 230,235.14574046144412 L 235,231.79527716943275 L 240,228.43968301339976 L 245,225.088548210176 L 250,221.75145023185658 L 255,218.43792643358938 L 260,215.15744679601616 L 265,211.9193868602693 L 270,208.7330009328742 L 275,205.60739563713796 L 280,202.5515038866133 L 285,199.57405935502118 L 290,196.68357151559707 L 295,193.888301321197 L 300,191.19623759466967 L 305,188.61507419697074 L 310,186.15218803827128 L 315,183.8146179949053 L 320,181.60904479241074 L 325,179.54177191215763 L 330,177.6187075761325 L 335,175.84534786136498 L 340,174.22676099225674 L 345,172.76757285570372 L 350,171.4719537804094 L 355,170.3436066181743 L 360,169.38575616122387 L 365,168.60113992582097 L 370,167.99200032850248 L 375,167.56007827730042 L 380,167.30660819626385 L 385,167.23231449750108 L 390,167.33740951082532 L 395,167.62159287692052 L 400,168.08405240576195 L 405,168.72346639783805 L 410,169.53800742153953 L 415,170.5253475359201 L 420,171.68266494390232 L 425,173.00665205691362 L 430,174.49352494790423 L 435,176.1390341657304 L 440,177.9384768799954 L 445,179.88671032163896 L 450,181.978166480862 L 455,184.20686802038048 L 460,186.56644535852828 L 465,189.05015487338642 L 470,191.65089817591124 L 475,194.36124239697938 L 480,197.17344143037025 L 485,200.07945807097266 L 490,203.07098698494673 L 495,206.13947844619133 L 500,209.27616277127964 L 505,212.4720753830285 L 510,215.71808243106932 L 515,219.0049068961984 L 520,222.32315510390112 L 525,225.66334357127366 L 530,229.01592611061628 L 535,232.37132111223468 L 540,235.71993892847718 L 545,239.0522092807439 L 550,242.3586086111398 L 555,245.62968730060095 L 560,248.856096675705 L 565,252.0286157269814 L 570,255.1381774623605 L 575,258.17589482044446 L 580,261.13308606953973 L 585,264.00129961986215 L 590,266.77233817800095 L 595,269.4382821746091 L 600,271.9915123983645 L 605,274.42473177151373 L 610,276.73098620476594 L 615,278.90368447193174 L 620,280.9366170475081 L 625,282.82397385337003 L 630,284.5603608638505 L 635,286.1408155217516 L 640,287.5608209212273 L 645,288.8163187170042 L 650,289.9037207230468 L 655,290.8199191675162 L 660,291.5622955747168 L 665,292.12872824864354 L 670,292.51759833674447 L 675,292.72779445656664 L 680,292.75871587206393 L 685,292.61027421048743 L 690,292.2828937149534 L 695,291.777510031965 L 700,291.0955675373547 L 705,290.2390152082889 L 710,289.21030105313224 L 715,288.01236511509205 L 720,286.64863106963713 L 725,285.122996439706 L 730,283.43982145666916 L 735,281.60391659888023 L 740,279.6205288434314" stroke="#8B5CF6" stroke-width="3.230684156378601" fill="none" opacity="0.75" stroke-linecap="round" />
<path d="M 60,340 L 60,385.28364767088516 L 65,381.7829984372148 L 70,378.1306418761583 L 75,374.33983910523386 L 80,370.42435391781527 L 85,366.39840280901814 L 90,362.2766033578998 L 95,358.0739211533871 L 100,353.8056154566379 L 105,349.4871837971243 L 110,345.1343057036037 L 115,340.76278577427877 L 120,336.388496292851 L 125,332.02731959881885 L 130,327.69509042126487 L 135,323.40753838550864 L 140,319.18023090137496 L 145,315.0285166404393 L 150,310.96746980747764 L 155,307.0118354084605 L 160,303.1759757138146 L 165,299.47381811133545 L 170,295.91880453808943 L 175,292.5238426749083 L 180,289.3012590806821 L 185,286.2627544366124 L 190,283.4193610629261 L 195,280.7814028623005 L 200,278.3584578354379 L 205,276.1593233048899 L 210,274.1919839733985 L 215,272.4635829327286 L 220,270.9803957282535 L 225,269.74780757346235 L 230,268.7702937971188 L 235,268.0514035940638 L 240,267.5937471386617 L 245,267.39898610767824 L 250,267.4678276470006 L 255,267.800021804104 L 260,268.39436243558976 L 265,269.2486915864969 L 270,270.35990732548873 L 275,271.72397500746524 L 280,273.3359419227084 L 285,275.1899552793724 L 290,277.2792834540267 L 295,279.59634043309495 L 300,282.13271335644623 L 305,284.87919306313376 L 310,287.82580752837197 L 315,290.96185807035073 L 320,294.2759581954227 L 325,297.7560749406251 L 330,301.38957256342763 L 335,305.1632584200745 L 340,309.0634308659468 L 345,313.0759290040232 L 350,317.1861841008132 L 355,321.37927248307807 L 360,325.63996972328107 L 365,329.9528059170287 L 370,334.30212185179687 L 375,338.6721258630069 L 380,343.0469511710115 L 385,347.41071349081204 L 390,351.74756870533633 L 395,356.0417703928704 L 400,360.27772699977675 L 405,364.44005845091 L 410,368.51365199218947 L 415,372.4837170625706 L 420,376.33583899618657 L 425,380.05603135967556 L 430,383.63078673466293 L 435,387.0471257610196 L 440,390.2926442628241 L 445,393.3555582859251 L 450,396.22474688357795 L 455,398.8897924948079 L 460,401.3410187688945 L 465,403.56952569863915 L 470,405.56722193485655 L 475,407.3268541647576 L 480,408.8420334475586 L 485,410.1072584116946 L 490,411.1179352294119 L 495,411.8703942962158 L 500,412.3619035546126 L 505,412.59067841376935 L 510,412.5558882290759 L 515,412.25765931808087 L 520,411.6970745018533 L 525,410.876169173434 L 530,409.7979239076517 L 535,408.4662536391367 L 540,406.8859934478247 L 545,405.0628810035614 L 550,403.0035357335491 L 555,400.7154347882738 L 560,398.2068858931784 L 565,395.4869971846518 L 570,392.56564413985404 L 575,389.4534337204529 L 580,386.161665860456 L 585,382.70229243797417 L 590,379.087873879879 L 595,375.3315335569197 L 600,371.4469101348806 L 605,367.4481080547855 L 610,363.3496463219479 L 615,359.1664057898041 L 620,354.91357512993557 L 625,350.6065956844519 L 630,346.26110540096863 L 635,341.89288205374197 L 640,337.51778595711545 L 645,333.15170237927737 L 650,328.8104838654136 L 655,324.50989267967395 L 660,320.2655435749336 L 665,316.0928470981433 L 670,312.0069536371205 L 675,308.02269841193385 L 680,304.1545476106133 L 685,300.41654586475386 L 690,296.8222652557247 L 695,293.38475603663016 L 700,290.1164992489465 L 705,287.02936140587343 L 710,284.1345514069382 L 715,281.4425798402908 L 720,278.96322082045236 L 725,276.7054765000832 L 730,274.677544384618 L 735,272.88678756844587 L 740,271.3397080007027" stroke="#06B6D4" stroke-width="2.956172839506173" fill="none" opacity="0.75" stroke-linecap="round" />
<path d="M 60,450 L 60,384.7576073019175 L 65,383.89986792040514 L 70,383.53298311799267 L 75,383.65967735346095 L 80,384.2790098050043 L 85,385.38638135670175 L 90,386.9735687512039 L 95,389.02878565501993 L 100,391.536770182938 L 105,394.4788982316303 L 110,397.8333217808347 L 115,401.5751311351003 L 120,405.6765399013009 L 125,410.1070913282877 L 130,414.83388447641875 L 135,419.8218185374472 L 140,425.03385349046727 L 145,430.4312851583067 L 150,435.97403262181774 L 155,441.6209358577498 L 160,447.33006138996785 L 165,453.05901368427266 L 170,458.7652499744303 L 175,464.40639618153443 L 180,469.94056158071044 L 185,475.3266498784681 L 190,480.5246643906676 L 195,485.49600505486933 L 200,490.2037550714766 L 205,494.61295504509644 L 210,498.69086259036385 L 215,502.4071954744184 L 220,505.73435649047394 L 225,508.6476383925878 L 230,511.1254073697996 L 235,513.1492636971745 L 240,514.7041783707687 L 245,515.7786047118743 L 250,516.3645641117832 L 255,516.4577052803305 L 260,516.0573365582464 L 265,515.1664310533657 L 270,513.7916045625539 L 275,511.9430664433 L 280,509.6345437998007 L 285,506.88317954652365 L 290,503.7094051062207 L 295,500.1367886877298 L 300,496.19186027023846 L 305,491.903914593667 L 310,487.3047936181453 L 315,482.4286500680275 L 320,477.3116938163441 L 325,471.99192299302604 L 330,466.508841813666 L 335,460.9031672242033 L 340,455.2165265399641 L 345,449.49114832436794 L 350,443.76954880281073 L 355,438.09421614039263 L 360,432.50729492801855 L 365,427.0502732198555 L 370,421.76367444618165 L 375,416.68675648945924 L 380,411.85722015827014 L 385,407.31092922396414 L 390,403.08164409900667 L 395,399.2007711347103 L 400,395.6971294000467 L 405,392.5967366734207 L 410,389.92261623661705 L 415,387.6946259056517 L 420,385.9293105681329 L 425,384.63977932217756 L 430,383.8356081292408 L 435,383.52276870375067 L 440,383.7035841676086 L 445,384.37671179886206 L 450,385.53715300265617 L 455,387.1762904304209 L 460,389.2819519716494 L 465,391.8385011430695 L 470,394.8269532039855 L 475,398.22511613552575 L 480,402.00775543689605 L 485,406.1467815148722 L 490,410.611458274995 L 495,415.36863136548055 L 500,420.38297437892925 L 505,425.61725118355247 L 510,431.0325924358715 L 515,436.588784221519 L 520,442.24456668072594 L 525,447.95794040091664 L 530,453.68647830117 L 535,459.38764069251033 L 540,465.01909117442057 L 545,470.5390110217472 L 550,475.90640972739067 L 555,481.08142939470736 L 560,486.0256407192362 L 565,490.7023283618039 L 570,495.0767635938567 L 575,499.11646219036976 L 580,502.7914256552452 L 585,506.07436398787286 L 590,508.9408983366112 L 595,511.3697420342938 L 600,513.3428586714097 L 605,514.8455960331149 L 610,515.8667949054723 L 615,516.3988719429284 L 620,516.4378759816648 L 625,515.9835173806413 L 630,515.0391701724483 L 635,513.6118470079961 L 640,511.7121470810999 L 645,509.3541774196688 L 650,506.5554481279836 L 655,503.33674235798753 L 660,499.721961975173 L 665,495.737950065136 L 670,491.414291598855 L 675,486.78309373693406 L 680,481.87874740425843 L 685,476.73767190558783 L 690,471.3980444785563 L 695,465.89951679239294 L 700,460.2829204976282 L 705,454.5899640133449 L 710,448.86292280361624 L 715,443.1443254431063 L 720,437.4766378030949 L 725,431.9019477031286 L 730,426.4616523700597 L 735,421.19615102537 L 740,416.14454488361105" stroke="#10B981" stroke-width="3.1940072016460905" fill="none" opacity="0.75" stroke-linecap="round" />
</g>
<g id="timeseries-datapoints">
<circle cx="120" cy="67.2535620451061" r="4" fill="#8B5CF6" opacity="1"  />
<circle cx="240" cy="128.5332721755502" r="4" fill="#8B5CF6" opacity="1"  />
<circle cx="360" cy="175.7320221723104" r="4" fill="#8B5CF6" opacity="1"  />
<circle cx="480" cy="130.96600575432876" r="4" fill="#8B5CF6" opacity="1"  />
<circle cx="600" cy="68.10471630674927" r="4" fill="#8B5CF6" opacity="1"  />
<circle cx="120" cy="287.61008220802063" r="4" fill="#06B6D4" opacity="1"  />
<circle cx="240" cy="396.1429004402616" r="4" fill="#06B6D4" opacity="1"  />
<circle cx="360" cy="357.4225619793417" r="4" fill="#06B6D4" opacity="1"  />
<circle cx="480" cy="273.0058446526712" r="4" fill="#06B6D4" opacity="1"  />
<circle cx="600" cy="364.3032564060087" r="4" fill="#06B6D4" opacity="1"  />
</g>
<g id="time-markers">
<line x1="150" y1="80" x2="150" y2="520" stroke="#E5E7EB" stroke-width="1" opacity="0.15" stroke-dasharray="3,6" />
<circle cx="150" cy="70" r="3" fill="#06B6D4" opacity="0.4"  />
<line x1="300" y1="80" x2="300" y2="520" stroke="#E5E7EB" stroke-width="1" opacity="0.15" stroke-dasharray="3,6" />
<circle cx="300" cy="70" r="3" fill="#06B6D4" opacity="0.4"  />
<line x1="450" y1="80" x2="450" y2="520" stroke="#E5E7EB" stroke-width="1" opacity="0.15" stroke-dasharray="3,6" />
<circle cx="450" cy="70" r="3" fill="#06B6D4" opacity="0.4"  />
<line x1="600" y1="80" x2="600" y2="520" stroke="#E5E7EB" stroke-width="1" opacity="0.15" stroke-dasharray="3,6" />
<circle cx="600" cy="70" r="3" fill="#06B6D4" opacity="0.4"  />
</g>
<g id="trend-indicators">
<path d="M 680,240 L 680,200 L 670,212 M 680,200 L 690,212" stroke="#8B5CF6" stroke-width="3" fill="none" opacity="0.6" stroke-linecap="round" stroke-linejoin="round" />
<path d="M 680,410 L 680,450 L 670,438 M 680,450 L 690,438" stroke="#06B6D4" stroke-width="3" fill="none" opacity="0.6" stroke-linecap="round" stroke-linejoin="round" />
</g>
<defs>
  <linearGradient id="temporal-gradient" x1="0%" y1="0%" x2="100%" y2="0%">
    <stop offset="0%" style="stop-color:#8B5CF6;stop-opacity:0.05" />
    <stop offset="100%" style="stop-color:#06B6D4;stop-opacity:0.05" />
  </linearGradient>
</defs>
<rect x="60" y="80" width="680" height="440" fill="url(#temporal-gradient)" />

</svg>
