<svg
  xmlns="http://www.w3.org/2000/svg"
  viewBox="0 0 800 600"
  width="800"
  height="600"
  role="img"
  aria-label="Automatonic AI Geometric Illustration"
>
  <title>Automatonic AI - Abstract Geometric Composition</title>

  <!-- Background -->
  <rect width="800" height="600" fill="#0F172A" />

  <g id="geospatial-map">
<circle cx="175.92316666666667" cy="185.07188888888888" r="18" fill="#8B5CF6" opacity="0.85"  />
<circle cx="214.37727777777778" cy="183.15933333333334" r="18" fill="#8B5CF6" opacity="0.85"  />
<circle cx="239.21805555555557" cy="182.83344444444444" r="18" fill="#8B5CF6" opacity="0.85"  />
<circle cx="273.1655" cy="177.05422222222222" r="18" fill="#8B5CF6" opacity="0.85"  />
<circle cx="311.09961111111113" cy="185.66166666666666" r="18" fill="#8B5CF6" opacity="0.85"  />
<circle cx="347.4203888888889" cy="183.37577777777778" r="18" fill="#8B5CF6" opacity="0.85"  />
<circle cx="194.96783333333332" cy="207.05495555555555" r="18" fill="#8B5CF6" opacity="0.85"  />
<circle cx="229.50194444444443" cy="201.7024" r="18" fill="#8B5CF6" opacity="0.85"  />
<circle cx="257.14272222222223" cy="207.5365111111111" r="18" fill="#8B5CF6" opacity="0.85"  />
<circle cx="289.0901666666666" cy="210.3172888888889" r="18" fill="#8B5CF6" opacity="0.85"  />
<circle cx="330.30427777777777" cy="205.40473333333333" r="18" fill="#8B5CF6" opacity="0.85"  />
<circle cx="355.0250555555555" cy="203.51884444444445" r="18" fill="#8B5CF6" opacity="0.85"  />
<circle cx="184.0125" cy="234.31802222222223" r="18" fill="#8B5CF6" opacity="0.85"  />
<circle cx="216.06661111111111" cy="231.28546666666668" r="18" fill="#8B5CF6" opacity="0.85"  />
<circle cx="243.6273888888889" cy="231.7595777777778" r="18" fill="#8B5CF6" opacity="0.85"  />
<circle cx="279.33483333333334" cy="240.22035555555556" r="18" fill="#8B5CF6" opacity="0.85"  />
<circle cx="312.3089444444445" cy="240.5078" r="18" fill="#8B5CF6" opacity="0.85"  />
<circle cx="348.46972222222223" cy="240.46191111111114" r="18" fill="#8B5CF6" opacity="0.85"  />
<circle cx="190.57716666666664" cy="262.5410888888889" r="18" fill="#8B5CF6" opacity="0.85"  />
<circle cx="234.55127777777778" cy="267.5885333333334" r="18" fill="#8B5CF6" opacity="0.85"  />
<circle cx="259.15205555555553" cy="264.14264444444444" r="18" fill="#8B5CF6" opacity="0.85"  />
<circle cx="291.41949999999997" cy="262.44342222222224" r="18" fill="#8B5CF6" opacity="0.85"  />
<circle cx="330.55361111111114" cy="260.73086666666666" r="18" fill="#8B5CF6" opacity="0.85"  />
<circle cx="362.31438888888886" cy="263.9649777777778" r="18" fill="#8B5CF6" opacity="0.85"  />
<circle cx="184.42183333333332" cy="287.4041555555556" r="18" fill="#8B5CF6" opacity="0.85"  />
<circle cx="215.83594444444444" cy="293.33160000000004" r="18" fill="#8B5CF6" opacity="0.85"  />
<circle cx="247.55672222222222" cy="287.40571111111115" r="18" fill="#8B5CF6" opacity="0.85"  />
<circle cx="282.14416666666665" cy="298.58648888888894" r="18" fill="#8B5CF6" opacity="0.85"  />
<circle cx="315.9182777777778" cy="287.67393333333337" r="18" fill="#8B5CF6" opacity="0.85"  />
<circle cx="340.39905555555555" cy="295.62804444444447" r="18" fill="#8B5CF6" opacity="0.85"  />
<circle cx="202.929875" cy="377.94141666666667" r="18" fill="#8B5CF6" opacity="0.85"  />
<circle cx="235.97045833333334" cy="377.647" r="18" fill="#8B5CF6" opacity="0.85"  />
<circle cx="261.3210416666667" cy="382.14258333333333" r="18" fill="#8B5CF6" opacity="0.85"  />
<circle cx="220.42162499999998" cy="406.6465666666667" r="18" fill="#8B5CF6" opacity="0.85"  />
<circle cx="250.91220833333333" cy="405.60215" r="18" fill="#8B5CF6" opacity="0.85"  />
<circle cx="279.4727916666667" cy="406.46773333333334" r="18" fill="#8B5CF6" opacity="0.85"  />
<circle cx="201.103375" cy="436.3417166666667" r="18" fill="#8B5CF6" opacity="0.85"  />
<circle cx="236.60395833333334" cy="435.6273" r="18" fill="#8B5CF6" opacity="0.85"  />
<circle cx="262.97454166666665" cy="440.42288333333335" r="18" fill="#8B5CF6" opacity="0.85"  />
<circle cx="213.01512499999998" cy="460.5468666666667" r="18" fill="#8B5CF6" opacity="0.85"  />
<circle cx="251.36570833333332" cy="461.24245" r="18" fill="#8B5CF6" opacity="0.85"  />
<circle cx="279.86629166666665" cy="467.80803333333336" r="18" fill="#8B5CF6" opacity="0.85"  />
<circle cx="445.0363541666667" cy="159.9864861111111" r="18" fill="#8B5CF6" opacity="0.85"  />
<circle cx="473.84370138888886" cy="163.703" r="18" fill="#8B5CF6" opacity="0.85"  />
<circle cx="509.2193819444445" cy="159.5678472222222" r="18" fill="#8B5CF6" opacity="0.85"  />
<circle cx="534.5033958333333" cy="165.36102777777776" r="18" fill="#8B5CF6" opacity="0.85"  />
<circle cx="572.9357430555556" cy="161.90254166666668" r="18" fill="#8B5CF6" opacity="0.85"  />
<circle cx="452.3964236111111" cy="182.8507888888889" r="18" fill="#8B5CF6" opacity="0.85"  />
<circle cx="488.14543749999996" cy="192.38896944444446" r="18" fill="#8B5CF6" opacity="0.85"  />
<circle cx="522.3427847222222" cy="183.01548333333335" r="18" fill="#8B5CF6" opacity="0.85"  />
<circle cx="553.8684652777779" cy="193.09033055555557" r="18" fill="#8B5CF6" opacity="0.85"  />
<circle cx="590.0024791666667" cy="188.7335111111111" r="18" fill="#8B5CF6" opacity="0.85"  />
<circle cx="439.2448263888889" cy="214.10342500000002" r="18" fill="#8B5CF6" opacity="0.85"  />
<circle cx="470.7355069444444" cy="216.16327222222225" r="18" fill="#8B5CF6" opacity="0.85"  />
<circle cx="508.51452083333334" cy="214.29145277777778" r="18" fill="#8B5CF6" opacity="0.85"  />
<circle cx="538.0218680555556" cy="219.54796666666667" r="18" fill="#8B5CF6" opacity="0.85"  />
<circle cx="574.5175486111111" cy="211.0728138888889" r="18" fill="#8B5CF6" opacity="0.85"  />
<circle cx="461.595625" cy="320.5221666666667" r="18" fill="#8B5CF6" opacity="0.85"  />
<circle cx="491.1262083333333" cy="323.19775" r="18" fill="#8B5CF6" opacity="0.85"  />
<circle cx="525.9267916666666" cy="324.18333333333334" r="18" fill="#8B5CF6" opacity="0.85"  />
<circle cx="559.277375" cy="320.3589166666667" r="18" fill="#8B5CF6" opacity="0.85"  />
<circle cx="472.85795833333333" cy="350.3429" r="18" fill="#8B5CF6" opacity="0.85"  />
<circle cx="510.86854166666666" cy="347.69848333333334" r="18" fill="#8B5CF6" opacity="0.85"  />
<circle cx="539.149125" cy="349.2440666666667" r="18" fill="#8B5CF6" opacity="0.85"  />
<circle cx="571.1397083333334" cy="351.49965000000003" r="18" fill="#8B5CF6" opacity="0.85"  />
<circle cx="461.1602916666667" cy="380.84363333333334" r="18" fill="#8B5CF6" opacity="0.85"  />
<circle cx="495.17087499999997" cy="372.6392166666667" r="18" fill="#8B5CF6" opacity="0.85"  />
<circle cx="520.2914583333333" cy="376.3048" r="18" fill="#8B5CF6" opacity="0.85"  />
<circle cx="558.2420416666668" cy="379.36038333333335" r="18" fill="#8B5CF6" opacity="0.85"  />
<circle cx="475.94262499999996" cy="403.50436666666667" r="18" fill="#8B5CF6" opacity="0.85"  />
<circle cx="511.4732083333333" cy="399.93995" r="18" fill="#8B5CF6" opacity="0.85"  />
<circle cx="536.4337916666667" cy="402.60553333333337" r="18" fill="#8B5CF6" opacity="0.85"  />
<circle cx="575.424375" cy="407.3011166666667" r="18" fill="#8B5CF6" opacity="0.85"  />
<circle cx="463.6849583333333" cy="435.36510000000004" r="18" fill="#8B5CF6" opacity="0.85"  />
<circle cx="489.69554166666666" cy="435.48068333333333" r="18" fill="#8B5CF6" opacity="0.85"  />
<circle cx="527.936125" cy="433.6662666666667" r="18" fill="#8B5CF6" opacity="0.85"  />
<circle cx="558.3667083333333" cy="428.60185" r="18" fill="#8B5CF6" opacity="0.85"  />
<circle cx="476.34729166666665" cy="461.78583333333336" r="18" fill="#8B5CF6" opacity="0.85"  />
<circle cx="505.19787499999995" cy="457.7814166666667" r="18" fill="#8B5CF6" opacity="0.85"  />
<circle cx="539.5584583333333" cy="458.447" r="18" fill="#8B5CF6" opacity="0.85"  />
<circle cx="570.9090416666668" cy="456.70258333333334" r="18" fill="#8B5CF6" opacity="0.85"  />
<circle cx="573.8261666666667" cy="205.6748888888889" r="18" fill="#8B5CF6" opacity="0.85"  />
<circle cx="611.2002777777777" cy="202.68233333333333" r="18" fill="#8B5CF6" opacity="0.85"  />
<circle cx="647.9210555555555" cy="201.27644444444445" r="18" fill="#8B5CF6" opacity="0.85"  />
<circle cx="680.7885" cy="194.41722222222222" r="18" fill="#8B5CF6" opacity="0.85"  />
<circle cx="704.6826111111111" cy="201.94466666666668" r="18" fill="#8B5CF6" opacity="0.85"  />
<circle cx="739.9233888888889" cy="198.5787777777778" r="18" fill="#8B5CF6" opacity="0.85"  />
<circle cx="777.5508333333333" cy="206.07955555555554" r="18" fill="#8B5CF6" opacity="0.85"  />
<circle cx="600.4049444444445" cy="227.7054" r="18" fill="#8B5CF6" opacity="0.85"  />
<circle cx="626.9657222222222" cy="232.4595111111111" r="18" fill="#8B5CF6" opacity="0.85"  />
<circle cx="657.8331666666667" cy="234.16028888888889" r="18" fill="#8B5CF6" opacity="0.85"  />
<circle cx="697.9672777777779" cy="228.16773333333333" r="18" fill="#8B5CF6" opacity="0.85"  />
<circle cx="721.6080555555557" cy="225.20184444444445" r="18" fill="#8B5CF6" opacity="0.85"  />
<circle cx="760.1155" cy="226.86262222222223" r="18" fill="#8B5CF6" opacity="0.85"  />
<circle cx="791.0896111111111" cy="222.75006666666667" r="18" fill="#8B5CF6" opacity="0.85"  />
<circle cx="574.5703888888889" cy="250.20257777777778" r="18" fill="#8B5CF6" opacity="0.85"  />
<circle cx="609.1978333333333" cy="257.58335555555556" r="18" fill="#8B5CF6" opacity="0.85"  />
<circle cx="641.0919444444444" cy="256.7908" r="18" fill="#8B5CF6" opacity="0.85"  />
<circle cx="676.1727222222223" cy="255.6649111111111" r="18" fill="#8B5CF6" opacity="0.85"  />
<circle cx="708.3601666666667" cy="261.5656888888889" r="18" fill="#8B5CF6" opacity="0.85"  />
<circle cx="738.2942777777778" cy="252.57313333333335" r="18" fill="#8B5CF6" opacity="0.85"  />
<circle cx="774.7750555555556" cy="261.00724444444444" r="18" fill="#8B5CF6" opacity="0.85"  />
<circle cx="595.3625000000001" cy="286.28642222222226" r="18" fill="#8B5CF6" opacity="0.85"  />
<circle cx="633.4166111111111" cy="283.4938666666667" r="18" fill="#8B5CF6" opacity="0.85"  />
<circle cx="664.0973888888889" cy="285.6479777777778" r="18" fill="#8B5CF6" opacity="0.85"  />
<circle cx="695.7248333333334" cy="279.9487555555556" r="18" fill="#8B5CF6" opacity="0.85"  />
<circle cx="726.0589444444445" cy="284.7962" r="18" fill="#8B5CF6" opacity="0.85"  />
<circle cx="756.6997222222222" cy="277.7903111111111" r="18" fill="#8B5CF6" opacity="0.85"  />
<circle cx="790.2071666666667" cy="287.89108888888893" r="18" fill="#8B5CF6" opacity="0.85"  />
<circle cx="579.9012777777778" cy="316.91693333333336" r="18" fill="#8B5CF6" opacity="0.85"  />
<circle cx="616.2620555555555" cy="310.83104444444444" r="18" fill="#8B5CF6" opacity="0.85"  />
<circle cx="640.1295" cy="316.57182222222224" r="18" fill="#8B5CF6" opacity="0.85"  />
<circle cx="672.3036111111112" cy="315.09926666666667" r="18" fill="#8B5CF6" opacity="0.85"  />
<circle cx="707.1843888888889" cy="307.0533777777778" r="18" fill="#8B5CF6" opacity="0.85"  />
<circle cx="735.8118333333333" cy="314.1941555555556" r="18" fill="#8B5CF6" opacity="0.85"  />
<circle cx="777.5459444444444" cy="311.7216" r="18" fill="#8B5CF6" opacity="0.85"  />
<circle cx="638.0917013888889" cy="449.72631944444447" r="18" fill="#8B5CF6" opacity="0.85"  />
<circle cx="672.0088541666667" cy="450.56430555555556" r="18" fill="#8B5CF6" opacity="0.85"  />
<circle cx="706.3176736111111" cy="449.2939583333333" r="18" fill="#8B5CF6" opacity="0.85"  />
<circle cx="660.1181597222222" cy="480.6736777777778" r="18" fill="#8B5CF6" opacity="0.85"  />
<circle cx="690.7103125" cy="481.48666388888887" r="18" fill="#8B5CF6" opacity="0.85"  />
<circle cx="719.2941319444444" cy="481.3913166666667" r="18" fill="#8B5CF6" opacity="0.85"  />
</g>
<g id="geospatial-markers">
<circle cx="200" cy="200" r="8" fill="#06B6D4" opacity="1"  />
<circle cx="200" cy="200" r="16" fill="#06B6D4" opacity="0.3" stroke="#FFFFFF" stroke-width="2" />
<circle cx="460" cy="180" r="8" fill="#06B6D4" opacity="1"  />
<circle cx="460" cy="180" r="16" fill="#06B6D4" opacity="0.3" stroke="#FFFFFF" stroke-width="2" />
<circle cx="480" cy="340" r="8" fill="#06B6D4" opacity="1"  />
<circle cx="480" cy="340" r="16" fill="#06B6D4" opacity="0.3" stroke="#FFFFFF" stroke-width="2" />
<circle cx="600" cy="240" r="8" fill="#06B6D4" opacity="1"  />
<circle cx="600" cy="240" r="16" fill="#06B6D4" opacity="0.3" stroke="#FFFFFF" stroke-width="2" />
<circle cx="220" cy="400" r="8" fill="#06B6D4" opacity="1"  />
<circle cx="220" cy="400" r="16" fill="#06B6D4" opacity="0.3" stroke="#FFFFFF" stroke-width="2" />
<circle cx="160" cy="240" r="5" fill="#10B981" opacity="1"  />
<circle cx="240" cy="160" r="5" fill="#10B981" opacity="1"  />
<circle cx="430" cy="200" r="5" fill="#10B981" opacity="1"  />
<circle cx="500" cy="300" r="5" fill="#10B981" opacity="1"  />
<circle cx="620" cy="200" r="5" fill="#10B981" opacity="1"  />
<circle cx="660" cy="280" r="5" fill="#10B981" opacity="1"  />
<circle cx="640" cy="460" r="5" fill="#10B981" opacity="1"  />
<circle cx="180" cy="420" r="5" fill="#10B981" opacity="1"  />
</g>
<g id="geospatial-connections">
<line
    x1="200"
    y1="200"
    x2="460"
    y2="180"
    stroke="#06B6D4"
    stroke-width="1.5"
    opacity="0.25"
    stroke-linecap="round"
  />
<line
    x1="460"
    y1="180"
    x2="600"
    y2="240"
    stroke="#06B6D4"
    stroke-width="1.5"
    opacity="0.25"
    stroke-linecap="round"
  />
<line
    x1="200"
    y1="200"
    x2="220"
    y2="400"
    stroke="#06B6D4"
    stroke-width="1.5"
    opacity="0.25"
    stroke-linecap="round"
  />
<line
    x1="460"
    y1="180"
    x2="480"
    y2="340"
    stroke="#06B6D4"
    stroke-width="1.5"
    opacity="0.25"
    stroke-linecap="round"
  />
</g>
<g id="coordinate-grid">
<line x1="100" y1="50" x2="100" y2="550" stroke="#334155" stroke-width="1" opacity="0.25" stroke-dasharray="4,4" />
<line x1="250" y1="50" x2="250" y2="550" stroke="#334155" stroke-width="1" opacity="0.25" stroke-dasharray="4,4" />
<line x1="400" y1="50" x2="400" y2="550" stroke="#334155" stroke-width="1" opacity="0.25" stroke-dasharray="4,4" />
<line x1="550" y1="50" x2="550" y2="550" stroke="#334155" stroke-width="1" opacity="0.25" stroke-dasharray="4,4" />
<line x1="700" y1="50" x2="700" y2="550" stroke="#334155" stroke-width="1" opacity="0.25" stroke-dasharray="4,4" />
<line x1="50" y1="100" x2="750" y2="100" stroke="#334155" stroke-width="1" opacity="0.25" stroke-dasharray="4,4" />
<line x1="50" y1="250" x2="750" y2="250" stroke="#334155" stroke-width="1" opacity="0.25" stroke-dasharray="4,4" />
<line x1="50" y1="400" x2="750" y2="400" stroke="#334155" stroke-width="1" opacity="0.25" stroke-dasharray="4,4" />
<line x1="50" y1="550" x2="750" y2="550" stroke="#334155" stroke-width="1" opacity="0.25" stroke-dasharray="4,4" />
</g>

</svg>
