<svg
  xmlns="http://www.w3.org/2000/svg"
  viewBox="0 0 800 600"
  width="800"
  height="600"
  role="img"
  aria-label="Automatonic AI Geometric Illustration"
>
  <title>Automatonic AI - Abstract Geometric Composition</title>

  <!-- Background -->
  <rect width="800" height="600" fill="#FFFFFF" />

  <g id="grid-pattern">
<line x1="0" y1="0" x2="0" y2="600" stroke="#E5E7EB" stroke-width="1" opacity="0.3" />
<line x1="40" y1="0" x2="40" y2="600" stroke="#E5E7EB" stroke-width="1" opacity="0.3" />
<line x1="80" y1="0" x2="80" y2="600" stroke="#E5E7EB" stroke-width="1" opacity="0.3" />
<line x1="120" y1="0" x2="120" y2="600" stroke="#E5E7EB" stroke-width="1" opacity="0.3" />
<line x1="160" y1="0" x2="160" y2="600" stroke="#E5E7EB" stroke-width="1" opacity="0.3" />
<line x1="200" y1="0" x2="200" y2="600" stroke="#E5E7EB" stroke-width="1" opacity="0.3" />
<line x1="240" y1="0" x2="240" y2="600" stroke="#E5E7EB" stroke-width="1" opacity="0.3" />
<line x1="280" y1="0" x2="280" y2="600" stroke="#E5E7EB" stroke-width="1" opacity="0.3" />
<line x1="320" y1="0" x2="320" y2="600" stroke="#E5E7EB" stroke-width="1" opacity="0.3" />
<line x1="360" y1="0" x2="360" y2="600" stroke="#E5E7EB" stroke-width="1" opacity="0.3" />
<line x1="400" y1="0" x2="400" y2="600" stroke="#E5E7EB" stroke-width="1" opacity="0.3" />
<line x1="440" y1="0" x2="440" y2="600" stroke="#E5E7EB" stroke-width="1" opacity="0.3" />
<line x1="480" y1="0" x2="480" y2="600" stroke="#E5E7EB" stroke-width="1" opacity="0.3" />
<line x1="520" y1="0" x2="520" y2="600" stroke="#E5E7EB" stroke-width="1" opacity="0.3" />
<line x1="560" y1="0" x2="560" y2="600" stroke="#E5E7EB" stroke-width="1" opacity="0.3" />
<line x1="600" y1="0" x2="600" y2="600" stroke="#E5E7EB" stroke-width="1" opacity="0.3" />
<line x1="640" y1="0" x2="640" y2="600" stroke="#E5E7EB" stroke-width="1" opacity="0.3" />
<line x1="680" y1="0" x2="680" y2="600" stroke="#E5E7EB" stroke-width="1" opacity="0.3" />
<line x1="720" y1="0" x2="720" y2="600" stroke="#E5E7EB" stroke-width="1" opacity="0.3" />
<line x1="760" y1="0" x2="760" y2="600" stroke="#E5E7EB" stroke-width="1" opacity="0.3" />
<line x1="800" y1="0" x2="800" y2="600" stroke="#E5E7EB" stroke-width="1" opacity="0.3" />
<line x1="0" y1="0" x2="800" y2="0" stroke="#E5E7EB" stroke-width="1" opacity="0.3" />
<line x1="0" y1="40" x2="800" y2="40" stroke="#E5E7EB" stroke-width="1" opacity="0.3" />
<line x1="0" y1="80" x2="800" y2="80" stroke="#E5E7EB" stroke-width="1" opacity="0.3" />
<line x1="0" y1="120" x2="800" y2="120" stroke="#E5E7EB" stroke-width="1" opacity="0.3" />
<line x1="0" y1="160" x2="800" y2="160" stroke="#E5E7EB" stroke-width="1" opacity="0.3" />
<line x1="0" y1="200" x2="800" y2="200" stroke="#E5E7EB" stroke-width="1" opacity="0.3" />
<line x1="0" y1="240" x2="800" y2="240" stroke="#E5E7EB" stroke-width="1" opacity="0.3" />
<line x1="0" y1="280" x2="800" y2="280" stroke="#E5E7EB" stroke-width="1" opacity="0.3" />
<line x1="0" y1="320" x2="800" y2="320" stroke="#E5E7EB" stroke-width="1" opacity="0.3" />
<line x1="0" y1="360" x2="800" y2="360" stroke="#E5E7EB" stroke-width="1" opacity="0.3" />
<line x1="0" y1="400" x2="800" y2="400" stroke="#E5E7EB" stroke-width="1" opacity="0.3" />
<line x1="0" y1="440" x2="800" y2="440" stroke="#E5E7EB" stroke-width="1" opacity="0.3" />
<line x1="0" y1="480" x2="800" y2="480" stroke="#E5E7EB" stroke-width="1" opacity="0.3" />
<line x1="0" y1="520" x2="800" y2="520" stroke="#E5E7EB" stroke-width="1" opacity="0.3" />
<line x1="0" y1="560" x2="800" y2="560" stroke="#E5E7EB" stroke-width="1" opacity="0.3" />
<line x1="0" y1="600" x2="800" y2="600" stroke="#E5E7EB" stroke-width="1" opacity="0.3" />
</g>
<g id="graph-edges">
<line
    x1="400"
    y1="300"
    x2="400"
    y2="160"
    stroke="#8B5CF6"
    stroke-width="3"
    opacity="0.6"
    stroke-linecap="round"
  />
<line
    x1="400"
    y1="300"
    x2="533.1479122813215"
    y2="256.73762078750735"
    stroke="#8B5CF6"
    stroke-width="3"
    opacity="0.6"
    stroke-linecap="round"
  />
<line
    x1="400"
    y1="300"
    x2="482.28993532094626"
    y2="413.26237921249265"
    stroke="#8B5CF6"
    stroke-width="3"
    opacity="0.6"
    stroke-linecap="round"
  />
<line
    x1="400"
    y1="300"
    x2="317.71006467905374"
    y2="413.26237921249265"
    stroke="#8B5CF6"
    stroke-width="3"
    opacity="0.6"
    stroke-linecap="round"
  />
<line
    x1="400"
    y1="300"
    x2="266.8520877186785"
    y2="256.73762078750735"
    stroke="#8B5CF6"
    stroke-width="3"
    opacity="0.6"
    stroke-linecap="round"
  />
<line
    x1="400"
    y1="160"
    x2="542.6714752662683"
    y2="507.18683761104705"
    stroke="#8B5CF6"
    stroke-width="2"
    opacity="0.4"
    stroke-linecap="round"
  />
<line
    x1="400"
    y1="160"
    x2="213.73973131899405"
    y2="442.64485489589794"
    stroke="#06B6D4"
    stroke-width="2"
    opacity="0.4"
    stroke-linecap="round"
  />
<line
    x1="400"
    y1="160"
    x2="260.45661115348474"
    y2="99.82422205973482"
    stroke="#8B5CF6"
    stroke-width="2"
    opacity="0.4"
    stroke-linecap="round"
  />
<line
    x1="533.1479122813215"
    y1="256.73762078750735"
    x2="631.262695691837"
    y2="349.35961452666913"
    stroke="#10B981"
    stroke-width="2"
    opacity="0.4"
    stroke-linecap="round"
  />
<line
    x1="533.1479122813215"
    y1="256.73762078750735"
    x2="213.73973131899405"
    y2="442.64485489589794"
    stroke="#06B6D4"
    stroke-width="2"
    opacity="0.4"
    stroke-linecap="round"
  />
<line
    x1="533.1479122813215"
    y1="256.73762078750735"
    x2="606.6579024258618"
    y2="168.42587555677696"
    stroke="#8B5CF6"
    stroke-width="2"
    opacity="0.4"
    stroke-linecap="round"
  />
<line
    x1="482.28993532094626"
    y1="413.26237921249265"
    x2="542.6714752662683"
    y2="507.18683761104705"
    stroke="#8B5CF6"
    stroke-width="2"
    opacity="0.4"
    stroke-linecap="round"
  />
<line
    x1="482.28993532094626"
    y1="413.26237921249265"
    x2="260.45661115348474"
    y2="99.82422205973482"
    stroke="#8B5CF6"
    stroke-width="2"
    opacity="0.4"
    stroke-linecap="round"
  />
<line
    x1="317.71006467905374"
    y1="413.26237921249265"
    x2="631.262695691837"
    y2="349.35961452666913"
    stroke="#10B981"
    stroke-width="2"
    opacity="0.4"
    stroke-linecap="round"
  />
<line
    x1="317.71006467905374"
    y1="413.26237921249265"
    x2="606.6579024258618"
    y2="168.42587555677696"
    stroke="#8B5CF6"
    stroke-width="2"
    opacity="0.4"
    stroke-linecap="round"
  />
<line
    x1="317.71006467905374"
    y1="413.26237921249265"
    x2="260.45661115348474"
    y2="99.82422205973482"
    stroke="#8B5CF6"
    stroke-width="2"
    opacity="0.4"
    stroke-linecap="round"
  />
<line
    x1="266.8520877186785"
    y1="256.73762078750735"
    x2="606.6579024258618"
    y2="168.42587555677696"
    stroke="#8B5CF6"
    stroke-width="2"
    opacity="0.4"
    stroke-linecap="round"
  />
<line
    x1="266.8520877186785"
    y1="256.73762078750735"
    x2="339.18320954740494"
    y2="543.1805197659111"
    stroke="#06B6D4"
    stroke-width="2"
    opacity="0.4"
    stroke-linecap="round"
  />
<line
    x1="266.8520877186785"
    y1="256.73762078750735"
    x2="168.7717693287391"
    y2="253.87881139925676"
    stroke="#8B5CF6"
    stroke-width="2"
    opacity="0.4"
    stroke-linecap="round"
  />
<line
    x1="339.18320954740494"
    y1="543.1805197659111"
    x2="213.73973131899405"
    y2="442.64485489589794"
    stroke="#06B6D4"
    stroke-width="1.5"
    opacity="0.3"
    stroke-linecap="round"
  />
</g>
<g id="graph-nodes">
<circle cx="400" cy="300" r="60" fill="#8B5CF6" opacity="0.95" stroke="#FFFFFF" stroke-width="5" />
<circle cx="400" cy="160" r="40" fill="#8B5CF6" opacity="0.95" stroke="#FFFFFF" stroke-width="3" />
<circle cx="533.1479122813215" cy="256.73762078750735" r="40" fill="#8B5CF6" opacity="0.95" stroke="#FFFFFF" stroke-width="3" />
<circle cx="482.28993532094626" cy="413.26237921249265" r="40" fill="#8B5CF6" opacity="0.95" stroke="#FFFFFF" stroke-width="3" />
<circle cx="317.71006467905374" cy="413.26237921249265" r="40" fill="#8B5CF6" opacity="0.95" stroke="#FFFFFF" stroke-width="3" />
<circle cx="266.8520877186785" cy="256.73762078750735" r="40" fill="#8B5CF6" opacity="0.95" stroke="#FFFFFF" stroke-width="3" />
<circle cx="443.5529015637062" cy="58.06819422585844" r="25.874228395061728" fill="#8B5CF6" opacity="0.95" stroke="#FFFFFF" stroke-width="3" />
<circle cx="606.6579024258618" cy="168.42587555677696" r="28.252572016460906" fill="#8B5CF6" opacity="0.95" stroke="#FFFFFF" stroke-width="3" />
<circle cx="631.262695691837" cy="349.35961452666913" r="33.34696502057613" fill="#10B981" opacity="0.95" stroke="#FFFFFF" stroke-width="3" />
<circle cx="542.6714752662683" cy="507.18683761104705" r="33.19444444444444" fill="#8B5CF6" opacity="0.95" stroke="#FFFFFF" stroke-width="3" />
<circle cx="339.18320954740494" cy="543.1805197659111" r="32.60982510288066" fill="#06B6D4" opacity="0.95" stroke="#FFFFFF" stroke-width="3" />
<circle cx="213.73973131899405" cy="442.64485489589794" r="32.5190329218107" fill="#06B6D4" opacity="0.95" stroke="#FFFFFF" stroke-width="3" />
<circle cx="168.7717693287391" cy="253.87881139925676" r="38.29243827160494" fill="#8B5CF6" opacity="0.95" stroke="#FFFFFF" stroke-width="3" />
<circle cx="260.45661115348474" cy="99.82422205973482" r="33.07818930041152" fill="#8B5CF6" opacity="0.95" stroke="#FFFFFF" stroke-width="3" />
</g>
<g id="accent-dots">
<circle cx="624.1015089163237" cy="102.89351851851852" r="6" fill="#8B5CF6" opacity="0.3"  />
<circle cx="219.54389574759946" cy="410.1234567901235" r="6" fill="#06B6D4" opacity="0.3"  />
<circle cx="413.13443072702336" cy="249.29783950617283" r="6" fill="#06B6D4" opacity="0.3"  />
<circle cx="738.2064471879287" cy="470.4166666666667" r="6" fill="#8B5CF6" opacity="0.3"  />
</g>

</svg>
