<svg
  xmlns="http://www.w3.org/2000/svg"
  viewBox="0 0 800 600"
  width="800"
  height="600"
  role="img"
  aria-label="Automatonic AI Geometric Illustration"
>
  <title>Automatonic AI - Abstract Geometric Composition</title>

  <!-- Background -->
  <rect width="800" height="600" fill="#0F172A" />

  <g id="grid-pattern">
<line x1="0" y1="0" x2="0" y2="600" stroke="#334155" stroke-width="1" opacity="0.5" />
<line x1="40" y1="0" x2="40" y2="600" stroke="#334155" stroke-width="1" opacity="0.5" />
<line x1="80" y1="0" x2="80" y2="600" stroke="#334155" stroke-width="1" opacity="0.5" />
<line x1="120" y1="0" x2="120" y2="600" stroke="#334155" stroke-width="1" opacity="0.5" />
<line x1="160" y1="0" x2="160" y2="600" stroke="#334155" stroke-width="1" opacity="0.5" />
<line x1="200" y1="0" x2="200" y2="600" stroke="#334155" stroke-width="1" opacity="0.5" />
<line x1="240" y1="0" x2="240" y2="600" stroke="#334155" stroke-width="1" opacity="0.5" />
<line x1="280" y1="0" x2="280" y2="600" stroke="#334155" stroke-width="1" opacity="0.5" />
<line x1="320" y1="0" x2="320" y2="600" stroke="#334155" stroke-width="1" opacity="0.5" />
<line x1="360" y1="0" x2="360" y2="600" stroke="#334155" stroke-width="1" opacity="0.5" />
<line x1="400" y1="0" x2="400" y2="600" stroke="#334155" stroke-width="1" opacity="0.5" />
<line x1="440" y1="0" x2="440" y2="600" stroke="#334155" stroke-width="1" opacity="0.5" />
<line x1="480" y1="0" x2="480" y2="600" stroke="#334155" stroke-width="1" opacity="0.5" />
<line x1="520" y1="0" x2="520" y2="600" stroke="#334155" stroke-width="1" opacity="0.5" />
<line x1="560" y1="0" x2="560" y2="600" stroke="#334155" stroke-width="1" opacity="0.5" />
<line x1="600" y1="0" x2="600" y2="600" stroke="#334155" stroke-width="1" opacity="0.5" />
<line x1="640" y1="0" x2="640" y2="600" stroke="#334155" stroke-width="1" opacity="0.5" />
<line x1="680" y1="0" x2="680" y2="600" stroke="#334155" stroke-width="1" opacity="0.5" />
<line x1="720" y1="0" x2="720" y2="600" stroke="#334155" stroke-width="1" opacity="0.5" />
<line x1="760" y1="0" x2="760" y2="600" stroke="#334155" stroke-width="1" opacity="0.5" />
<line x1="800" y1="0" x2="800" y2="600" stroke="#334155" stroke-width="1" opacity="0.5" />
<line x1="0" y1="0" x2="800" y2="0" stroke="#334155" stroke-width="1" opacity="0.5" />
<line x1="0" y1="40" x2="800" y2="40" stroke="#334155" stroke-width="1" opacity="0.5" />
<line x1="0" y1="80" x2="800" y2="80" stroke="#334155" stroke-width="1" opacity="0.5" />
<line x1="0" y1="120" x2="800" y2="120" stroke="#334155" stroke-width="1" opacity="0.5" />
<line x1="0" y1="160" x2="800" y2="160" stroke="#334155" stroke-width="1" opacity="0.5" />
<line x1="0" y1="200" x2="800" y2="200" stroke="#334155" stroke-width="1" opacity="0.5" />
<line x1="0" y1="240" x2="800" y2="240" stroke="#334155" stroke-width="1" opacity="0.5" />
<line x1="0" y1="280" x2="800" y2="280" stroke="#334155" stroke-width="1" opacity="0.5" />
<line x1="0" y1="320" x2="800" y2="320" stroke="#334155" stroke-width="1" opacity="0.5" />
<line x1="0" y1="360" x2="800" y2="360" stroke="#334155" stroke-width="1" opacity="0.5" />
<line x1="0" y1="400" x2="800" y2="400" stroke="#334155" stroke-width="1" opacity="0.5" />
<line x1="0" y1="440" x2="800" y2="440" stroke="#334155" stroke-width="1" opacity="0.5" />
<line x1="0" y1="480" x2="800" y2="480" stroke="#334155" stroke-width="1" opacity="0.5" />
<line x1="0" y1="520" x2="800" y2="520" stroke="#334155" stroke-width="1" opacity="0.5" />
<line x1="0" y1="560" x2="800" y2="560" stroke="#334155" stroke-width="1" opacity="0.5" />
<line x1="0" y1="600" x2="800" y2="600" stroke="#334155" stroke-width="1" opacity="0.5" />
</g>
<g id="background-shapes">
<rect
    x="199.18767146776406"
    y="190.11574074074076"
    width="67.97359396433471"
    height="67.97359396433471"
    fill="#8B5CF6"
    opacity="0.08"
    transform="rotate(-1.6685956790123448 233.17446844993142 224.10253772290812)"
  />
<rect
    x="295.52040466392316"
    y="184.56661522633743"
    width="64.66255144032922"
    height="64.66255144032922"
    fill="#8B5CF6"
    opacity="0.08"
    transform="rotate(7.10519547325103 327.8516803840878 216.89789094650206)"
  />
<path d="M 414.2649938139905,222.43231437747517 L 476.3535660010363,187.24024166578428 L 414.83205092736,151.06599722294408 Z" fill="#06B6D4" opacity="0.08" />
<path d="M 414.13039555412263,520.4028997609723 L 500.4472718377704,438.96712704242725 L 386.7633857448707,404.93240576474227 Z" fill="#10B981" opacity="0.08" />
</g>
<g id="graph-edges">
<line
    x1="272.9576474622771"
    y1="76.07818930041152"
    x2="227.27451989026065"
    y2="147.53497942386832"
    stroke="#06B6D4"
    stroke-width="3"
    opacity="0.5"
    stroke-linecap="round"
  />
<line
    x1="272.9576474622771"
    y1="76.07818930041152"
    x2="393.32184499314127"
    y2="236.59670781893004"
    stroke="#06B6D4"
    stroke-width="3"
    opacity="0.5"
    stroke-linecap="round"
  />
<line
    x1="610.940500685871"
    y1="512.679012345679"
    x2="408.84104938271605"
    y2="366.56378600823047"
    stroke="#06B6D4"
    stroke-width="3"
    opacity="0.5"
    stroke-linecap="round"
  />
<line
    x1="610.940500685871"
    y1="512.679012345679"
    x2="734.3945473251028"
    y2="319.3292181069959"
    stroke="#06B6D4"
    stroke-width="3"
    opacity="0.5"
    stroke-linecap="round"
  />
<line
    x1="610.940500685871"
    y1="512.679012345679"
    x2="609.7395404663923"
    y2="307.88065843621405"
    stroke="#06B6D4"
    stroke-width="3"
    opacity="0.5"
    stroke-linecap="round"
  />
<line
    x1="610.940500685871"
    y1="512.679012345679"
    x2="687.4754801097394"
    y2="436.3333333333333"
    stroke="#06B6D4"
    stroke-width="3"
    opacity="0.5"
    stroke-linecap="round"
  />
<line
    x1="408.84104938271605"
    y1="366.56378600823047"
    x2="338.26423182441704"
    y2="200.6954732510288"
    stroke="#10B981"
    stroke-width="3"
    opacity="0.5"
    stroke-linecap="round"
  />
<line
    x1="408.84104938271605"
    y1="366.56378600823047"
    x2="214.51868998628257"
    y2="400.2592592592593"
    stroke="#10B981"
    stroke-width="3"
    opacity="0.5"
    stroke-linecap="round"
  />
<line
    x1="408.84104938271605"
    y1="366.56378600823047"
    x2="393.32184499314127"
    y2="236.59670781893004"
    stroke="#10B981"
    stroke-width="3"
    opacity="0.5"
    stroke-linecap="round"
  />
<line
    x1="408.84104938271605"
    y1="366.56378600823047"
    x2="609.7395404663923"
    y2="307.88065843621405"
    stroke="#10B981"
    stroke-width="3"
    opacity="0.5"
    stroke-linecap="round"
  />
<line
    x1="338.26423182441704"
    y1="200.6954732510288"
    x2="393.32184499314127"
    y2="236.59670781893004"
    stroke="#06B6D4"
    stroke-width="3"
    opacity="0.5"
    stroke-linecap="round"
  />
<line
    x1="338.26423182441704"
    y1="200.6954732510288"
    x2="479.45284636488344"
    y2="282.0864197530864"
    stroke="#06B6D4"
    stroke-width="3"
    opacity="0.5"
    stroke-linecap="round"
  />
<line
    x1="338.26423182441704"
    y1="200.6954732510288"
    x2="176.61265432098764"
    y2="171.5267489711934"
    stroke="#06B6D4"
    stroke-width="3"
    opacity="0.5"
    stroke-linecap="round"
  />
<line
    x1="734.3945473251028"
    y1="319.3292181069959"
    x2="732.5406378600823"
    y2="147.65020576131687"
    stroke="#06B6D4"
    stroke-width="3"
    opacity="0.5"
    stroke-linecap="round"
  />
<line
    x1="734.3945473251028"
    y1="319.3292181069959"
    x2="687.4754801097394"
    y2="436.3333333333333"
    stroke="#06B6D4"
    stroke-width="3"
    opacity="0.5"
    stroke-linecap="round"
  />
<line
    x1="227.27451989026065"
    y1="147.53497942386832"
    x2="393.32184499314127"
    y2="236.59670781893004"
    stroke="#10B981"
    stroke-width="3"
    opacity="0.5"
    stroke-linecap="round"
  />
<line
    x1="227.27451989026065"
    y1="147.53497942386832"
    x2="176.61265432098764"
    y2="171.5267489711934"
    stroke="#10B981"
    stroke-width="3"
    opacity="0.5"
    stroke-linecap="round"
  />
<line
    x1="699.5783607681756"
    y1="216.7283950617284"
    x2="732.5406378600823"
    y2="147.65020576131687"
    stroke="#10B981"
    stroke-width="3"
    opacity="0.5"
    stroke-linecap="round"
  />
<line
    x1="699.5783607681756"
    y1="216.7283950617284"
    x2="609.7395404663923"
    y2="307.88065843621405"
    stroke="#10B981"
    stroke-width="3"
    opacity="0.5"
    stroke-linecap="round"
  />
<line
    x1="699.5783607681756"
    y1="216.7283950617284"
    x2="687.4754801097394"
    y2="436.3333333333333"
    stroke="#10B981"
    stroke-width="3"
    opacity="0.5"
    stroke-linecap="round"
  />
<line
    x1="393.32184499314127"
    y1="236.59670781893004"
    x2="479.45284636488344"
    y2="282.0864197530864"
    stroke="#8B5CF6"
    stroke-width="3"
    opacity="0.5"
    stroke-linecap="round"
  />
<line
    x1="393.32184499314127"
    y1="236.59670781893004"
    x2="176.61265432098764"
    y2="171.5267489711934"
    stroke="#8B5CF6"
    stroke-width="3"
    opacity="0.5"
    stroke-linecap="round"
  />
<line
    x1="393.32184499314127"
    y1="236.59670781893004"
    x2="609.7395404663923"
    y2="307.88065843621405"
    stroke="#8B5CF6"
    stroke-width="3"
    opacity="0.5"
    stroke-linecap="round"
  />
<line
    x1="609.7395404663923"
    y1="307.88065843621405"
    x2="687.4754801097394"
    y2="436.3333333333333"
    stroke="#06B6D4"
    stroke-width="3"
    opacity="0.5"
    stroke-linecap="round"
  />
</g>
<g id="graph-nodes">
<circle cx="272.9576474622771" cy="76.07818930041152" r="46.590727880658434" fill="#06B6D4" opacity="0.9" stroke="#FFFFFF" stroke-width="4" />
<circle cx="610.940500685871" cy="512.679012345679" r="48.359332133058984" fill="#06B6D4" opacity="0.9" stroke="#FFFFFF" stroke-width="4" />
<circle cx="408.84104938271605" cy="366.56378600823047" r="38.31723679698217" fill="#10B981" opacity="0.9" stroke="#FFFFFF" stroke-width="4" />
<circle cx="338.26423182441704" cy="200.6954732510288" r="36.77308384773663" fill="#06B6D4" opacity="0.9" stroke="#FFFFFF" stroke-width="4" />
<circle cx="214.51868998628257" cy="400.2592592592593" r="35.51699674211248" fill="#06B6D4" opacity="0.9" stroke="#FFFFFF" stroke-width="4" />
<circle cx="734.3945473251028" cy="319.3292181069959" r="28.931691529492454" fill="#06B6D4" opacity="0.9" stroke="#FFFFFF" stroke-width="4" />
<circle cx="227.27451989026065" cy="147.53497942386832" r="33.4369212962963" fill="#10B981" opacity="0.9" stroke="#FFFFFF" stroke-width="4" />
<circle cx="699.5783607681756" cy="216.7283950617284" r="25.267253943758575" fill="#10B981" opacity="0.9" stroke="#FFFFFF" stroke-width="4" />
<circle cx="732.5406378600823" cy="147.65020576131687" r="41.583183299039774" fill="#06B6D4" opacity="0.9" stroke="#FFFFFF" stroke-width="4" />
<circle cx="393.32184499314127" cy="236.59670781893004" r="24.915573559670783" fill="#8B5CF6" opacity="0.9" stroke="#FFFFFF" stroke-width="4" />
<circle cx="479.45284636488344" cy="282.0864197530864" r="40.94343707133059" fill="#06B6D4" opacity="0.9" stroke="#FFFFFF" stroke-width="4" />
<circle cx="176.61265432098764" cy="171.5267489711934" r="29.605045438957475" fill="#06B6D4" opacity="0.9" stroke="#FFFFFF" stroke-width="4" />
<circle cx="609.7395404663923" cy="307.88065843621405" r="34.54237397119341" fill="#06B6D4" opacity="0.9" stroke="#FFFFFF" stroke-width="4" />
<circle cx="687.4754801097394" cy="436.3333333333333" r="35.87887945816187" fill="#10B981" opacity="0.9" stroke="#FFFFFF" stroke-width="4" />
</g>
<g id="accent-dots">
<circle cx="69.20781893004116" cy="503.2355967078189" r="6" fill="#8B5CF6" opacity="0.3"  />
<circle cx="93.66255144032922" cy="93.33590534979425" r="6" fill="#8B5CF6" opacity="0.3"  />
<circle cx="27.37654320987654" cy="298.7139917695473" r="6" fill="#06B6D4" opacity="0.3"  />
<circle cx="203.68312757201647" cy="169.36985596707817" r="6" fill="#06B6D4" opacity="0.3"  />
</g>

</svg>
