<svg
  xmlns="http://www.w3.org/2000/svg"
  viewBox="0 0 800 600"
  width="800"
  height="600"
  role="img"
  aria-label="Automatonic AI Geometric Illustration"
>
  <title>Automatonic AI - Abstract Geometric Composition</title>

  <!-- Background -->
  <rect width="800" height="600" fill="#0F172A" />

  <g id="grid-pattern">
<line x1="0" y1="0" x2="0" y2="600" stroke="#334155" stroke-width="1" opacity="0.5" />
<line x1="40" y1="0" x2="40" y2="600" stroke="#334155" stroke-width="1" opacity="0.5" />
<line x1="80" y1="0" x2="80" y2="600" stroke="#334155" stroke-width="1" opacity="0.5" />
<line x1="120" y1="0" x2="120" y2="600" stroke="#334155" stroke-width="1" opacity="0.5" />
<line x1="160" y1="0" x2="160" y2="600" stroke="#334155" stroke-width="1" opacity="0.5" />
<line x1="200" y1="0" x2="200" y2="600" stroke="#334155" stroke-width="1" opacity="0.5" />
<line x1="240" y1="0" x2="240" y2="600" stroke="#334155" stroke-width="1" opacity="0.5" />
<line x1="280" y1="0" x2="280" y2="600" stroke="#334155" stroke-width="1" opacity="0.5" />
<line x1="320" y1="0" x2="320" y2="600" stroke="#334155" stroke-width="1" opacity="0.5" />
<line x1="360" y1="0" x2="360" y2="600" stroke="#334155" stroke-width="1" opacity="0.5" />
<line x1="400" y1="0" x2="400" y2="600" stroke="#334155" stroke-width="1" opacity="0.5" />
<line x1="440" y1="0" x2="440" y2="600" stroke="#334155" stroke-width="1" opacity="0.5" />
<line x1="480" y1="0" x2="480" y2="600" stroke="#334155" stroke-width="1" opacity="0.5" />
<line x1="520" y1="0" x2="520" y2="600" stroke="#334155" stroke-width="1" opacity="0.5" />
<line x1="560" y1="0" x2="560" y2="600" stroke="#334155" stroke-width="1" opacity="0.5" />
<line x1="600" y1="0" x2="600" y2="600" stroke="#334155" stroke-width="1" opacity="0.5" />
<line x1="640" y1="0" x2="640" y2="600" stroke="#334155" stroke-width="1" opacity="0.5" />
<line x1="680" y1="0" x2="680" y2="600" stroke="#334155" stroke-width="1" opacity="0.5" />
<line x1="720" y1="0" x2="720" y2="600" stroke="#334155" stroke-width="1" opacity="0.5" />
<line x1="760" y1="0" x2="760" y2="600" stroke="#334155" stroke-width="1" opacity="0.5" />
<line x1="800" y1="0" x2="800" y2="600" stroke="#334155" stroke-width="1" opacity="0.5" />
<line x1="0" y1="0" x2="800" y2="0" stroke="#334155" stroke-width="1" opacity="0.5" />
<line x1="0" y1="40" x2="800" y2="40" stroke="#334155" stroke-width="1" opacity="0.5" />
<line x1="0" y1="80" x2="800" y2="80" stroke="#334155" stroke-width="1" opacity="0.5" />
<line x1="0" y1="120" x2="800" y2="120" stroke="#334155" stroke-width="1" opacity="0.5" />
<line x1="0" y1="160" x2="800" y2="160" stroke="#334155" stroke-width="1" opacity="0.5" />
<line x1="0" y1="200" x2="800" y2="200" stroke="#334155" stroke-width="1" opacity="0.5" />
<line x1="0" y1="240" x2="800" y2="240" stroke="#334155" stroke-width="1" opacity="0.5" />
<line x1="0" y1="280" x2="800" y2="280" stroke="#334155" stroke-width="1" opacity="0.5" />
<line x1="0" y1="320" x2="800" y2="320" stroke="#334155" stroke-width="1" opacity="0.5" />
<line x1="0" y1="360" x2="800" y2="360" stroke="#334155" stroke-width="1" opacity="0.5" />
<line x1="0" y1="400" x2="800" y2="400" stroke="#334155" stroke-width="1" opacity="0.5" />
<line x1="0" y1="440" x2="800" y2="440" stroke="#334155" stroke-width="1" opacity="0.5" />
<line x1="0" y1="480" x2="800" y2="480" stroke="#334155" stroke-width="1" opacity="0.5" />
<line x1="0" y1="520" x2="800" y2="520" stroke="#334155" stroke-width="1" opacity="0.5" />
<line x1="0" y1="560" x2="800" y2="560" stroke="#334155" stroke-width="1" opacity="0.5" />
<line x1="0" y1="600" x2="800" y2="600" stroke="#334155" stroke-width="1" opacity="0.5" />
</g>
<g id="graph-edges">
<line
    x1="206.960219478738"
    y1="212.16975308641977"
    x2="364.40329218106996"
    y2="252.05795610425238"
    stroke="#8B5CF6"
    stroke-width="2"
    opacity="0.4"
    stroke-linecap="round"
  />
<line
    x1="206.960219478738"
    y1="212.16975308641977"
    x2="341.8957475994513"
    y2="208.97085048010973"
    stroke="#8B5CF6"
    stroke-width="2"
    opacity="0.4"
    stroke-linecap="round"
  />
<line
    x1="206.960219478738"
    y1="212.16975308641977"
    x2="225.42935528120714"
    y2="391.90432098765433"
    stroke="#8B5CF6"
    stroke-width="2"
    opacity="0.4"
    stroke-linecap="round"
  />
<line
    x1="206.960219478738"
    y1="212.16975308641977"
    x2="237.43484224965707"
    y2="160.2403978052126"
    stroke="#8B5CF6"
    stroke-width="2"
    opacity="0.4"
    stroke-linecap="round"
  />
<line
    x1="364.40329218106996"
    y1="252.05795610425238"
    x2="266.3731138545953"
    y2="404.20953360768175"
    stroke="#8B5CF6"
    stroke-width="2"
    opacity="0.4"
    stroke-linecap="round"
  />
<line
    x1="364.40329218106996"
    y1="252.05795610425238"
    x2="280.4307270233196"
    y2="94.73834019204389"
    stroke="#8B5CF6"
    stroke-width="2"
    opacity="0.4"
    stroke-linecap="round"
  />
<line
    x1="364.40329218106996"
    y1="252.05795610425238"
    x2="237.43484224965707"
    y2="160.2403978052126"
    stroke="#8B5CF6"
    stroke-width="2"
    opacity="0.4"
    stroke-linecap="round"
  />
<line
    x1="266.3731138545953"
    y1="404.20953360768175"
    x2="408.320987654321"
    y2="361.0168038408779"
    stroke="#8B5CF6"
    stroke-width="2"
    opacity="0.4"
    stroke-linecap="round"
  />
<line
    x1="266.3731138545953"
    y1="404.20953360768175"
    x2="225.42935528120714"
    y2="391.90432098765433"
    stroke="#8B5CF6"
    stroke-width="2"
    opacity="0.4"
    stroke-linecap="round"
  />
<line
    x1="94.59807956104252"
    y1="239.48868312757202"
    x2="237.43484224965707"
    y2="160.2403978052126"
    stroke="#06B6D4"
    stroke-width="2"
    opacity="0.4"
    stroke-linecap="round"
  />
<line
    x1="647.1028806584362"
    y1="436.9077503429355"
    x2="598.5322359396433"
    y2="494.95576131687244"
    stroke="#06B6D4"
    stroke-width="2"
    opacity="0.4"
    stroke-linecap="round"
  />
<line
    x1="647.1028806584362"
    y1="436.9077503429355"
    x2="714.7242798353909"
    y2="317.71844993141286"
    stroke="#06B6D4"
    stroke-width="2"
    opacity="0.4"
    stroke-linecap="round"
  />
<line
    x1="280.4307270233196"
    y1="94.73834019204389"
    x2="341.8957475994513"
    y2="208.97085048010973"
    stroke="#06B6D4"
    stroke-width="2"
    opacity="0.4"
    stroke-linecap="round"
  />
<line
    x1="280.4307270233196"
    y1="94.73834019204389"
    x2="237.43484224965707"
    y2="160.2403978052126"
    stroke="#06B6D4"
    stroke-width="2"
    opacity="0.4"
    stroke-linecap="round"
  />
<line
    x1="408.320987654321"
    y1="361.0168038408779"
    x2="341.8957475994513"
    y2="208.97085048010973"
    stroke="#10B981"
    stroke-width="2"
    opacity="0.4"
    stroke-linecap="round"
  />
<line
    x1="714.7242798353909"
    y1="317.71844993141286"
    x2="681.9561042524006"
    y2="223.66769547325103"
    stroke="#10B981"
    stroke-width="2"
    opacity="0.4"
    stroke-linecap="round"
  />
<line
    x1="681.9561042524006"
    y1="223.66769547325103"
    x2="712.9794238683128"
    y2="160.3460219478738"
    stroke="#10B981"
    stroke-width="2"
    opacity="0.4"
    stroke-linecap="round"
  />
</g>
<g id="graph-nodes">
<circle cx="206.960219478738" cy="212.16975308641977" r="22.491748113854594" fill="#8B5CF6" opacity="0.9" stroke="#FFFFFF" stroke-width="3" />
<circle cx="364.40329218106996" cy="252.05795610425238" r="27.04721793552812" fill="#8B5CF6" opacity="0.9" stroke="#FFFFFF" stroke-width="3" />
<circle cx="266.3731138545953" cy="404.20953360768175" r="33.96894290123457" fill="#8B5CF6" opacity="0.9" stroke="#FFFFFF" stroke-width="3" />
<circle cx="94.59807956104252" cy="239.48868312757202" r="34.61494770233196" fill="#06B6D4" opacity="0.9" stroke="#FFFFFF" stroke-width="3" />
<circle cx="647.1028806584362" cy="436.9077503429355" r="38.86177554869685" fill="#06B6D4" opacity="0.9" stroke="#FFFFFF" stroke-width="3" />
<circle cx="280.4307270233196" cy="94.73834019204389" r="38.99337705761317" fill="#06B6D4" opacity="0.9" stroke="#FFFFFF" stroke-width="3" />
<circle cx="598.5322359396433" cy="494.95576131687244" r="40.25666580932784" fill="#06B6D4" opacity="0.9" stroke="#FFFFFF" stroke-width="3" />
<circle cx="408.320987654321" cy="361.0168038408779" r="33.083740569272976" fill="#10B981" opacity="0.9" stroke="#FFFFFF" stroke-width="3" />
<circle cx="341.8957475994513" cy="208.97085048010973" r="31.980774176954732" fill="#06B6D4" opacity="0.9" stroke="#FFFFFF" stroke-width="3" />
<circle cx="225.42935528120714" cy="391.90432098765433" r="31.083569101508917" fill="#10B981" opacity="0.9" stroke="#FFFFFF" stroke-width="3" />
<circle cx="714.7242798353909" cy="317.71844993141286" r="26.37977966392318" fill="#10B981" opacity="0.9" stroke="#FFFFFF" stroke-width="3" />
<circle cx="237.43484224965707" cy="160.2403978052126" r="29.597800925925924" fill="#10B981" opacity="0.9" stroke="#FFFFFF" stroke-width="3" />
<circle cx="681.9561042524006" cy="223.66769547325103" r="23.762324245541837" fill="#10B981" opacity="0.9" stroke="#FFFFFF" stroke-width="3" />
<circle cx="712.9794238683128" cy="160.3460219478738" r="35.416559499314126" fill="#10B981" opacity="0.9" stroke="#FFFFFF" stroke-width="3" />
</g>
<g id="accent-dots">
<circle cx="235.6447187928669" cy="525.4398148148148" r="6" fill="#06B6D4" opacity="0.3"  />
<circle cx="419.97599451303154" cy="574.3364197530864" r="6" fill="#8B5CF6" opacity="0.3"  />
<circle cx="2.4554183813443076" cy="455.1774691358025" r="6" fill="#8B5CF6" opacity="0.3"  />
<circle cx="116.41632373113855" cy="417.962962962963" r="6" fill="#8B5CF6" opacity="0.3"  />
</g>

</svg>
