<svg
  xmlns="http://www.w3.org/2000/svg"
  viewBox="0 0 800 600"
  width="800"
  height="600"
  role="img"
  aria-label="Automatonic AI Geometric Illustration"
>
  <title>Automatonic AI - Abstract Geometric Composition</title>

  <!-- Background -->
  <rect width="800" height="600" fill="#FFFFFF" />

  <g id="grid-pattern">
<line x1="0" y1="0" x2="0" y2="600" stroke="#E5E7EB" stroke-width="1" opacity="0.3" />
<line x1="40" y1="0" x2="40" y2="600" stroke="#E5E7EB" stroke-width="1" opacity="0.3" />
<line x1="80" y1="0" x2="80" y2="600" stroke="#E5E7EB" stroke-width="1" opacity="0.3" />
<line x1="120" y1="0" x2="120" y2="600" stroke="#E5E7EB" stroke-width="1" opacity="0.3" />
<line x1="160" y1="0" x2="160" y2="600" stroke="#E5E7EB" stroke-width="1" opacity="0.3" />
<line x1="200" y1="0" x2="200" y2="600" stroke="#E5E7EB" stroke-width="1" opacity="0.3" />
<line x1="240" y1="0" x2="240" y2="600" stroke="#E5E7EB" stroke-width="1" opacity="0.3" />
<line x1="280" y1="0" x2="280" y2="600" stroke="#E5E7EB" stroke-width="1" opacity="0.3" />
<line x1="320" y1="0" x2="320" y2="600" stroke="#E5E7EB" stroke-width="1" opacity="0.3" />
<line x1="360" y1="0" x2="360" y2="600" stroke="#E5E7EB" stroke-width="1" opacity="0.3" />
<line x1="400" y1="0" x2="400" y2="600" stroke="#E5E7EB" stroke-width="1" opacity="0.3" />
<line x1="440" y1="0" x2="440" y2="600" stroke="#E5E7EB" stroke-width="1" opacity="0.3" />
<line x1="480" y1="0" x2="480" y2="600" stroke="#E5E7EB" stroke-width="1" opacity="0.3" />
<line x1="520" y1="0" x2="520" y2="600" stroke="#E5E7EB" stroke-width="1" opacity="0.3" />
<line x1="560" y1="0" x2="560" y2="600" stroke="#E5E7EB" stroke-width="1" opacity="0.3" />
<line x1="600" y1="0" x2="600" y2="600" stroke="#E5E7EB" stroke-width="1" opacity="0.3" />
<line x1="640" y1="0" x2="640" y2="600" stroke="#E5E7EB" stroke-width="1" opacity="0.3" />
<line x1="680" y1="0" x2="680" y2="600" stroke="#E5E7EB" stroke-width="1" opacity="0.3" />
<line x1="720" y1="0" x2="720" y2="600" stroke="#E5E7EB" stroke-width="1" opacity="0.3" />
<line x1="760" y1="0" x2="760" y2="600" stroke="#E5E7EB" stroke-width="1" opacity="0.3" />
<line x1="800" y1="0" x2="800" y2="600" stroke="#E5E7EB" stroke-width="1" opacity="0.3" />
<line x1="0" y1="0" x2="800" y2="0" stroke="#E5E7EB" stroke-width="1" opacity="0.3" />
<line x1="0" y1="40" x2="800" y2="40" stroke="#E5E7EB" stroke-width="1" opacity="0.3" />
<line x1="0" y1="80" x2="800" y2="80" stroke="#E5E7EB" stroke-width="1" opacity="0.3" />
<line x1="0" y1="120" x2="800" y2="120" stroke="#E5E7EB" stroke-width="1" opacity="0.3" />
<line x1="0" y1="160" x2="800" y2="160" stroke="#E5E7EB" stroke-width="1" opacity="0.3" />
<line x1="0" y1="200" x2="800" y2="200" stroke="#E5E7EB" stroke-width="1" opacity="0.3" />
<line x1="0" y1="240" x2="800" y2="240" stroke="#E5E7EB" stroke-width="1" opacity="0.3" />
<line x1="0" y1="280" x2="800" y2="280" stroke="#E5E7EB" stroke-width="1" opacity="0.3" />
<line x1="0" y1="320" x2="800" y2="320" stroke="#E5E7EB" stroke-width="1" opacity="0.3" />
<line x1="0" y1="360" x2="800" y2="360" stroke="#E5E7EB" stroke-width="1" opacity="0.3" />
<line x1="0" y1="400" x2="800" y2="400" stroke="#E5E7EB" stroke-width="1" opacity="0.3" />
<line x1="0" y1="440" x2="800" y2="440" stroke="#E5E7EB" stroke-width="1" opacity="0.3" />
<line x1="0" y1="480" x2="800" y2="480" stroke="#E5E7EB" stroke-width="1" opacity="0.3" />
<line x1="0" y1="520" x2="800" y2="520" stroke="#E5E7EB" stroke-width="1" opacity="0.3" />
<line x1="0" y1="560" x2="800" y2="560" stroke="#E5E7EB" stroke-width="1" opacity="0.3" />
<line x1="0" y1="600" x2="800" y2="600" stroke="#E5E7EB" stroke-width="1" opacity="0.3" />
</g>
<g id="background-shapes">
<rect
    x="199.18767146776406"
    y="190.11574074074076"
    width="67.97359396433471"
    height="67.97359396433471"
    fill="#8B5CF6"
    opacity="0.08"
    transform="rotate(-1.6685956790123448 233.17446844993142 224.10253772290812)"
  />
<rect
    x="295.52040466392316"
    y="184.56661522633743"
    width="64.66255144032922"
    height="64.66255144032922"
    fill="#8B5CF6"
    opacity="0.08"
    transform="rotate(7.10519547325103 327.8516803840878 216.89789094650206)"
  />
<path d="M 414.2649938139905,222.43231437747517 L 476.3535660010363,187.24024166578428 L 414.83205092736,151.06599722294408 Z" fill="#06B6D4" opacity="0.08" />
<path d="M 414.13039555412263,520.4028997609723 L 500.4472718377704,438.96712704242725 L 386.7633857448707,404.93240576474227 Z" fill="#10B981" opacity="0.08" />
</g>
<g id="graph-edges">
<line
    x1="280.4307270233196"
    y1="94.73834019204389"
    x2="237.43484224965707"
    y2="160.2403978052126"
    stroke="#06B6D4"
    stroke-width="3"
    opacity="0.5"
    stroke-linecap="round"
  />
<line
    x1="280.4307270233196"
    y1="94.73834019204389"
    x2="393.71467764060355"
    y2="241.88031550068587"
    stroke="#06B6D4"
    stroke-width="3"
    opacity="0.5"
    stroke-linecap="round"
  />
<line
    x1="598.5322359396433"
    y1="494.95576131687244"
    x2="408.320987654321"
    y2="361.0168038408779"
    stroke="#06B6D4"
    stroke-width="3"
    opacity="0.5"
    stroke-linecap="round"
  />
<line
    x1="598.5322359396433"
    y1="494.95576131687244"
    x2="714.7242798353909"
    y2="317.71844993141286"
    stroke="#06B6D4"
    stroke-width="3"
    opacity="0.5"
    stroke-linecap="round"
  />
<line
    x1="598.5322359396433"
    y1="494.95576131687244"
    x2="474.77914951989027"
    y2="283.5792181069959"
    stroke="#06B6D4"
    stroke-width="3"
    opacity="0.5"
    stroke-linecap="round"
  />
<line
    x1="598.5322359396433"
    y1="494.95576131687244"
    x2="597.4019204389574"
    y2="307.22393689986285"
    stroke="#06B6D4"
    stroke-width="3"
    opacity="0.5"
    stroke-linecap="round"
  />
<line
    x1="598.5322359396433"
    y1="494.95576131687244"
    x2="670.5651577503429"
    y2="424.97222222222223"
    stroke="#06B6D4"
    stroke-width="3"
    opacity="0.5"
    stroke-linecap="round"
  />
<line
    x1="408.320987654321"
    y1="361.0168038408779"
    x2="341.8957475994513"
    y2="208.97085048010973"
    stroke="#10B981"
    stroke-width="3"
    opacity="0.5"
    stroke-linecap="round"
  />
<line
    x1="408.320987654321"
    y1="361.0168038408779"
    x2="225.42935528120714"
    y2="391.90432098765433"
    stroke="#10B981"
    stroke-width="3"
    opacity="0.5"
    stroke-linecap="round"
  />
<line
    x1="408.320987654321"
    y1="361.0168038408779"
    x2="474.77914951989027"
    y2="283.5792181069959"
    stroke="#10B981"
    stroke-width="3"
    opacity="0.5"
    stroke-linecap="round"
  />
<line
    x1="341.8957475994513"
    y1="208.97085048010973"
    x2="237.43484224965707"
    y2="160.2403978052126"
    stroke="#06B6D4"
    stroke-width="3"
    opacity="0.5"
    stroke-linecap="round"
  />
<line
    x1="341.8957475994513"
    y1="208.97085048010973"
    x2="393.71467764060355"
    y2="241.88031550068587"
    stroke="#06B6D4"
    stroke-width="3"
    opacity="0.5"
    stroke-linecap="round"
  />
<line
    x1="341.8957475994513"
    y1="208.97085048010973"
    x2="474.77914951989027"
    y2="283.5792181069959"
    stroke="#06B6D4"
    stroke-width="3"
    opacity="0.5"
    stroke-linecap="round"
  />
<line
    x1="225.42935528120714"
    y1="391.90432098765433"
    x2="189.7530864197531"
    y2="182.23285322359396"
    stroke="#10B981"
    stroke-width="3"
    opacity="0.5"
    stroke-linecap="round"
  />
<line
    x1="714.7242798353909"
    y1="317.71844993141286"
    x2="712.9794238683128"
    y2="160.3460219478738"
    stroke="#10B981"
    stroke-width="3"
    opacity="0.5"
    stroke-linecap="round"
  />
<line
    x1="714.7242798353909"
    y1="317.71844993141286"
    x2="474.77914951989027"
    y2="283.5792181069959"
    stroke="#10B981"
    stroke-width="3"
    opacity="0.5"
    stroke-linecap="round"
  />
<line
    x1="714.7242798353909"
    y1="317.71844993141286"
    x2="597.4019204389574"
    y2="307.22393689986285"
    stroke="#10B981"
    stroke-width="3"
    opacity="0.5"
    stroke-linecap="round"
  />
<line
    x1="714.7242798353909"
    y1="317.71844993141286"
    x2="670.5651577503429"
    y2="424.97222222222223"
    stroke="#10B981"
    stroke-width="3"
    opacity="0.5"
    stroke-linecap="round"
  />
<line
    x1="237.43484224965707"
    y1="160.2403978052126"
    x2="189.7530864197531"
    y2="182.23285322359396"
    stroke="#10B981"
    stroke-width="3"
    opacity="0.5"
    stroke-linecap="round"
  />
<line
    x1="681.9561042524006"
    y1="223.66769547325103"
    x2="712.9794238683128"
    y2="160.3460219478738"
    stroke="#10B981"
    stroke-width="3"
    opacity="0.5"
    stroke-linecap="round"
  />
<line
    x1="681.9561042524006"
    y1="223.66769547325103"
    x2="597.4019204389574"
    y2="307.22393689986285"
    stroke="#10B981"
    stroke-width="3"
    opacity="0.5"
    stroke-linecap="round"
  />
<line
    x1="681.9561042524006"
    y1="223.66769547325103"
    x2="670.5651577503429"
    y2="424.97222222222223"
    stroke="#10B981"
    stroke-width="3"
    opacity="0.5"
    stroke-linecap="round"
  />
<line
    x1="712.9794238683128"
    y1="160.3460219478738"
    x2="597.4019204389574"
    y2="307.22393689986285"
    stroke="#10B981"
    stroke-width="3"
    opacity="0.5"
    stroke-linecap="round"
  />
<line
    x1="393.71467764060355"
    y1="241.88031550068587"
    x2="189.7530864197531"
    y2="182.23285322359396"
    stroke="#06B6D4"
    stroke-width="3"
    opacity="0.5"
    stroke-linecap="round"
  />
<line
    x1="474.77914951989027"
    y1="283.5792181069959"
    x2="597.4019204389574"
    y2="307.22393689986285"
    stroke="#10B981"
    stroke-width="3"
    opacity="0.5"
    stroke-linecap="round"
  />
</g>
<g id="graph-nodes">
<circle cx="280.4307270233196" cy="94.73834019204389" r="43.99337705761317" fill="#06B6D4" opacity="0.9" stroke="#FFFFFF" stroke-width="4" />
<circle cx="598.5322359396433" cy="494.95576131687244" r="45.25666580932784" fill="#06B6D4" opacity="0.9" stroke="#FFFFFF" stroke-width="4" />
<circle cx="408.320987654321" cy="361.0168038408779" r="38.083740569272976" fill="#10B981" opacity="0.9" stroke="#FFFFFF" stroke-width="4" />
<circle cx="341.8957475994513" cy="208.97085048010973" r="36.98077417695473" fill="#06B6D4" opacity="0.9" stroke="#FFFFFF" stroke-width="4" />
<circle cx="225.42935528120714" cy="391.90432098765433" r="36.083569101508914" fill="#10B981" opacity="0.9" stroke="#FFFFFF" stroke-width="4" />
<circle cx="714.7242798353909" cy="317.71844993141286" r="31.37977966392318" fill="#10B981" opacity="0.9" stroke="#FFFFFF" stroke-width="4" />
<circle cx="237.43484224965707" cy="160.2403978052126" r="34.597800925925924" fill="#10B981" opacity="0.9" stroke="#FFFFFF" stroke-width="4" />
<circle cx="681.9561042524006" cy="223.66769547325103" r="28.762324245541837" fill="#10B981" opacity="0.9" stroke="#FFFFFF" stroke-width="4" />
<circle cx="712.9794238683128" cy="160.3460219478738" r="40.416559499314126" fill="#10B981" opacity="0.9" stroke="#FFFFFF" stroke-width="4" />
<circle cx="393.71467764060355" cy="241.88031550068587" r="28.511123971193417" fill="#06B6D4" opacity="0.9" stroke="#FFFFFF" stroke-width="4" />
<circle cx="474.77914951989027" cy="283.5792181069959" r="39.95959790809328" fill="#10B981" opacity="0.9" stroke="#FFFFFF" stroke-width="4" />
<circle cx="189.7530864197531" cy="182.23285322359396" r="31.860746742112482" fill="#06B6D4" opacity="0.9" stroke="#FFFFFF" stroke-width="4" />
<circle cx="597.4019204389574" cy="307.22393689986285" r="35.387409979423865" fill="#10B981" opacity="0.9" stroke="#FFFFFF" stroke-width="4" />
<circle cx="670.5651577503429" cy="424.97222222222223" r="36.3420567558299" fill="#10B981" opacity="0.9" stroke="#FFFFFF" stroke-width="4" />
</g>
<g id="accent-dots">
<circle cx="124.44787379972566" cy="44.04835390946502" r="6" fill="#8B5CF6" opacity="0.3"  />
<circle cx="398.28532235939645" cy="465.6301440329218" r="6" fill="#8B5CF6" opacity="0.3"  />
<circle cx="225.8264746227709" cy="435.82304526748976" r="6" fill="#8B5CF6" opacity="0.3"  />
<circle cx="740.4046639231824" cy="204.62705761316872" r="6" fill="#8B5CF6" opacity="0.3"  />
</g>

</svg>
