<svg
  xmlns="http://www.w3.org/2000/svg"
  viewBox="0 0 1920 1080"
  width="1920"
  height="1080"
  role="img"
  aria-label="Automatonic AI Geometric Illustration"
>
  <title>Automatonic AI - Abstract Geometric Composition</title>

  <!-- Background -->
  <rect width="1920" height="1080" fill="#0F172A" />

  <g id="grid-pattern">
<line x1="0" y1="0" x2="0" y2="1080" stroke="#334155" stroke-width="1" opacity="0.5" />
<line x1="40" y1="0" x2="40" y2="1080" stroke="#334155" stroke-width="1" opacity="0.5" />
<line x1="80" y1="0" x2="80" y2="1080" stroke="#334155" stroke-width="1" opacity="0.5" />
<line x1="120" y1="0" x2="120" y2="1080" stroke="#334155" stroke-width="1" opacity="0.5" />
<line x1="160" y1="0" x2="160" y2="1080" stroke="#334155" stroke-width="1" opacity="0.5" />
<line x1="200" y1="0" x2="200" y2="1080" stroke="#334155" stroke-width="1" opacity="0.5" />
<line x1="240" y1="0" x2="240" y2="1080" stroke="#334155" stroke-width="1" opacity="0.5" />
<line x1="280" y1="0" x2="280" y2="1080" stroke="#334155" stroke-width="1" opacity="0.5" />
<line x1="320" y1="0" x2="320" y2="1080" stroke="#334155" stroke-width="1" opacity="0.5" />
<line x1="360" y1="0" x2="360" y2="1080" stroke="#334155" stroke-width="1" opacity="0.5" />
<line x1="400" y1="0" x2="400" y2="1080" stroke="#334155" stroke-width="1" opacity="0.5" />
<line x1="440" y1="0" x2="440" y2="1080" stroke="#334155" stroke-width="1" opacity="0.5" />
<line x1="480" y1="0" x2="480" y2="1080" stroke="#334155" stroke-width="1" opacity="0.5" />
<line x1="520" y1="0" x2="520" y2="1080" stroke="#334155" stroke-width="1" opacity="0.5" />
<line x1="560" y1="0" x2="560" y2="1080" stroke="#334155" stroke-width="1" opacity="0.5" />
<line x1="600" y1="0" x2="600" y2="1080" stroke="#334155" stroke-width="1" opacity="0.5" />
<line x1="640" y1="0" x2="640" y2="1080" stroke="#334155" stroke-width="1" opacity="0.5" />
<line x1="680" y1="0" x2="680" y2="1080" stroke="#334155" stroke-width="1" opacity="0.5" />
<line x1="720" y1="0" x2="720" y2="1080" stroke="#334155" stroke-width="1" opacity="0.5" />
<line x1="760" y1="0" x2="760" y2="1080" stroke="#334155" stroke-width="1" opacity="0.5" />
<line x1="800" y1="0" x2="800" y2="1080" stroke="#334155" stroke-width="1" opacity="0.5" />
<line x1="840" y1="0" x2="840" y2="1080" stroke="#334155" stroke-width="1" opacity="0.5" />
<line x1="880" y1="0" x2="880" y2="1080" stroke="#334155" stroke-width="1" opacity="0.5" />
<line x1="920" y1="0" x2="920" y2="1080" stroke="#334155" stroke-width="1" opacity="0.5" />
<line x1="960" y1="0" x2="960" y2="1080" stroke="#334155" stroke-width="1" opacity="0.5" />
<line x1="1000" y1="0" x2="1000" y2="1080" stroke="#334155" stroke-width="1" opacity="0.5" />
<line x1="1040" y1="0" x2="1040" y2="1080" stroke="#334155" stroke-width="1" opacity="0.5" />
<line x1="1080" y1="0" x2="1080" y2="1080" stroke="#334155" stroke-width="1" opacity="0.5" />
<line x1="1120" y1="0" x2="1120" y2="1080" stroke="#334155" stroke-width="1" opacity="0.5" />
<line x1="1160" y1="0" x2="1160" y2="1080" stroke="#334155" stroke-width="1" opacity="0.5" />
<line x1="1200" y1="0" x2="1200" y2="1080" stroke="#334155" stroke-width="1" opacity="0.5" />
<line x1="1240" y1="0" x2="1240" y2="1080" stroke="#334155" stroke-width="1" opacity="0.5" />
<line x1="1280" y1="0" x2="1280" y2="1080" stroke="#334155" stroke-width="1" opacity="0.5" />
<line x1="1320" y1="0" x2="1320" y2="1080" stroke="#334155" stroke-width="1" opacity="0.5" />
<line x1="1360" y1="0" x2="1360" y2="1080" stroke="#334155" stroke-width="1" opacity="0.5" />
<line x1="1400" y1="0" x2="1400" y2="1080" stroke="#334155" stroke-width="1" opacity="0.5" />
<line x1="1440" y1="0" x2="1440" y2="1080" stroke="#334155" stroke-width="1" opacity="0.5" />
<line x1="1480" y1="0" x2="1480" y2="1080" stroke="#334155" stroke-width="1" opacity="0.5" />
<line x1="1520" y1="0" x2="1520" y2="1080" stroke="#334155" stroke-width="1" opacity="0.5" />
<line x1="1560" y1="0" x2="1560" y2="1080" stroke="#334155" stroke-width="1" opacity="0.5" />
<line x1="1600" y1="0" x2="1600" y2="1080" stroke="#334155" stroke-width="1" opacity="0.5" />
<line x1="1640" y1="0" x2="1640" y2="1080" stroke="#334155" stroke-width="1" opacity="0.5" />
<line x1="1680" y1="0" x2="1680" y2="1080" stroke="#334155" stroke-width="1" opacity="0.5" />
<line x1="1720" y1="0" x2="1720" y2="1080" stroke="#334155" stroke-width="1" opacity="0.5" />
<line x1="1760" y1="0" x2="1760" y2="1080" stroke="#334155" stroke-width="1" opacity="0.5" />
<line x1="1800" y1="0" x2="1800" y2="1080" stroke="#334155" stroke-width="1" opacity="0.5" />
<line x1="1840" y1="0" x2="1840" y2="1080" stroke="#334155" stroke-width="1" opacity="0.5" />
<line x1="1880" y1="0" x2="1880" y2="1080" stroke="#334155" stroke-width="1" opacity="0.5" />
<line x1="1920" y1="0" x2="1920" y2="1080" stroke="#334155" stroke-width="1" opacity="0.5" />
<line x1="0" y1="0" x2="1920" y2="0" stroke="#334155" stroke-width="1" opacity="0.5" />
<line x1="0" y1="40" x2="1920" y2="40" stroke="#334155" stroke-width="1" opacity="0.5" />
<line x1="0" y1="80" x2="1920" y2="80" stroke="#334155" stroke-width="1" opacity="0.5" />
<line x1="0" y1="120" x2="1920" y2="120" stroke="#334155" stroke-width="1" opacity="0.5" />
<line x1="0" y1="160" x2="1920" y2="160" stroke="#334155" stroke-width="1" opacity="0.5" />
<line x1="0" y1="200" x2="1920" y2="200" stroke="#334155" stroke-width="1" opacity="0.5" />
<line x1="0" y1="240" x2="1920" y2="240" stroke="#334155" stroke-width="1" opacity="0.5" />
<line x1="0" y1="280" x2="1920" y2="280" stroke="#334155" stroke-width="1" opacity="0.5" />
<line x1="0" y1="320" x2="1920" y2="320" stroke="#334155" stroke-width="1" opacity="0.5" />
<line x1="0" y1="360" x2="1920" y2="360" stroke="#334155" stroke-width="1" opacity="0.5" />
<line x1="0" y1="400" x2="1920" y2="400" stroke="#334155" stroke-width="1" opacity="0.5" />
<line x1="0" y1="440" x2="1920" y2="440" stroke="#334155" stroke-width="1" opacity="0.5" />
<line x1="0" y1="480" x2="1920" y2="480" stroke="#334155" stroke-width="1" opacity="0.5" />
<line x1="0" y1="520" x2="1920" y2="520" stroke="#334155" stroke-width="1" opacity="0.5" />
<line x1="0" y1="560" x2="1920" y2="560" stroke="#334155" stroke-width="1" opacity="0.5" />
<line x1="0" y1="600" x2="1920" y2="600" stroke="#334155" stroke-width="1" opacity="0.5" />
<line x1="0" y1="640" x2="1920" y2="640" stroke="#334155" stroke-width="1" opacity="0.5" />
<line x1="0" y1="680" x2="1920" y2="680" stroke="#334155" stroke-width="1" opacity="0.5" />
<line x1="0" y1="720" x2="1920" y2="720" stroke="#334155" stroke-width="1" opacity="0.5" />
<line x1="0" y1="760" x2="1920" y2="760" stroke="#334155" stroke-width="1" opacity="0.5" />
<line x1="0" y1="800" x2="1920" y2="800" stroke="#334155" stroke-width="1" opacity="0.5" />
<line x1="0" y1="840" x2="1920" y2="840" stroke="#334155" stroke-width="1" opacity="0.5" />
<line x1="0" y1="880" x2="1920" y2="880" stroke="#334155" stroke-width="1" opacity="0.5" />
<line x1="0" y1="920" x2="1920" y2="920" stroke="#334155" stroke-width="1" opacity="0.5" />
<line x1="0" y1="960" x2="1920" y2="960" stroke="#334155" stroke-width="1" opacity="0.5" />
<line x1="0" y1="1000" x2="1920" y2="1000" stroke="#334155" stroke-width="1" opacity="0.5" />
<line x1="0" y1="1040" x2="1920" y2="1040" stroke="#334155" stroke-width="1" opacity="0.5" />
<line x1="0" y1="1080" x2="1920" y2="1080" stroke="#334155" stroke-width="1" opacity="0.5" />
</g>
<g id="depth-planes">
<rect
    x="1152"
    y="108"
    width="672"
    height="432"
    fill="#06B6D4"
    opacity="0.1"
    transform="rotate(15 1488 324)"
  />
<rect
    x="96"
    y="540"
    width="576"
    height="486"
    fill="#8B5CF6"
    opacity="0.08"
    transform="rotate(-10 384 783)"
  />
</g>
<g id="connections">
<line
    x1="1006.3060699588477"
    y1="578.1152263374486"
    x2="955.2110261279463"
    y2="513.3948108328403"
    stroke="#10B981"
    stroke-width="2"
    opacity="0.3"
    stroke-linecap="round"
  />
<line
    x1="1006.3060699588477"
    y1="578.1152263374486"
    x2="1085.6186494887904"
    y2="445.1796188026365"
    stroke="#10B981"
    stroke-width="2"
    opacity="0.3"
    stroke-linecap="round"
  />
<line
    x1="1006.3060699588477"
    y1="578.1152263374486"
    x2="1220.0103491606642"
    y2="636.9475910178344"
    stroke="#10B981"
    stroke-width="2"
    opacity="0.3"
    stroke-linecap="round"
  />
<line
    x1="955.2110261279463"
    y1="513.3948108328403"
    x2="790.4537025868958"
    y2="628.9986404589632"
    stroke="#06B6D4"
    stroke-width="2"
    opacity="0.3"
    stroke-linecap="round"
  />
<line
    x1="980.3682606946195"
    y1="586.8804324106853"
    x2="1085.6186494887904"
    y2="445.1796188026365"
    stroke="#06B6D4"
    stroke-width="2"
    opacity="0.3"
    stroke-linecap="round"
  />
<line
    x1="1085.6186494887904"
    y1="445.1796188026365"
    x2="1220.0103491606642"
    y2="636.9475910178344"
    stroke="#8B5CF6"
    stroke-width="2"
    opacity="0.3"
    stroke-linecap="round"
  />
<line
    x1="1085.6186494887904"
    y1="445.1796188026365"
    x2="1358.96405519205"
    y2="345.9082861332354"
    stroke="#8B5CF6"
    stroke-width="2"
    opacity="0.3"
    stroke-linecap="round"
  />
<line
    x1="790.4537025868958"
    y1="628.9986404589632"
    x2="790.8622827859085"
    y2="830.8309383183736"
    stroke="#10B981"
    stroke-width="2"
    opacity="0.3"
    stroke-linecap="round"
  />
</g>
<g id="geometric-nodes">
<circle cx="1006.3060699588477" cy="578.1152263374486" r="23" fill="#10B981" opacity="0.9" stroke="#FFFFFF" stroke-width="3" />
<path d="M 966.9457812833963,489.4219131890084 L 928.7733722335878,515.0903215411853 L 970.0890704661899,535.314393325882 Z" fill="#06B6D4" opacity="0.9" />
<circle cx="980.3682606946195" cy="586.8804324106853" r="26" fill="#06B6D4" opacity="0.9" stroke="#FFFFFF" stroke-width="3" />
<circle cx="1085.6186494887904" cy="445.1796188026365" r="29" fill="#8B5CF6" opacity="0.9" stroke="#FFFFFF" stroke-width="3" />
<path d="M 761.5553013345018,600.45761901516 L 780.0929652731098,667.9583969047461 L 829.2815217313982,618.1539200622999 Z" fill="#10B981" opacity="0.9" />
<circle cx="1220.0103491606642" cy="636.9475910178344" r="44" fill="#8B5CF6" opacity="0.9" stroke="#FFFFFF" stroke-width="3" />
<circle cx="899.7146354938194" cy="287.9153002357482" r="59" fill="#8B5CF6" opacity="0.9" stroke="#FFFFFF" stroke-width="3" />
<circle cx="790.8622827859085" cy="830.8309383183736" r="83" fill="#8B5CF6" opacity="0.9" stroke="#FFFFFF" stroke-width="3" />
<rect
    x="1297.96405519205"
    y="284.9082861332354"
    width="122"
    height="122"
    fill="#06B6D4"
    opacity="0.9"
    transform="rotate(27.49112654320988 1358.96405519205 345.9082861332354)"
  />
</g>
<g id="accent-shapes">
<circle cx="617.7037037037037" cy="578.1851851851851" r="21.27100480109739" fill="#06B6D4" opacity="0.4"  />
<circle cx="1093.9835390946503" cy="824.9814814814815" r="29.64789094650206" fill="#8B5CF6" opacity="0.4"  />
<circle cx="1206.8065843621398" cy="334" r="22.633830589849108" fill="#06B6D4" opacity="0.4"  />
<circle cx="363.58024691358025" cy="531.9074074074074" r="10.352280521262003" fill="#8B5CF6" opacity="0.4"  />
<circle cx="887.2674897119341" cy="405.3703703703704" r="15.519290123456791" fill="#10B981" opacity="0.4"  />
</g>

</svg>
