<svg
  xmlns="http://www.w3.org/2000/svg"
  viewBox="0 0 1920 1080"
  width="1920"
  height="1080"
  role="img"
  aria-label="Automatonic AI Geometric Illustration"
>
  <title>Automatonic AI - Abstract Geometric Composition</title>

  <!-- Background -->
  <rect width="1920" height="1080" fill="#FFFFFF" />

  <g id="grid-pattern">
<line x1="0" y1="0" x2="0" y2="1080" stroke="#E5E7EB" stroke-width="1" opacity="0.3" />
<line x1="40" y1="0" x2="40" y2="1080" stroke="#E5E7EB" stroke-width="1" opacity="0.3" />
<line x1="80" y1="0" x2="80" y2="1080" stroke="#E5E7EB" stroke-width="1" opacity="0.3" />
<line x1="120" y1="0" x2="120" y2="1080" stroke="#E5E7EB" stroke-width="1" opacity="0.3" />
<line x1="160" y1="0" x2="160" y2="1080" stroke="#E5E7EB" stroke-width="1" opacity="0.3" />
<line x1="200" y1="0" x2="200" y2="1080" stroke="#E5E7EB" stroke-width="1" opacity="0.3" />
<line x1="240" y1="0" x2="240" y2="1080" stroke="#E5E7EB" stroke-width="1" opacity="0.3" />
<line x1="280" y1="0" x2="280" y2="1080" stroke="#E5E7EB" stroke-width="1" opacity="0.3" />
<line x1="320" y1="0" x2="320" y2="1080" stroke="#E5E7EB" stroke-width="1" opacity="0.3" />
<line x1="360" y1="0" x2="360" y2="1080" stroke="#E5E7EB" stroke-width="1" opacity="0.3" />
<line x1="400" y1="0" x2="400" y2="1080" stroke="#E5E7EB" stroke-width="1" opacity="0.3" />
<line x1="440" y1="0" x2="440" y2="1080" stroke="#E5E7EB" stroke-width="1" opacity="0.3" />
<line x1="480" y1="0" x2="480" y2="1080" stroke="#E5E7EB" stroke-width="1" opacity="0.3" />
<line x1="520" y1="0" x2="520" y2="1080" stroke="#E5E7EB" stroke-width="1" opacity="0.3" />
<line x1="560" y1="0" x2="560" y2="1080" stroke="#E5E7EB" stroke-width="1" opacity="0.3" />
<line x1="600" y1="0" x2="600" y2="1080" stroke="#E5E7EB" stroke-width="1" opacity="0.3" />
<line x1="640" y1="0" x2="640" y2="1080" stroke="#E5E7EB" stroke-width="1" opacity="0.3" />
<line x1="680" y1="0" x2="680" y2="1080" stroke="#E5E7EB" stroke-width="1" opacity="0.3" />
<line x1="720" y1="0" x2="720" y2="1080" stroke="#E5E7EB" stroke-width="1" opacity="0.3" />
<line x1="760" y1="0" x2="760" y2="1080" stroke="#E5E7EB" stroke-width="1" opacity="0.3" />
<line x1="800" y1="0" x2="800" y2="1080" stroke="#E5E7EB" stroke-width="1" opacity="0.3" />
<line x1="840" y1="0" x2="840" y2="1080" stroke="#E5E7EB" stroke-width="1" opacity="0.3" />
<line x1="880" y1="0" x2="880" y2="1080" stroke="#E5E7EB" stroke-width="1" opacity="0.3" />
<line x1="920" y1="0" x2="920" y2="1080" stroke="#E5E7EB" stroke-width="1" opacity="0.3" />
<line x1="960" y1="0" x2="960" y2="1080" stroke="#E5E7EB" stroke-width="1" opacity="0.3" />
<line x1="1000" y1="0" x2="1000" y2="1080" stroke="#E5E7EB" stroke-width="1" opacity="0.3" />
<line x1="1040" y1="0" x2="1040" y2="1080" stroke="#E5E7EB" stroke-width="1" opacity="0.3" />
<line x1="1080" y1="0" x2="1080" y2="1080" stroke="#E5E7EB" stroke-width="1" opacity="0.3" />
<line x1="1120" y1="0" x2="1120" y2="1080" stroke="#E5E7EB" stroke-width="1" opacity="0.3" />
<line x1="1160" y1="0" x2="1160" y2="1080" stroke="#E5E7EB" stroke-width="1" opacity="0.3" />
<line x1="1200" y1="0" x2="1200" y2="1080" stroke="#E5E7EB" stroke-width="1" opacity="0.3" />
<line x1="1240" y1="0" x2="1240" y2="1080" stroke="#E5E7EB" stroke-width="1" opacity="0.3" />
<line x1="1280" y1="0" x2="1280" y2="1080" stroke="#E5E7EB" stroke-width="1" opacity="0.3" />
<line x1="1320" y1="0" x2="1320" y2="1080" stroke="#E5E7EB" stroke-width="1" opacity="0.3" />
<line x1="1360" y1="0" x2="1360" y2="1080" stroke="#E5E7EB" stroke-width="1" opacity="0.3" />
<line x1="1400" y1="0" x2="1400" y2="1080" stroke="#E5E7EB" stroke-width="1" opacity="0.3" />
<line x1="1440" y1="0" x2="1440" y2="1080" stroke="#E5E7EB" stroke-width="1" opacity="0.3" />
<line x1="1480" y1="0" x2="1480" y2="1080" stroke="#E5E7EB" stroke-width="1" opacity="0.3" />
<line x1="1520" y1="0" x2="1520" y2="1080" stroke="#E5E7EB" stroke-width="1" opacity="0.3" />
<line x1="1560" y1="0" x2="1560" y2="1080" stroke="#E5E7EB" stroke-width="1" opacity="0.3" />
<line x1="1600" y1="0" x2="1600" y2="1080" stroke="#E5E7EB" stroke-width="1" opacity="0.3" />
<line x1="1640" y1="0" x2="1640" y2="1080" stroke="#E5E7EB" stroke-width="1" opacity="0.3" />
<line x1="1680" y1="0" x2="1680" y2="1080" stroke="#E5E7EB" stroke-width="1" opacity="0.3" />
<line x1="1720" y1="0" x2="1720" y2="1080" stroke="#E5E7EB" stroke-width="1" opacity="0.3" />
<line x1="1760" y1="0" x2="1760" y2="1080" stroke="#E5E7EB" stroke-width="1" opacity="0.3" />
<line x1="1800" y1="0" x2="1800" y2="1080" stroke="#E5E7EB" stroke-width="1" opacity="0.3" />
<line x1="1840" y1="0" x2="1840" y2="1080" stroke="#E5E7EB" stroke-width="1" opacity="0.3" />
<line x1="1880" y1="0" x2="1880" y2="1080" stroke="#E5E7EB" stroke-width="1" opacity="0.3" />
<line x1="1920" y1="0" x2="1920" y2="1080" stroke="#E5E7EB" stroke-width="1" opacity="0.3" />
<line x1="0" y1="0" x2="1920" y2="0" stroke="#E5E7EB" stroke-width="1" opacity="0.3" />
<line x1="0" y1="40" x2="1920" y2="40" stroke="#E5E7EB" stroke-width="1" opacity="0.3" />
<line x1="0" y1="80" x2="1920" y2="80" stroke="#E5E7EB" stroke-width="1" opacity="0.3" />
<line x1="0" y1="120" x2="1920" y2="120" stroke="#E5E7EB" stroke-width="1" opacity="0.3" />
<line x1="0" y1="160" x2="1920" y2="160" stroke="#E5E7EB" stroke-width="1" opacity="0.3" />
<line x1="0" y1="200" x2="1920" y2="200" stroke="#E5E7EB" stroke-width="1" opacity="0.3" />
<line x1="0" y1="240" x2="1920" y2="240" stroke="#E5E7EB" stroke-width="1" opacity="0.3" />
<line x1="0" y1="280" x2="1920" y2="280" stroke="#E5E7EB" stroke-width="1" opacity="0.3" />
<line x1="0" y1="320" x2="1920" y2="320" stroke="#E5E7EB" stroke-width="1" opacity="0.3" />
<line x1="0" y1="360" x2="1920" y2="360" stroke="#E5E7EB" stroke-width="1" opacity="0.3" />
<line x1="0" y1="400" x2="1920" y2="400" stroke="#E5E7EB" stroke-width="1" opacity="0.3" />
<line x1="0" y1="440" x2="1920" y2="440" stroke="#E5E7EB" stroke-width="1" opacity="0.3" />
<line x1="0" y1="480" x2="1920" y2="480" stroke="#E5E7EB" stroke-width="1" opacity="0.3" />
<line x1="0" y1="520" x2="1920" y2="520" stroke="#E5E7EB" stroke-width="1" opacity="0.3" />
<line x1="0" y1="560" x2="1920" y2="560" stroke="#E5E7EB" stroke-width="1" opacity="0.3" />
<line x1="0" y1="600" x2="1920" y2="600" stroke="#E5E7EB" stroke-width="1" opacity="0.3" />
<line x1="0" y1="640" x2="1920" y2="640" stroke="#E5E7EB" stroke-width="1" opacity="0.3" />
<line x1="0" y1="680" x2="1920" y2="680" stroke="#E5E7EB" stroke-width="1" opacity="0.3" />
<line x1="0" y1="720" x2="1920" y2="720" stroke="#E5E7EB" stroke-width="1" opacity="0.3" />
<line x1="0" y1="760" x2="1920" y2="760" stroke="#E5E7EB" stroke-width="1" opacity="0.3" />
<line x1="0" y1="800" x2="1920" y2="800" stroke="#E5E7EB" stroke-width="1" opacity="0.3" />
<line x1="0" y1="840" x2="1920" y2="840" stroke="#E5E7EB" stroke-width="1" opacity="0.3" />
<line x1="0" y1="880" x2="1920" y2="880" stroke="#E5E7EB" stroke-width="1" opacity="0.3" />
<line x1="0" y1="920" x2="1920" y2="920" stroke="#E5E7EB" stroke-width="1" opacity="0.3" />
<line x1="0" y1="960" x2="1920" y2="960" stroke="#E5E7EB" stroke-width="1" opacity="0.3" />
<line x1="0" y1="1000" x2="1920" y2="1000" stroke="#E5E7EB" stroke-width="1" opacity="0.3" />
<line x1="0" y1="1040" x2="1920" y2="1040" stroke="#E5E7EB" stroke-width="1" opacity="0.3" />
<line x1="0" y1="1080" x2="1920" y2="1080" stroke="#E5E7EB" stroke-width="1" opacity="0.3" />
</g>
<g id="depth-planes">
<rect
    x="1152"
    y="108"
    width="672"
    height="432"
    fill="#06B6D4"
    opacity="0.1"
    transform="rotate(15 1488 324)"
  />
<rect
    x="96"
    y="540"
    width="576"
    height="486"
    fill="#8B5CF6"
    opacity="0.08"
    transform="rotate(-10 384 783)"
  />
</g>
<g id="connections">
<line
    x1="1002.4472307956104"
    y1="574.9389574759945"
    x2="977.764281288331"
    y2="572.6936308634373"
    stroke="#10B981"
    stroke-width="2"
    opacity="0.3"
    stroke-linecap="round"
  />
<line
    x1="1002.4472307956104"
    y1="574.9389574759945"
    x2="1176.5591595859903"
    y2="615.0442937892235"
    stroke="#10B981"
    stroke-width="2"
    opacity="0.3"
    stroke-linecap="round"
  />
<line
    x1="959.4156749695189"
    y1="519.096627220008"
    x2="977.764281288331"
    y2="572.6936308634373"
    stroke="#06B6D4"
    stroke-width="2"
    opacity="0.3"
    stroke-linecap="round"
  />
<line
    x1="959.4156749695189"
    y1="519.096627220008"
    x2="1176.5591595859903"
    y2="615.0442937892235"
    stroke="#06B6D4"
    stroke-width="2"
    opacity="0.3"
    stroke-linecap="round"
  />
<line
    x1="959.4156749695189"
    y1="519.096627220008"
    x2="821.5571171193976"
    y2="774.5155382606973"
    stroke="#06B6D4"
    stroke-width="2"
    opacity="0.3"
    stroke-linecap="round"
  />
<line
    x1="977.764281288331"
    y1="572.6936308634373"
    x2="1065.7396676897456"
    y2="465.37228860681864"
    stroke="#06B6D4"
    stroke-width="2"
    opacity="0.3"
    stroke-linecap="round"
  />
<line
    x1="977.764281288331"
    y1="572.6936308634373"
    x2="1176.5591595859903"
    y2="615.0442937892235"
    stroke="#06B6D4"
    stroke-width="2"
    opacity="0.3"
    stroke-linecap="round"
  />
<line
    x1="1065.7396676897456"
    y1="465.37228860681864"
    x2="1176.5591595859903"
    y2="615.0442937892235"
    stroke="#8B5CF6"
    stroke-width="2"
    opacity="0.3"
    stroke-linecap="round"
  />
<line
    x1="1065.7396676897456"
    y1="465.37228860681864"
    x2="912.8140689040697"
    y2="338.8105740877139"
    stroke="#8B5CF6"
    stroke-width="2"
    opacity="0.3"
    stroke-linecap="round"
  />
<line
    x1="824.9039685693373"
    y1="617.9696111501332"
    x2="646.7178896051605"
    y2="392.3570377911001"
    stroke="#10B981"
    stroke-width="2"
    opacity="0.3"
    stroke-linecap="round"
  />
<line
    x1="1176.5591595859903"
    y1="615.0442937892235"
    x2="1286.9661169487606"
    y2="376.30945549077666"
    stroke="#8B5CF6"
    stroke-width="2"
    opacity="0.3"
    stroke-linecap="round"
  />
</g>
<g id="geometric-nodes">
<circle cx="1002.4472307956104" cy="574.9389574759945" r="23" fill="#10B981" opacity="0.9" stroke="#FFFFFF" stroke-width="3" />
<circle cx="959.4156749695189" cy="519.096627220008" r="23" fill="#06B6D4" opacity="0.9" stroke="#FFFFFF" stroke-width="3" />
<path d="M 964.9547492362816,600.011849850178 L 1007.6140225763193,570.276577897496 L 960.5328850068389,548.2001994543803 Z" fill="#06B6D4" opacity="0.9" />
<path d="M 1062.024534142531,431.9242321202848 L 1038.746756725881,485.04809755326033 L 1096.392262446389,478.6453114232312 Z" fill="#8B5CF6" opacity="0.9" />
<circle cx="824.9039685693373" cy="617.9696111501332" r="35" fill="#10B981" opacity="0.9" stroke="#FFFFFF" stroke-width="3" />
<path d="M 1224.1213140855211,633.6198868985366 L 1169.1399248056525,564.9100125509906 L 1137.1261227697753,646.8802295764912 Z" fill="#8B5CF6" opacity="0.9" />
<path d="M 882.0230941197923,399.9643030977587 L 980.6769697767717,335.2231815608464 L 875.2825760278201,282.15697982856716 Z" fill="#8B5CF6" opacity="0.9" />
<circle cx="821.5571171193976" cy="774.5155382606973" r="83" fill="#8B5CF6" opacity="0.9" stroke="#FFFFFF" stroke-width="3" />
<circle cx="1286.9661169487606" cy="376.30945549077666" r="122" fill="#06B6D4" opacity="0.9" stroke="#FFFFFF" stroke-width="3" />
<circle cx="646.7178896051605" cy="392.3570377911001" r="185" fill="#06B6D4" opacity="0.9" stroke="#FFFFFF" stroke-width="3" />
</g>
<g id="accent-shapes">
<circle cx="75.60493827160495" cy="499.087962962963" r="33.137002743484224" fill="#8B5CF6" opacity="0.35"  />
<circle cx="1837.8106995884775" cy="69.2175925925926" r="31.05272633744856" fill="#8B5CF6" opacity="0.35"  />
<circle cx="961.0041152263374" cy="621.5694444444445" r="26.6639231824417" fill="#8B5CF6" opacity="0.35"  />
<circle cx="905.925925925926" cy="822.8101851851852" r="29.908864883401918" fill="#8B5CF6" opacity="0.35"  />
<circle cx="1008.8724279835392" cy="499.6064814814815" r="49.42952674897119" fill="#10B981" opacity="0.35"  />
<circle cx="108.36213991769547" cy="158.625" r="30.349365569272976" fill="#8B5CF6" opacity="0.35"  />
</g>

</svg>
