<svg
  xmlns="http://www.w3.org/2000/svg"
  viewBox="0 0 1920 1080"
  width="1920"
  height="1080"
  role="img"
  aria-label="Automatonic AI Geometric Illustration"
>
  <title>Automatonic AI - Abstract Geometric Composition</title>

  <!-- Background -->
  <rect width="1920" height="1080" fill="#FFFFFF" />

  <g id="grid-pattern">
<line x1="0" y1="0" x2="0" y2="1080" stroke="#E5E7EB" stroke-width="1" opacity="0.3" />
<line x1="40" y1="0" x2="40" y2="1080" stroke="#E5E7EB" stroke-width="1" opacity="0.3" />
<line x1="80" y1="0" x2="80" y2="1080" stroke="#E5E7EB" stroke-width="1" opacity="0.3" />
<line x1="120" y1="0" x2="120" y2="1080" stroke="#E5E7EB" stroke-width="1" opacity="0.3" />
<line x1="160" y1="0" x2="160" y2="1080" stroke="#E5E7EB" stroke-width="1" opacity="0.3" />
<line x1="200" y1="0" x2="200" y2="1080" stroke="#E5E7EB" stroke-width="1" opacity="0.3" />
<line x1="240" y1="0" x2="240" y2="1080" stroke="#E5E7EB" stroke-width="1" opacity="0.3" />
<line x1="280" y1="0" x2="280" y2="1080" stroke="#E5E7EB" stroke-width="1" opacity="0.3" />
<line x1="320" y1="0" x2="320" y2="1080" stroke="#E5E7EB" stroke-width="1" opacity="0.3" />
<line x1="360" y1="0" x2="360" y2="1080" stroke="#E5E7EB" stroke-width="1" opacity="0.3" />
<line x1="400" y1="0" x2="400" y2="1080" stroke="#E5E7EB" stroke-width="1" opacity="0.3" />
<line x1="440" y1="0" x2="440" y2="1080" stroke="#E5E7EB" stroke-width="1" opacity="0.3" />
<line x1="480" y1="0" x2="480" y2="1080" stroke="#E5E7EB" stroke-width="1" opacity="0.3" />
<line x1="520" y1="0" x2="520" y2="1080" stroke="#E5E7EB" stroke-width="1" opacity="0.3" />
<line x1="560" y1="0" x2="560" y2="1080" stroke="#E5E7EB" stroke-width="1" opacity="0.3" />
<line x1="600" y1="0" x2="600" y2="1080" stroke="#E5E7EB" stroke-width="1" opacity="0.3" />
<line x1="640" y1="0" x2="640" y2="1080" stroke="#E5E7EB" stroke-width="1" opacity="0.3" />
<line x1="680" y1="0" x2="680" y2="1080" stroke="#E5E7EB" stroke-width="1" opacity="0.3" />
<line x1="720" y1="0" x2="720" y2="1080" stroke="#E5E7EB" stroke-width="1" opacity="0.3" />
<line x1="760" y1="0" x2="760" y2="1080" stroke="#E5E7EB" stroke-width="1" opacity="0.3" />
<line x1="800" y1="0" x2="800" y2="1080" stroke="#E5E7EB" stroke-width="1" opacity="0.3" />
<line x1="840" y1="0" x2="840" y2="1080" stroke="#E5E7EB" stroke-width="1" opacity="0.3" />
<line x1="880" y1="0" x2="880" y2="1080" stroke="#E5E7EB" stroke-width="1" opacity="0.3" />
<line x1="920" y1="0" x2="920" y2="1080" stroke="#E5E7EB" stroke-width="1" opacity="0.3" />
<line x1="960" y1="0" x2="960" y2="1080" stroke="#E5E7EB" stroke-width="1" opacity="0.3" />
<line x1="1000" y1="0" x2="1000" y2="1080" stroke="#E5E7EB" stroke-width="1" opacity="0.3" />
<line x1="1040" y1="0" x2="1040" y2="1080" stroke="#E5E7EB" stroke-width="1" opacity="0.3" />
<line x1="1080" y1="0" x2="1080" y2="1080" stroke="#E5E7EB" stroke-width="1" opacity="0.3" />
<line x1="1120" y1="0" x2="1120" y2="1080" stroke="#E5E7EB" stroke-width="1" opacity="0.3" />
<line x1="1160" y1="0" x2="1160" y2="1080" stroke="#E5E7EB" stroke-width="1" opacity="0.3" />
<line x1="1200" y1="0" x2="1200" y2="1080" stroke="#E5E7EB" stroke-width="1" opacity="0.3" />
<line x1="1240" y1="0" x2="1240" y2="1080" stroke="#E5E7EB" stroke-width="1" opacity="0.3" />
<line x1="1280" y1="0" x2="1280" y2="1080" stroke="#E5E7EB" stroke-width="1" opacity="0.3" />
<line x1="1320" y1="0" x2="1320" y2="1080" stroke="#E5E7EB" stroke-width="1" opacity="0.3" />
<line x1="1360" y1="0" x2="1360" y2="1080" stroke="#E5E7EB" stroke-width="1" opacity="0.3" />
<line x1="1400" y1="0" x2="1400" y2="1080" stroke="#E5E7EB" stroke-width="1" opacity="0.3" />
<line x1="1440" y1="0" x2="1440" y2="1080" stroke="#E5E7EB" stroke-width="1" opacity="0.3" />
<line x1="1480" y1="0" x2="1480" y2="1080" stroke="#E5E7EB" stroke-width="1" opacity="0.3" />
<line x1="1520" y1="0" x2="1520" y2="1080" stroke="#E5E7EB" stroke-width="1" opacity="0.3" />
<line x1="1560" y1="0" x2="1560" y2="1080" stroke="#E5E7EB" stroke-width="1" opacity="0.3" />
<line x1="1600" y1="0" x2="1600" y2="1080" stroke="#E5E7EB" stroke-width="1" opacity="0.3" />
<line x1="1640" y1="0" x2="1640" y2="1080" stroke="#E5E7EB" stroke-width="1" opacity="0.3" />
<line x1="1680" y1="0" x2="1680" y2="1080" stroke="#E5E7EB" stroke-width="1" opacity="0.3" />
<line x1="1720" y1="0" x2="1720" y2="1080" stroke="#E5E7EB" stroke-width="1" opacity="0.3" />
<line x1="1760" y1="0" x2="1760" y2="1080" stroke="#E5E7EB" stroke-width="1" opacity="0.3" />
<line x1="1800" y1="0" x2="1800" y2="1080" stroke="#E5E7EB" stroke-width="1" opacity="0.3" />
<line x1="1840" y1="0" x2="1840" y2="1080" stroke="#E5E7EB" stroke-width="1" opacity="0.3" />
<line x1="1880" y1="0" x2="1880" y2="1080" stroke="#E5E7EB" stroke-width="1" opacity="0.3" />
<line x1="1920" y1="0" x2="1920" y2="1080" stroke="#E5E7EB" stroke-width="1" opacity="0.3" />
<line x1="0" y1="0" x2="1920" y2="0" stroke="#E5E7EB" stroke-width="1" opacity="0.3" />
<line x1="0" y1="40" x2="1920" y2="40" stroke="#E5E7EB" stroke-width="1" opacity="0.3" />
<line x1="0" y1="80" x2="1920" y2="80" stroke="#E5E7EB" stroke-width="1" opacity="0.3" />
<line x1="0" y1="120" x2="1920" y2="120" stroke="#E5E7EB" stroke-width="1" opacity="0.3" />
<line x1="0" y1="160" x2="1920" y2="160" stroke="#E5E7EB" stroke-width="1" opacity="0.3" />
<line x1="0" y1="200" x2="1920" y2="200" stroke="#E5E7EB" stroke-width="1" opacity="0.3" />
<line x1="0" y1="240" x2="1920" y2="240" stroke="#E5E7EB" stroke-width="1" opacity="0.3" />
<line x1="0" y1="280" x2="1920" y2="280" stroke="#E5E7EB" stroke-width="1" opacity="0.3" />
<line x1="0" y1="320" x2="1920" y2="320" stroke="#E5E7EB" stroke-width="1" opacity="0.3" />
<line x1="0" y1="360" x2="1920" y2="360" stroke="#E5E7EB" stroke-width="1" opacity="0.3" />
<line x1="0" y1="400" x2="1920" y2="400" stroke="#E5E7EB" stroke-width="1" opacity="0.3" />
<line x1="0" y1="440" x2="1920" y2="440" stroke="#E5E7EB" stroke-width="1" opacity="0.3" />
<line x1="0" y1="480" x2="1920" y2="480" stroke="#E5E7EB" stroke-width="1" opacity="0.3" />
<line x1="0" y1="520" x2="1920" y2="520" stroke="#E5E7EB" stroke-width="1" opacity="0.3" />
<line x1="0" y1="560" x2="1920" y2="560" stroke="#E5E7EB" stroke-width="1" opacity="0.3" />
<line x1="0" y1="600" x2="1920" y2="600" stroke="#E5E7EB" stroke-width="1" opacity="0.3" />
<line x1="0" y1="640" x2="1920" y2="640" stroke="#E5E7EB" stroke-width="1" opacity="0.3" />
<line x1="0" y1="680" x2="1920" y2="680" stroke="#E5E7EB" stroke-width="1" opacity="0.3" />
<line x1="0" y1="720" x2="1920" y2="720" stroke="#E5E7EB" stroke-width="1" opacity="0.3" />
<line x1="0" y1="760" x2="1920" y2="760" stroke="#E5E7EB" stroke-width="1" opacity="0.3" />
<line x1="0" y1="800" x2="1920" y2="800" stroke="#E5E7EB" stroke-width="1" opacity="0.3" />
<line x1="0" y1="840" x2="1920" y2="840" stroke="#E5E7EB" stroke-width="1" opacity="0.3" />
<line x1="0" y1="880" x2="1920" y2="880" stroke="#E5E7EB" stroke-width="1" opacity="0.3" />
<line x1="0" y1="920" x2="1920" y2="920" stroke="#E5E7EB" stroke-width="1" opacity="0.3" />
<line x1="0" y1="960" x2="1920" y2="960" stroke="#E5E7EB" stroke-width="1" opacity="0.3" />
<line x1="0" y1="1000" x2="1920" y2="1000" stroke="#E5E7EB" stroke-width="1" opacity="0.3" />
<line x1="0" y1="1040" x2="1920" y2="1040" stroke="#E5E7EB" stroke-width="1" opacity="0.3" />
<line x1="0" y1="1080" x2="1920" y2="1080" stroke="#E5E7EB" stroke-width="1" opacity="0.3" />
</g>
<g id="depth-planes">
<rect
    x="1152"
    y="108"
    width="672"
    height="432"
    fill="#06B6D4"
    opacity="0.1"
    transform="rotate(15 1488 324)"
  />
<rect
    x="96"
    y="540"
    width="576"
    height="486"
    fill="#8B5CF6"
    opacity="0.08"
    transform="rotate(-10 384 783)"
  />
</g>
<g id="connections">
<line
    x1="998.5883916323731"
    y1="571.7626886145405"
    x2="975.1286754512839"
    y2="558.1482212168978"
    stroke="#10B981"
    stroke-width="2"
    opacity="0.3"
    stroke-linecap="round"
  />
<line
    x1="998.5883916323731"
    y1="571.7626886145405"
    x2="1132.3480748783643"
    y2="592.6587524451314"
    stroke="#10B981"
    stroke-width="2"
    opacity="0.3"
    stroke-linecap="round"
  />
<line
    x1="998.5883916323731"
    y1="571.7626886145405"
    x2="852.8310220772696"
    y2="717.0810862775157"
    stroke="#10B981"
    stroke-width="2"
    opacity="0.3"
    stroke-linecap="round"
  />
<line
    x1="998.5883916323731"
    y1="571.7626886145405"
    x2="1213.6164019504497"
    y2="407.20691065768915"
    stroke="#10B981"
    stroke-width="2"
    opacity="0.3"
    stroke-linecap="round"
  />
<line
    x1="963.7530761722161"
    y1="524.9200035126378"
    x2="975.1286754512839"
    y2="558.1482212168978"
    stroke="#06B6D4"
    stroke-width="2"
    opacity="0.3"
    stroke-linecap="round"
  />
<line
    x1="963.7530761722161"
    y1="524.9200035126378"
    x2="926.1952111411131"
    y2="390.7484601096197"
    stroke="#06B6D4"
    stroke-width="2"
    opacity="0.3"
    stroke-linecap="round"
  />
<line
    x1="963.7530761722161"
    y1="524.9200035126378"
    x2="852.8310220772696"
    y2="717.0810862775157"
    stroke="#06B6D4"
    stroke-width="2"
    opacity="0.3"
    stroke-linecap="round"
  />
<line
    x1="975.1286754512839"
    y1="558.1482212168978"
    x2="1045.5324035299452"
    y2="485.99371322627053"
    stroke="#06B6D4"
    stroke-width="2"
    opacity="0.3"
    stroke-linecap="round"
  />
<line
    x1="975.1286754512839"
    y1="558.1482212168978"
    x2="860.0631208726397"
    y2="606.814565238841"
    stroke="#06B6D4"
    stroke-width="2"
    opacity="0.3"
    stroke-linecap="round"
  />
<line
    x1="975.1286754512839"
    y1="558.1482212168978"
    x2="926.1952111411131"
    y2="390.7484601096197"
    stroke="#06B6D4"
    stroke-width="2"
    opacity="0.3"
    stroke-linecap="round"
  />
<line
    x1="975.1286754512839"
    y1="558.1482212168978"
    x2="852.8310220772696"
    y2="717.0810862775157"
    stroke="#06B6D4"
    stroke-width="2"
    opacity="0.3"
    stroke-linecap="round"
  />
<line
    x1="975.1286754512839"
    y1="558.1482212168978"
    x2="1213.6164019504497"
    y2="407.20691065768915"
    stroke="#06B6D4"
    stroke-width="2"
    opacity="0.3"
    stroke-linecap="round"
  />
<line
    x1="975.1286754512839"
    y1="558.1482212168978"
    x2="723.5627997911002"
    y2="425.6346668859625"
    stroke="#06B6D4"
    stroke-width="2"
    opacity="0.3"
    stroke-linecap="round"
  />
<line
    x1="1045.5324035299452"
    y1="485.99371322627053"
    x2="860.0631208726397"
    y2="606.814565238841"
    stroke="#8B5CF6"
    stroke-width="2"
    opacity="0.3"
    stroke-linecap="round"
  />
<line
    x1="1045.5324035299452"
    y1="485.99371322627053"
    x2="1132.3480748783643"
    y2="592.6587524451314"
    stroke="#8B5CF6"
    stroke-width="2"
    opacity="0.3"
    stroke-linecap="round"
  />
<line
    x1="1045.5324035299452"
    y1="485.99371322627053"
    x2="1213.6164019504497"
    y2="407.20691065768915"
    stroke="#8B5CF6"
    stroke-width="2"
    opacity="0.3"
    stroke-linecap="round"
  />
<line
    x1="860.0631208726397"
    y1="606.814565238841"
    x2="1132.3480748783643"
    y2="592.6587524451314"
    stroke="#10B981"
    stroke-width="2"
    opacity="0.3"
    stroke-linecap="round"
  />
<line
    x1="860.0631208726397"
    y1="606.814565238841"
    x2="926.1952111411131"
    y2="390.7484601096197"
    stroke="#10B981"
    stroke-width="2"
    opacity="0.3"
    stroke-linecap="round"
  />
<line
    x1="926.1952111411131"
    y1="390.7484601096197"
    x2="1030.5860877146629"
    y2="246.9039242713524"
    stroke="#8B5CF6"
    stroke-width="2"
    opacity="0.3"
    stroke-linecap="round"
  />
</g>
<g id="geometric-nodes">
<circle cx="998.5883916323731" cy="571.7626886145405" r="23" fill="#10B981" opacity="0.9" stroke="#FFFFFF" stroke-width="3" />
<circle cx="963.7530761722161" cy="524.9200035126378" r="23" fill="#06B6D4" opacity="0.9" stroke="#FFFFFF" stroke-width="3" />
<circle cx="975.1286754512839" cy="558.1482212168978" r="26" fill="#06B6D4" opacity="0.9" stroke="#FFFFFF" stroke-width="3" />
<circle cx="1045.5324035299452" cy="485.99371322627053" r="29" fill="#8B5CF6" opacity="0.9" stroke="#FFFFFF" stroke-width="3" />
<circle cx="860.0631208726397" cy="606.814565238841" r="35" fill="#10B981" opacity="0.9" stroke="#FFFFFF" stroke-width="3" />
<circle cx="1132.3480748783643" cy="592.6587524451314" r="44" fill="#8B5CF6" opacity="0.9" stroke="#FFFFFF" stroke-width="3" />
<path d="M 993.1868620511026,404.8899384041298 L 905.3852730810804,326.0554220148015 L 881.0133736778724,441.51108675014444 Z" fill="#8B5CF6" opacity="0.9" />
<circle cx="852.8310220772696" cy="717.0810862775157" r="83" fill="#8B5CF6" opacity="0.9" stroke="#FFFFFF" stroke-width="3" />
<circle cx="1213.6164019504497" cy="407.20691065768915" r="122" fill="#06B6D4" opacity="0.9" stroke="#FFFFFF" stroke-width="3" />
<circle cx="723.5627997911002" cy="425.6346668859625" r="185" fill="#06B6D4" opacity="0.9" stroke="#FFFFFF" stroke-width="3" />
<path d="M 856.8578812526665,598.8983694953023 L 924.5853414272665,1168.8887125172678 L 1384.347728308795,825.2398399612827 Z" fill="#8B5CF6" opacity="0.9" />
<circle cx="1030.5860877146629" cy="246.9039242713524" r="23" fill="#8B5CF6" opacity="0.9" stroke="#FFFFFF" stroke-width="3" />
</g>
<g id="accent-shapes">
<circle cx="282" cy="319.35185185185185" r="19.625943072702334" fill="#06B6D4" opacity="0.4"  />
<circle cx="260.5020576131687" cy="166.14814814814815" r="11.7065329218107" fill="#10B981" opacity="0.4"  />
<circle cx="942.2139917695473" cy="595.1666666666666" r="26.17395404663923" fill="#10B981" opacity="0.4"  />
<circle cx="1094.5432098765432" cy="513.0740740740741" r="26.484996570644718" fill="#06B6D4" opacity="0.4"  />
<circle cx="480.4526748971194" cy="706.537037037037" r="28.689043209876544" fill="#06B6D4" opacity="0.4"  />
</g>

</svg>
