<svg
  xmlns="http://www.w3.org/2000/svg"
  viewBox="0 0 800 600"
  width="800"
  height="600"
  role="img"
  aria-label="Automatonic AI Geometric Illustration"
>
  <title>Automatonic AI - Abstract Geometric Composition</title>

  <!-- Background -->
  <rect width="800" height="600" fill="#FFFFFF" />

  <g id="table-blocks" transform="translate(0,32)">
<rect x="80" y="120" width="68" height="35" fill="#8B5CF6" opacity="0.8" />
<rect x="80" y="120" width="68" height="35" fill="none" stroke="#8B5CF6" stroke-width="2" />
<rect x="150" y="120" width="68" height="35" fill="#8B5CF6" opacity="0.8" />
<rect x="150" y="120" width="68" height="35" fill="none" stroke="#8B5CF6" stroke-width="2" />
<rect x="220" y="120" width="68" height="35" fill="#8B5CF6" opacity="0.8" />
<rect x="220" y="120" width="68" height="35" fill="none" stroke="#8B5CF6" stroke-width="2" />
<rect x="80" y="155" width="68" height="35" fill="#8B5CF6" opacity="0.15" />
<rect x="80" y="155" width="68" height="35" fill="none" stroke="#8B5CF6" stroke-width="1" opacity="0.6" />
<rect x="150" y="155" width="68" height="35" fill="#8B5CF6" opacity="0.15" />
<rect x="150" y="155" width="68" height="35" fill="none" stroke="#8B5CF6" stroke-width="1" opacity="0.6" />
<rect x="220" y="155" width="68" height="35" fill="#8B5CF6" opacity="0.15" />
<rect x="220" y="155" width="68" height="35" fill="none" stroke="#8B5CF6" stroke-width="1" opacity="0.6" />
<rect x="80" y="190" width="68" height="35" fill="#8B5CF6" opacity="0.15" />
<rect x="80" y="190" width="68" height="35" fill="none" stroke="#8B5CF6" stroke-width="1" opacity="0.6" />
<rect x="150" y="190" width="68" height="35" fill="#8B5CF6" opacity="0.15" />
<rect x="150" y="190" width="68" height="35" fill="none" stroke="#8B5CF6" stroke-width="1" opacity="0.6" />
<rect x="220" y="190" width="68" height="35" fill="#8B5CF6" opacity="0.15" />
<rect x="220" y="190" width="68" height="35" fill="none" stroke="#8B5CF6" stroke-width="1" opacity="0.6" />
<rect x="80" y="225" width="68" height="35" fill="#8B5CF6" opacity="0.15" />
<rect x="80" y="225" width="68" height="35" fill="none" stroke="#8B5CF6" stroke-width="1" opacity="0.6" />
<rect x="150" y="225" width="68" height="35" fill="#8B5CF6" opacity="0.15" />
<rect x="150" y="225" width="68" height="35" fill="none" stroke="#8B5CF6" stroke-width="1" opacity="0.6" />
<rect x="220" y="225" width="68" height="35" fill="#8B5CF6" opacity="0.15" />
<rect x="220" y="225" width="68" height="35" fill="none" stroke="#8B5CF6" stroke-width="1" opacity="0.6" />
<rect x="80" y="260" width="68" height="35" fill="#8B5CF6" opacity="0.15" />
<rect x="80" y="260" width="68" height="35" fill="none" stroke="#8B5CF6" stroke-width="1" opacity="0.6" />
<rect x="150" y="260" width="68" height="35" fill="#8B5CF6" opacity="0.15" />
<rect x="150" y="260" width="68" height="35" fill="none" stroke="#8B5CF6" stroke-width="1" opacity="0.6" />
<rect x="220" y="260" width="68" height="35" fill="#8B5CF6" opacity="0.15" />
<rect x="220" y="260" width="68" height="35" fill="none" stroke="#8B5CF6" stroke-width="1" opacity="0.6" />
<rect x="80" y="295" width="68" height="35" fill="#8B5CF6" opacity="0.15" />
<rect x="80" y="295" width="68" height="35" fill="none" stroke="#8B5CF6" stroke-width="1" opacity="0.6" />
<rect x="150" y="295" width="68" height="35" fill="#8B5CF6" opacity="0.15" />
<rect x="150" y="295" width="68" height="35" fill="none" stroke="#8B5CF6" stroke-width="1" opacity="0.6" />
<rect x="220" y="295" width="68" height="35" fill="#8B5CF6" opacity="0.15" />
<rect x="220" y="295" width="68" height="35" fill="none" stroke="#8B5CF6" stroke-width="1" opacity="0.6" />
<rect x="320" y="200" width="58" height="35" fill="#06B6D4" opacity="0.8" />
<rect x="320" y="200" width="58" height="35" fill="none" stroke="#06B6D4" stroke-width="2" />
<rect x="380" y="200" width="58" height="35" fill="#06B6D4" opacity="0.8" />
<rect x="380" y="200" width="58" height="35" fill="none" stroke="#06B6D4" stroke-width="2" />
<rect x="440" y="200" width="58" height="35" fill="#06B6D4" opacity="0.8" />
<rect x="440" y="200" width="58" height="35" fill="none" stroke="#06B6D4" stroke-width="2" />
<rect x="500" y="200" width="58" height="35" fill="#06B6D4" opacity="0.8" />
<rect x="500" y="200" width="58" height="35" fill="none" stroke="#06B6D4" stroke-width="2" />
<rect x="320" y="235" width="58" height="35" fill="#06B6D4" opacity="0.15" />
<rect x="320" y="235" width="58" height="35" fill="none" stroke="#06B6D4" stroke-width="1" opacity="0.6" />
<rect x="380" y="235" width="58" height="35" fill="#06B6D4" opacity="0.15" />
<rect x="380" y="235" width="58" height="35" fill="none" stroke="#06B6D4" stroke-width="1" opacity="0.6" />
<rect x="440" y="235" width="58" height="35" fill="#06B6D4" opacity="0.15" />
<rect x="440" y="235" width="58" height="35" fill="none" stroke="#06B6D4" stroke-width="1" opacity="0.6" />
<rect x="500" y="235" width="58" height="35" fill="#06B6D4" opacity="0.15" />
<rect x="500" y="235" width="58" height="35" fill="none" stroke="#06B6D4" stroke-width="1" opacity="0.6" />
<rect x="320" y="270" width="58" height="35" fill="#06B6D4" opacity="0.15" />
<rect x="320" y="270" width="58" height="35" fill="none" stroke="#06B6D4" stroke-width="1" opacity="0.6" />
<rect x="380" y="270" width="58" height="35" fill="#06B6D4" opacity="0.15" />
<rect x="380" y="270" width="58" height="35" fill="none" stroke="#06B6D4" stroke-width="1" opacity="0.6" />
<rect x="440" y="270" width="58" height="35" fill="#06B6D4" opacity="0.15" />
<rect x="440" y="270" width="58" height="35" fill="none" stroke="#06B6D4" stroke-width="1" opacity="0.6" />
<rect x="500" y="270" width="58" height="35" fill="#06B6D4" opacity="0.15" />
<rect x="500" y="270" width="58" height="35" fill="none" stroke="#06B6D4" stroke-width="1" opacity="0.6" />
<rect x="320" y="305" width="58" height="35" fill="#06B6D4" opacity="0.15" />
<rect x="320" y="305" width="58" height="35" fill="none" stroke="#06B6D4" stroke-width="1" opacity="0.6" />
<rect x="380" y="305" width="58" height="35" fill="#06B6D4" opacity="0.15" />
<rect x="380" y="305" width="58" height="35" fill="none" stroke="#06B6D4" stroke-width="1" opacity="0.6" />
<rect x="440" y="305" width="58" height="35" fill="#06B6D4" opacity="0.15" />
<rect x="440" y="305" width="58" height="35" fill="none" stroke="#06B6D4" stroke-width="1" opacity="0.6" />
<rect x="500" y="305" width="58" height="35" fill="#06B6D4" opacity="0.15" />
<rect x="500" y="305" width="58" height="35" fill="none" stroke="#06B6D4" stroke-width="1" opacity="0.6" />
<rect x="320" y="340" width="58" height="35" fill="#06B6D4" opacity="0.15" />
<rect x="320" y="340" width="58" height="35" fill="none" stroke="#06B6D4" stroke-width="1" opacity="0.6" />
<rect x="380" y="340" width="58" height="35" fill="#06B6D4" opacity="0.15" />
<rect x="380" y="340" width="58" height="35" fill="none" stroke="#06B6D4" stroke-width="1" opacity="0.6" />
<rect x="440" y="340" width="58" height="35" fill="#06B6D4" opacity="0.15" />
<rect x="440" y="340" width="58" height="35" fill="none" stroke="#06B6D4" stroke-width="1" opacity="0.6" />
<rect x="500" y="340" width="58" height="35" fill="#06B6D4" opacity="0.15" />
<rect x="500" y="340" width="58" height="35" fill="none" stroke="#06B6D4" stroke-width="1" opacity="0.6" />
<rect x="540" y="140" width="63" height="35" fill="#10B981" opacity="0.8" />
<rect x="540" y="140" width="63" height="35" fill="none" stroke="#10B981" stroke-width="2" />
<rect x="605" y="140" width="63" height="35" fill="#10B981" opacity="0.8" />
<rect x="605" y="140" width="63" height="35" fill="none" stroke="#10B981" stroke-width="2" />
<rect x="670" y="140" width="63" height="35" fill="#10B981" opacity="0.8" />
<rect x="670" y="140" width="63" height="35" fill="none" stroke="#10B981" stroke-width="2" />
<rect x="540" y="175" width="63" height="35" fill="#10B981" opacity="0.15" />
<rect x="540" y="175" width="63" height="35" fill="none" stroke="#10B981" stroke-width="1" opacity="0.6" />
<rect x="605" y="175" width="63" height="35" fill="#10B981" opacity="0.15" />
<rect x="605" y="175" width="63" height="35" fill="none" stroke="#10B981" stroke-width="1" opacity="0.6" />
<rect x="670" y="175" width="63" height="35" fill="#10B981" opacity="0.15" />
<rect x="670" y="175" width="63" height="35" fill="none" stroke="#10B981" stroke-width="1" opacity="0.6" />
<rect x="540" y="210" width="63" height="35" fill="#10B981" opacity="0.15" />
<rect x="540" y="210" width="63" height="35" fill="none" stroke="#10B981" stroke-width="1" opacity="0.6" />
<rect x="605" y="210" width="63" height="35" fill="#10B981" opacity="0.15" />
<rect x="605" y="210" width="63" height="35" fill="none" stroke="#10B981" stroke-width="1" opacity="0.6" />
<rect x="670" y="210" width="63" height="35" fill="#10B981" opacity="0.15" />
<rect x="670" y="210" width="63" height="35" fill="none" stroke="#10B981" stroke-width="1" opacity="0.6" />
<rect x="540" y="245" width="63" height="35" fill="#10B981" opacity="0.15" />
<rect x="540" y="245" width="63" height="35" fill="none" stroke="#10B981" stroke-width="1" opacity="0.6" />
<rect x="605" y="245" width="63" height="35" fill="#10B981" opacity="0.15" />
<rect x="605" y="245" width="63" height="35" fill="none" stroke="#10B981" stroke-width="1" opacity="0.6" />
<rect x="670" y="245" width="63" height="35" fill="#10B981" opacity="0.15" />
<rect x="670" y="245" width="63" height="35" fill="none" stroke="#10B981" stroke-width="1" opacity="0.6" />
<rect x="540" y="280" width="63" height="35" fill="#10B981" opacity="0.15" />
<rect x="540" y="280" width="63" height="35" fill="none" stroke="#10B981" stroke-width="1" opacity="0.6" />
<rect x="605" y="280" width="63" height="35" fill="#10B981" opacity="0.15" />
<rect x="605" y="280" width="63" height="35" fill="none" stroke="#10B981" stroke-width="1" opacity="0.6" />
<rect x="670" y="280" width="63" height="35" fill="#10B981" opacity="0.15" />
<rect x="670" y="280" width="63" height="35" fill="none" stroke="#10B981" stroke-width="1" opacity="0.6" />
<rect x="540" y="315" width="63" height="35" fill="#10B981" opacity="0.15" />
<rect x="540" y="315" width="63" height="35" fill="none" stroke="#10B981" stroke-width="1" opacity="0.6" />
<rect x="605" y="315" width="63" height="35" fill="#10B981" opacity="0.15" />
<rect x="605" y="315" width="63" height="35" fill="none" stroke="#10B981" stroke-width="1" opacity="0.6" />
<rect x="670" y="315" width="63" height="35" fill="#10B981" opacity="0.15" />
<rect x="670" y="315" width="63" height="35" fill="none" stroke="#10B981" stroke-width="1" opacity="0.6" />
<rect x="540" y="350" width="63" height="35" fill="#10B981" opacity="0.15" />
<rect x="540" y="350" width="63" height="35" fill="none" stroke="#10B981" stroke-width="1" opacity="0.6" />
<rect x="605" y="350" width="63" height="35" fill="#10B981" opacity="0.15" />
<rect x="605" y="350" width="63" height="35" fill="none" stroke="#10B981" stroke-width="1" opacity="0.6" />
<rect x="670" y="350" width="63" height="35" fill="#10B981" opacity="0.15" />
<rect x="670" y="350" width="63" height="35" fill="none" stroke="#10B981" stroke-width="1" opacity="0.6" />
</g>
<g id="relationship-lines">
<line
    x1="185"
    y1="330"
    x2="320"
    y2="270"
    stroke="#8B5CF6"
    stroke-width="3"
    opacity="0.6"
    stroke-linecap="round"
  />
<line
    x1="560"
    y1="270"
    x2="540"
    y2="245"
    stroke="#06B6D4"
    stroke-width="3"
    opacity="0.6"
    stroke-linecap="round"
  />
<circle cx="185" cy="330" r="6" fill="#8B5CF6" opacity="1" stroke="#FFFFFF" stroke-width="2" />
<circle cx="320" cy="270" r="6" fill="#8B5CF6" opacity="1" stroke="#FFFFFF" stroke-width="2" />
<circle cx="560" cy="270" r="6" fill="#06B6D4" opacity="1" stroke="#FFFFFF" stroke-width="2" />
<circle cx="540" cy="245" r="6" fill="#10B981" opacity="1" stroke="#FFFFFF" stroke-width="2" />
</g>
<g id="mondrian-accents">
<rect x="60" y="450" width="100" height="80" fill="#8B5CF6" opacity="0.3" transform="rotate(0 110 490)" />
<rect x="60" y="450" width="100" height="80" fill="none" stroke="#8B5CF6" stroke-width="3" />
<rect x="659.07843" y="64.308846" width="121.84309" height="91.382317" fill="#06B6D4" opacity="0.3" />
<rect x="659.72949" y="66.454285" width="120.54099" height="87.091431" fill="none" stroke="#06B6D4" stroke-width="3.79307" />
<rect x="620" y="480" width="120" height="70" fill="#10B981" opacity="0.25" transform="rotate(0 680 515)" />
<rect x="620" y="480" width="120" height="70" fill="none" stroke="#10B981" stroke-width="3" />
</g>
<g id="mondrian-grid">
<line x1="200" y1="50" x2="200" y2="550" stroke="#E5E7EB" stroke-width="2" opacity="0.2" />
<line x1="400" y1="50" x2="400" y2="550" stroke="#E5E7EB" stroke-width="2" opacity="0.2" />
<line x1="600" y1="50" x2="600" y2="550" stroke="#E5E7EB" stroke-width="2" opacity="0.2" />
<line x1="50" y1="150" x2="750" y2="150" stroke="#E5E7EB" stroke-width="2" opacity="0.2" />
<line x1="50" y1="300" x2="750" y2="300" stroke="#E5E7EB" stroke-width="2" opacity="0.2" />
<line x1="50" y1="450" x2="750" y2="450" stroke="#E5E7EB" stroke-width="2" opacity="0.2" />
</g>
<g id="key-indicators">
<rect x="90" y="130" width="12" height="12" fill="#8B5CF6" opacity="1" transform="rotate(45 96 136)" />
<rect x="330" y="210" width="12" height="12" fill="#06B6D4" opacity="1" transform="rotate(45 336 216)" />
<rect x="550" y="150" width="12" height="12" fill="#10B981" opacity="1" transform="rotate(45 556 156)" />
</g>

</svg>
