<svg
  xmlns="http://www.w3.org/2000/svg"
  viewBox="0 0 800 600"
  width="800"
  height="600"
  role="img"
  aria-label="Automatonic AI Geometric Illustration"
>
  <title>Automatonic AI - Abstract Geometric Composition</title>

  <!-- Background -->
  <rect width="800" height="600" fill="#0F172A" />

  <line x1="60" y1="300" x2="740" y2="300" stroke="#334155" stroke-width="1" opacity="0.2" stroke-dasharray="2,4" />
<g id="timeseries-waves">
<path d="M 60,100 L 60,126.8913619421424 L 65,124.61693428679878 L 70,122.15981759415547 L 75,119.53824680272601 L 80,116.77167731010461 L 85,113.88064058911158 L 90,110.88659181808892 L 95,107.81175065612308 L 100,104.67893634484606 L 105,101.51139836056949 L 110,98.33264387352891 L 115,95.16626329471072 L 120,92.03575520492632 L 125,88.96435196538363 L 130,85.97484730394714 L 135,83.08942715661675 L 140,80.3295050195971 L 145,77.71556303385509 L 150,75.26699998152047 L 155,73.0019873221904 L 160,70.9373343375319 L 165,69.08836338498111 L 170,67.46879618631627 L 175,66.09065199498787 L 180,64.96415839793423 L 185,64.09767541384706 L 190,63.497633451174266 L 195,63.16848558629097 L 200,63.112674515995394 L 205,63.3306144295844 L 210,63.82068793504081 L 215,64.57925806214425 L 220,65.60069525342709 L 225,66.87741914266809 L 230,68.39995481087428 L 235,70.15700310225971 L 240,72.13552447838704 L 245,74.32083578816724 L 250,76.6967192355607 L 255,79.24554273630037 L 260,81.94839077043683 L 265,84.78520475961213 L 270,87.73493192728459 L 275,90.77568153717161 L 280,93.88488735042199 L 285,97.03947509587869 L 290,100.21603371058882 L 295,103.39098907973832 L 300,106.5407789866392 L 305,109.64202797441759 L 310,112.67172082170576 L 315,115.60737334492775 L 320,118.42719925960691 L 325,121.11027186237297 L 330,123.63667933378105 L 335,125.98767250939821 L 340,128.1458040225074 L 345,130.09505778581268 L 350,131.82096785122633 L 355,133.3107257656468 L 360,134.5532756260106 L 365,135.53939612818857 L 370,136.261769000819 L 375,136.71503331621142 L 380,136.89582527526488 L 385,136.80280317114597 L 390,136.43665734646402 L 395,135.8001050700488 L 400,134.8978703713515 L 405,133.73664898212343 L 410,132.32505864554975 L 415,130.6735751616081 L 420,128.79445464327668 L 425,126.70164256055048 L 430,124.41067024727423 L 435,121.93853963884395 L 440,119.30359709617007 L 445,116.52539725228904 L 450,113.62455789205546 L 455,110.62260694189216 L 460,107.54182270512956 L 465,104.40506852859171 L 470,101.2356231274134 L 475,98.05700782729551 L 480,94.89281200627995 L 485,91.7665180314899 L 490,88.70132699002724 L 495,85.71998650732661 L 500,82.84462193077292 L 505,80.09657213141548 L 510,77.49623114233941 L 515,75.06289680893875 L 520,72.81462757430063 L 525,70.76810846253417 L 530,68.9385272546192 L 535,67.33946177570823 L 540,65.98277913035281 L 545,64.87854763345823 L 550,64.03496209055034 L 555,63.458282981870845 L 560,63.152790001632205 L 565,63.120750297230245 L 570,63.362401644120034 L 575,63.87595068121887 L 580,64.65758621993191 L 585,65.70150752803056 L 590,66.99996737848114 L 595,68.54332954374664 L 600,70.32014030888058 L 605,72.3172134726946 L 610,74.51972820618283 L 615,76.91133904196849 L 620,79.47429717851145 L 625,82.18958219884384 L 630,85.03704322631387 L 635,87.99554846978147 L 640,91.04314204845022 L 645,94.15720693249494 L 650,97.31463279025834 L 655,100.49198749637581 L 660,103.66569102802009 L 665,106.81219045873348 L 670,109.90813475117048 L 675,112.93054805156612 L 680,115.85700019986311 L 685,118.66577319009663 L 690,121.33602234568752 L 695,123.84793101351796 L 700,126.18285762876255 L 705,128.32347405906592 L 710,130.25389420137708 L 715,131.95979187708764 L 720,133.4285071505421 L 725,134.64914028190083 L 730,135.61263261710621 L 735,136.31183381464484 L 740,136.74155491019764" stroke="#8B5CF6" stroke-width="2.4925240054869686" fill="none" opacity="0.7" stroke-linecap="round" />
<path d="M 60,170 L 60,224.66748478194825 L 65,225.5872215874971 L 70,226.3480912943272 L 75,226.94791935297593 L 80,227.38499146759105 L 85,227.65805849535164 L 90,227.76634001649182 L 95,227.70952656472394 L 100,227.48778051168654 L 105,227.10173560288962 L 110,226.5524951464836 L 115,225.841628860028 L 120,224.9711683842719 L 125,223.94360147676787 L 130,222.76186490191378 L 135,221.42933603774256 L 140,219.94982322344728 L 145,218.32755487522888 L 150,216.56716740157233 L 155,214.67369195248972 L 160,212.65254004060034 L 165,210.50948807514249 L 170,208.25066085311863 L 175,205.88251405475572 L 180,203.41181579330805 L 185,200.84562727193338 L 190,198.1912826029243 L 195,195.4563678469711 L 200,192.64869933236125 L 205,189.7763013160795 L 210,186.84738305065147 L 215,183.87031532227454 L 220,180.8536065272885 L 225,177.8058783553596 L 230,174.73584114887473 L 235,171.65226900896764 L 240,168.56397471932428 L 245,165.47978455943436 L 250,162.40851307927184 L 255,159.3589379074985 L 260,156.3397746651874 L 265,153.3596520567632 L 270,150.42708720934803 L 275,147.55046133099302 L 280,144.737995757364 L 285,141.9977284553383 L 290,139.3374910506665 L 295,136.76488644535226 L 300,134.28726708871972 L 305,131.9117139642698 L 310,129.64501635237946 L 315,127.49365242668262 L 320,125.4637707395876 L 325,123.56117264984489 L 330,121.79129574238706 L 335,120.1591982878264 L 340,118.66954478602506 L 345,117.32659263505349 L 350,116.13417996363714 L 355,115.09571466186608 L 360,114.21416464151756 L 365,113.4920493538271 L 370,112.9314325889504 L 375,112.53391657769494 L 380,112.30063741237832 L 385,112.23226179990057 L 390,112.32898515630995 L 395,112.59053104830811 L 400,113.01615198329048 L 405,113.60463154566438 L 410,114.35428787333882 L 415,115.26297846445074 L 420,116.32810630058982 L 425,117.54662726902185 L 430,118.91505886269837 L 435,120.42949013318783 L 440,122.08559286808311 L 445,123.87863396094073 L 450,125.8034889383984 L 455,127.85465660581123 L 460,130.02627476954905 L 465,132.31213699102142 L 470,134.7057103245472 L 475,137.20015398837458 L 480,139.7883389154901 L 485,142.46286812834072 L 490,145.2160978792386 L 495,148.04015949602962 L 500,150.9269818705912 L 505,153.86831452588808 L 510,156.85575119566036 L 515,159.88075384935388 L 520,162.9346770936304 L 525,166.00879288071778 L 530,169.0943154529856 L 535,172.1824264524536 L 540,175.26430012347151 L 545,178.3311285365414 L 550,181.37414676119283 L 555,184.38465791596838 L 560,187.3540580239258 L 565,190.27386060262157 L 570,193.13572091829747 L 575,195.93145983495236 L 580,198.65308719013913 L 585,201.29282463067943 L 590,203.84312784303177 L 595,206.2967081147793 L 600,208.64655316561536 L 605,210.88594718829125 L 610,213.00849004225114 L 615,215.00811554509764 L 620,216.87910880961226 L 625,218.61612257678178 L 630,220.21419249815077 L 635,221.6687513238243 L 640,222.97564195557092 L 645,224.1311293277213 L 650,225.1319110819064 L 655,225.97512700512766 L 660,226.65836720418497 L 665,227.17967899310028 L 670,227.53757247385272 L 675,227.73102479447527 L 680,227.7594830723442 L 685,227.62286597430585 L 690,227.3215639491248 L 695,226.8564381115899 L 700,226.22881778146638 L 705,225.4404966843281 L 710,224.49372782512808 L 715,223.3912170491582 L 720,222.13611530880064 L 725,220.73200965817313 L 730,219.18291300140444 L 735,217.4932526238393 L 740,215.66785753895138" stroke="#8B5CF6" stroke-width="2.974245541838134" fill="none" opacity="0.7" stroke-linecap="round" />
<path d="M 60,240 L 60,282.16530592792196 L 65,278.9057198858073 L 70,275.50487345059804 L 75,271.97511454711616 L 80,268.3292591605612 L 85,264.58054480373545 L 90,260.74258245377024 L 95,256.82930713286356 L 100,252.85492731246237 L 105,248.83387332459455 L 110,244.78074496766115 L 115,240.71025849692342 L 120,236.63719319215383 L 125,232.5763376964553 L 130,228.54243632108353 L 135,224.55013551123116 L 140,220.61393066714803 L 145,216.74811351368092 L 150,212.96672020932616 L 155,209.28348038320223 L 160,205.71176728498105 L 165,202.26454922877576 L 170,198.95434250728394 L 175,195.79316594714788 L 180,192.7924972705339 L 185,189.9632314213743 L 190,187.31564100758365 L 195,184.8593390028765 L 200,182.60324384361033 L 205,180.5555470473818 L 210,178.72368347094772 L 215,177.11430431545972 L 220,175.7332529770252 L 225,174.58554383027916 L 230,173.67534402199863 L 235,173.00595834086474 L 240,172.57981721830834 L 245,172.39846790400537 L 250,172.46256884806294 L 255,172.77188731029315 L 260,173.3253002052553 L 265,174.1207981799978 L 270,175.15549290969466 L 275,176.42562758468705 L 280,177.92659055085323 L 285,179.65293205378066 L 290,181.59838402594517 L 295,183.75588284505318 L 300,186.11759498091467 L 305,188.6749454377279 L 310,191.41864888850563 L 315,194.3387433885999 L 320,197.42462654591606 L 325,200.66509401648804 L 330,204.04838018564416 L 335,207.56220088705578 L 340,211.19379800456431 L 345,214.9299857948422 L 350,218.7571987627008 L 355,222.66154091521443 L 360,226.62883621582955 L 365,230.64468005526703 L 370,234.6944915523341 L 375,238.76356649475287 L 380,242.83713072778235 L 385,246.90039379679152 L 390,250.93860264901463 L 395,254.9370951995051 L 400,258.8813535668019 L 405,262.7570567850143 L 410,266.5501328009398 L 415,270.24680956741867 L 420,273.8336650474159 L 425,277.2976759472729 L 430,280.6262650021855 L 435,283.80734664222405 L 440,286.82937087308795 L 445,289.6813652122721 L 450,292.3529745283812 L 455,294.83449863894054 L 460,297.11692753019514 L 465,299.191974071015 L 470,301.0521041021327 L 475,302.6905637914592 L 480,304.10140415615956 L 485,305.2795026624497 L 490,306.22058182469016 L 495,306.9212247362466 L 500,307.3788874757266 L 505,307.59190834354786 L 510,307.55951389530134 L 515,307.28182175000313 L 520,306.75984016303875 L 525,305.9954643653506 L 530,304.9914696821601 L 535,303.75150145620916 L 540,302.2800618121094 L 545,300.58249330985313 L 550,298.6649595468406 L 555,296.5344227788511 L 560,294.1986186412164 L 565,291.66602806197596 L 570,288.94584646899534 L 575,286.0479504028512 L 580,282.9828616567052 L 585,279.761709073371 L 590,276.3961881382801 L 595,272.89851851506194 L 600,269.28139967791583 L 605,265.5579648018683 L 610,261.7417330783341 L 615,257.8465606291117 L 620,253.88659019704116 L 625,249.87619979598588 L 630,245.82995050658306 L 635,241.76253360730965 L 640,237.68871723281907 L 645,233.62329275322742 L 650,229.58102106903365 L 655,225.5765790166717 L 660,221.62450607928457 L 665,217.739151596206 L 670,213.93462266282478 L 675,210.22473290999622 L 680,206.62295234897744 L 685,203.14235846398867 L 690,199.7955887299782 L 695,196.59479472798876 L 700,193.55159802472735 L 705,190.67704797653116 L 710,187.9815816109365 L 715,185.4749857315163 L 720,183.16636138357416 L 725,181.06409080971753 L 730,179.17580701528667 L 735,177.5083660541435 L 740,176.06782213544608" stroke="#8B5CF6" stroke-width="2.6082304526748974" fill="none" opacity="0.7" stroke-linecap="round" />
<path d="M 60,310 L 60,249.664404125087 L 65,248.87117422427053 L 70,248.53188235811464 L 75,248.64904808234354 L 80,249.2218013331549 L 85,250.2458888882478 L 90,251.71370595092972 L 95,253.6143526227612 L 100,255.93371484537707 L 105,258.65456921041573 L 110,261.7567108592464 L 115,265.2171035227205 L 120,269.01005058676304 L 125,273.1073859134846 L 130,277.4786830007897 L 135,282.0914809272792 L 140,286.9115254045962 L 145,291.90302314717957 L 150,297.02890767049394 L 155,302.2511145439392 L 160,307.53086405443156 L 165,312.828949181619 L 170,318.10602674624715 L 175,323.3229095696317 L 180,328.4408574746818 L 185,333.4218649675241 L 190,338.2289434634239 L 195,342.826395961217 L 200,347.18008212653876 L 205,351.2576718153642 L 210,355.0288851552107 L 215,358.4657174011801 L 220,361.54264689707503 L 225,364.2368245972869 L 230,366.5282437420792 L 235,368.399888426272 L 240,369.8378599580657 L 245,370.8314800696748 L 250,371.37337021333667 L 255,371.4595063538488 L 260,371.0892488507494 L 265,370.26534720823963 L 270,368.99391965757303 L 275,367.2844077235334 L 280,365.14950611238584 L 285,362.6050684419494 L 290,359.66998951382976 L 295,356.36606500205323 L 300,352.71782960003964 L 305,348.7523748278268 L 310,344.4991478524913 L 315,339.98973281571546 L 320,335.25761629233943 L 325,330.33793862159234 L 330,325.26723295759035 L 335,320.0831539768998 L 340,314.8241982577577 L 345,309.52941840739527 L 350,304.23813306033105 L 355,298.9896349011669 L 360,293.82289888008455 L 365,288.7762927878155 L 370,283.88729233933 L 375,279.1922028820131 L 380,274.72588979490274 L 385,270.521519581023 L 390,266.6103135754419 L 395,263.0213160980005 L 400,259.78117877239083 L 405,256.9139626132152 L 410,254.44095935071263 L 415,252.38053331998108 L 420,250.74798508881466 L 425,249.55543783684485 L 430,248.81174732972607 L 435,248.52243615689 L 440,248.68965272121423 L 445,249.31215528514517 L 450,250.38532119174715 L 455,251.90118119220304 L 460,253.84847862485287 L 465,256.2127530063116 L 470,258.9764474139246 L 475,262.11903886214634 L 480,265.61719070467905 L 485,269.4449259306411 L 490,273.5738200678851 L 495,277.9732122609765 L 500,282.6104329563868 L 505,287.45104650412475 L 510,292.4591068742692 L 515,297.5974245894653 L 520,302.8278428911712 L 525,308.1115210888579 L 530,313.4092229880399 L 535,318.6816082552846 L 540,323.88952455655334 L 545,328.99429829946973 L 550,333.95802182049187 L 555,338.74383488435154 L 560,343.3161984053741 L 565,347.6411583580378 L 570,351.68659791699923 L 575,355.42247595420724 L 580,358.8210501220475 L 585,361.85708286591563 L 590,364.5080288363892 L 595,366.7542023092853 L 600,368.5789233703599 L 605,369.9686417790879 L 610,370.91303759172456 L 615,371.4050977964266 L 620,371.4411683913477 L 625,371.02098151897917 L 630,370.1476574552403 L 635,368.8276814385449 L 640,367.0708555109118 L 645,364.89022572874273 L 650,362.3019852837941 L 655,359.3253542537608 L 660,355.9824368754336 L 665,352.298057400309 L 670,348.2995757515767 L 675,344.0166843513991 L 680,339.4811876272327 L 685,334.7267658345549 L 690,329.78872494983665 L 695,324.70373449103147 L 700,319.5095552125112 L 705,314.2447586965601 L 710,308.94844092372466 L 715,303.65993194901915 L 720,298.41850383991454 L 725,293.26307904493564 L 730,288.23194135850514 L 735,283.3624516283815 L 740,278.69077031683213" stroke="#06B6D4" stroke-width="2.925342935528121" fill="none" opacity="0.7" stroke-linecap="round" />
<path d="M 60,380 L 60,332.65095760312124 L 65,331.6705538110651 L 70,330.8533750109576 L 75,330.2021810937885 L 80,329.7191713630935 L 85,329.40597710715787 L 90,329.2636560896007 L 95,329.2926889769467 L 100,329.492977715252 L 105,329.8638458612657 L 110,330.40404086700886 L 115,331.11173831005544 L 120,331.98454805522795 L 125,333.0195223268977 L 130,334.2131656646263 L 135,335.5614467285256 L 140,337.059811914465 L 145,338.70320073314247 L 150,340.4860629010797 L 155,342.4023770858189 L 160,344.4456712420121 L 165,346.6090444697216 L 170,348.8851903211082 L 175,351.26642147679297 L 180,353.7446957085514 L 185,356.31164304065584 L 190,358.95859401813317 L 195,361.6766089864652 L 200,364.45650828384504 L 205,367.2889032440204 L 210,370.16422790501497 L 215,373.0727713166391 L 220,376.00471033767394 L 225,378.95014281196313 L 230,381.89912101136576 L 235,384.84168523261974 L 240,387.7678974346509 L 245,390.6678748027203 L 250,393.5318231260541 L 255,396.3500698762276 L 260,399.1130968745862 L 265,401.8115724383747 L 270,404.4363828970072 L 275,406.9786633720345 L 280,409.4298277168567 L 285,411.78159751506337 L 290,414.0260300394631 L 295,416.15554507737795 L 300,418.16295053160167 L 305,420.04146671056014 L 310,421.7847492256381 L 315,423.38691041833897 L 320,424.842539244912 L 325,426.1467195512889 L 330,427.2950466766099 L 335,428.28364232926253 L 340,429.1091676851929 L 345,429.76883466425124 L 350,430.26041534648726 L 355,430.5822494965946 L 360,430.7332501710906 L 365,430.7129073892942 L 370,430.52128985570454 L 375,430.15904472796245 L 380,429.6273954311788 L 385,428.92813752601126 L 390,428.06363264444497 L 395,427.03680051375716 L 400,425.8511090956043 L 405,424.5105628735352 L 410,423.01968932848655 L 415,421.3835236479388 L 420,419.60759172037393 L 425,417.6978914724688 L 430,415.6608726120553 L 435,413.50341484526086 L 440,411.23280464139947 L 445,408.8567106240842 L 450,406.3831576716743 L 455,403.8204998145298 L 460,401.1773920206069 L 465,398.4627609646844 L 470,395.6857748799452 L 475,392.8558125937307 L 480,389.9824318520491 L 485,387.075337039813 L 490,384.1443464058278 L 495,381.1993589032239 L 500,378.2503207573215 L 505,375.3071918738423 L 510,372.37991220091726 L 515,369.47836815849763 L 520,366.61235924854986 L 525,363.79156495880136 L 530,361.0255120718149 L 535,358.3235424898017 L 540,355.6947816838366 L 545,353.14810787403655 L 550,350.69212204478845 L 555,348.33511889629716 L 560,346.0850588305593 L 565,343.9495410663757 L 570,341.93577797420267 L 575,340.05057071752196 L 580,338.30028628299596 L 585,336.6908359769868 L 590,335.22765546106234 L 595,333.9156863939164 L 600,332.7593597417055 L 605,331.76258081316735 L 610,330.9287160700643 L 615,330.2605817574956 L 620,329.76043439247906 L 625,329.42996314292503 L 630,329.2702841227414 L 635,329.28193662233673 L 640,329.4648812872532 L 645,329.8185002510799 L 650,330.34159922219806 L 655,331.0324115173104 L 660,331.888604028132 L 665,332.90728510109125 L 670,334.0850143034284 L 675,335.41781404270796 L 680,336.9011830005026 L 685,338.5301113348778 L 690,340.2990976003333 L 695,342.20216732805744 L 700,344.2328932037425 L 705,346.3844167748122 L 710,348.64947161375204 L 715,351.0204078593074 L 720,353.48921805266974 L 725,356.0475641813911 L 730,358.6868058396901 L 735,361.3980294100436 L 740,364.17207816750783" stroke="#06B6D4" stroke-width="3.6045953360768177" fill="none" opacity="0.7" stroke-linecap="round" />
<path d="M 60,450 L 60,429.591674864476 L 65,433.3815825062567 L 70,437.311360157388 L 75,441.3479325845022 L 80,445.45732570893995 L 85,449.60495255182934 L 90,453.7559043376798 L 95,457.8752443063985 L 100,461.92830176084107 L 105,465.88096387502605 L 110,469.69996280698973 L 115,473.35315569977666 L 120,476.8097952139206 L 125,480.04078831445906 L 130,483.0189411343856 L 135,485.7191878536286 L 140,488.11880166718333 L 145,490.19758606676805 L 150,491.9380448260714 L 155,493.3255292588976 L 160,494.3483615108017 L 165,494.99793284652424 L 170,495.2687761059799 L 175,495.15861171897217 L 180,494.6683668913464 L 185,493.8021678011006 L 190,492.5673048701355 L 195,490.9741714039368 L 200,489.0361761156324 L 205,486.76963027067217 L 210,484.19361040198396 L 215,481.3297977510732 L 220,478.2022957864209 L 225,474.83742733504727 L 230,471.26351303469863 L 235,467.5106329713277 L 240,463.6103735080616 L 245,459.59556143648865 L 250,455.49998768779744 L 255,451.35812292917046 L 260,447.20482743913504 L 265,443.0750577037253 L 270,439.0035722029064 L 275,435.0246388635303 L 280,431.17174664106403 L 285,427.477323657583 L 290,423.97246426833726 L 295,420.68666735405543 L 300,417.647588041665 L 305,414.8808049430889 L 310,412.4096048711666 L 315,410.25478684465537 L 320,408.43448703191365 L 325,406.9640261066413 L 330,405.85578030041654 L 335,405.1190772373251 L 340,404.7601174273952 L 345,404.78192207959506 L 350,405.18430767362815 L 355,405.9638875045438 L 360,407.114100187163 L 365,408.62526488041095 L 370,410.4846627667555 L 375,412.67664410097586 L 380,415.1827599272777 L 385,417.98191735614915 L 390,421.0505570940595 L 395,424.3628517318107 L 400,427.890923122634 L 405,431.60507702045504 L 410,435.474053003479 L 415,439.4652875795968 L 420,443.54518825916904 L 425,447.6794162884355 L 430,451.83317566390605 L 435,455.9715059952244 L 440,460.059576751604 L 445,464.06298041529317 L 450,467.9480220747226 L 455,471.6820030199556 L 460,475.2334959535423 L 465,478.57260950044537 L 470,481.67123979077456 L 475,484.50330699786485 L 480,487.04497484086176 L 485,489.27485120435483 L 490,491.17416818653084 L 495,492.7269400604603 L 500,493.9200978190245 L 505,494.74359917107813 L 510,495.1905130630563 L 515,495.2570780146452 L 520,494.94273377752967 L 525,494.2501260507603 L 530,493.1850842130523 L 535,491.75657225943445 L 540,489.97661335519217 L 545,487.86018864210223 L 550,485.42511114866295 L 555,482.6918758655617 L 560,479.68348724823187 L 565,476.4252655983323 L 570,472.9446339537552 L 575,469.27088728081463 L 580,465.4349459112263 L 585,461.4690952990917 L 590,457.40671428823936 L 595,453.28199417697977 L 600,449.1296509447823 L 605,444.9846330629403 L 610,440.8818273484509 L 615,436.85576533681484 L 620,432.94033264508494 L 625,429.1684837713297 L 630,425.57196473092324 L 635,422.18104586410647 L 640,419.0242670636696 L 645,416.1281975670569 L 650,413.5172123346227 L 655,411.21328689616826 L 660,409.2358123924407 L 665,407.6014323683162 L 670,406.323902691304 L 675,405.41397577437823 L 680,404.8793100775834 L 685,404.7244056500992 L 690,404.950566255279 L 695,405.55588839743973 L 700,406.5352773427586 L 705,407.88048999943766 L 710,409.5802042962303 L 715,411.6201144754026 L 720,413.98305149808914 L 725,416.64912754864287 L 730,419.59590342175073 L 735,422.7985773834884 L 740,426.23019391675274" stroke="#10B981" stroke-width="3.5842592592592593" fill="none" opacity="0.7" stroke-linecap="round" />
<path d="M 60,520 L 60,505.5154945409636 L 65,512.1656948962521 L 70,518.9079469124204 L 75,525.6630303538583 L 80,532.3515742180421 L 85,538.8949893303851 L 90,545.2163917527538 L 95,551.2415061557655 L 100,556.8995385404064 L 105,562.1240080546524 L 110,566.8535281313948 L 115,571.0325277694457 L 120,574.6119044827002 L 125,577.5496012454229 L 130,579.8111006546548 L 135,581.369830503424 L 140,582.2074759993475 L 145,582.3141949601119 L 150,581.6887334573273 L 155,580.3384405499573 L 160,578.2791819342129 L 165,575.5351535245047 L 170,572.1385971558481 L 175,568.1294217481618 L 180,563.554734383714 L 185,558.4682868074681 L 190,552.92984385385 L 195,547.0044812208085 L 200,540.761820842192 L 205,534.275212842683 L 210,527.6208736871652 L 215,520.876990651116 L 220,514.1228031343321 L 225,507.4376716123857 L 230,500.9001451654628 L 235,494.587038540948 L 240,488.5725295941078 L 245,482.9272877117733 L 250,477.71764345989186 L 255,473.0048092114341 L 260,468.84415991213876 L 265,465.284582434966 L 270,462.36790116822624 L 275,460.1283865866208 L 280,458.59235257939326 L 285,457.7778472669142 L 290,457.6944409385477 L 295,458.3431136034908 L 300,459.7162434758435 L 305,461.797696529208 L 310,464.5630160685656 L 315,467.9797100919981 L 320,472.00763306580325 L 325,476.59945762721924 L 330,481.70123067233345 L 335,487.2530072952461 L 340,493.1895551298186 L 345,499.44112081811704 L 350,505.9342495996896 L 355,512.5926483916483 L 360,519.3380822185254 L 365,526.0912934590141 L 370,532.772933108611 L 375,539.304493115996 L 380,545.6092288383636 L 385,551.6130607770268 L 390,557.2454449980592 L 395,562.4402020106968 L 400,567.1362943643237 L 405,571.2785438274223 L 410,574.8182797217631 L 415,577.7139107940272 L 420,579.931413905472 L 425,581.4447337976271 L 430,582.2360892368453 L 435,582.2961819405649 L 440,581.6243058304409 L 445,580.2283553286361 L 450,578.1247325997964 L 455,575.3381548285971 L 460,571.9013637973167 L 465,567.854741175846 L 470,563.2458340444083 L 475,558.1287962240083 L 480,552.5637519788806 L 485,546.6160895673137 L 490,540.3556929414999 L 495,533.8561206238026 L 500,527.1937414074872 L 505,520.4468370372844 L 510,513.6946824131174 L 515,507.01661412444037 L 520,500.49109825973187 L 525,494.1948084442189 L 530,488.20172493871905 L 535,482.5822653850222 L 540,477.40245741140103 L 545,472.72316281997996 L 550,468.59936247162426 L 555,465.0795102708189 L 560,462.20496384109805 L 565,460.00949858048716 L 570,458.5189108067152 L 575,457.7507146551708 L 580,457.71393629099487 L 585,458.40900785328097 L 590,459.8277623775198 L 595,461.9535297559471 L 600,464.7613326082801 L 605,468.2181797613955 L 610,472.2834538896163 L 615,476.9093887609058 L 620,482.0416304814106 L 625,487.619876143834 L 630,493.57858237563426 L 635,499.84773546173795 L 640,506.35367399296604 L 645,513.0199543742004 L 650,519.7682490227327 L 655,526.5192667031207 L 660,533.1936841847943 L 665,539.7130782755933 L 670,546.0008472800205 L 675,551.9831110552408 L 680,557.5895790893275 L 685,562.7543764020024 L 690,567.4168175636781 L 695,571.5221197382257 L 700,575.0220463713398 L 705,577.8754739612845 L 710,580.048875252563 L 715,581.5167131750751 L 720,582.2617409000493 L 725,582.2752044871453 L 730,581.5569457416622 L 735,580.1154040732969 L 740,577.9675173346151" stroke="#10B981" stroke-width="3.506310013717421" fill="none" opacity="0.7" stroke-linecap="round" />
</g>
<g id="timeseries-datapoints">
<circle cx="100" cy="200.7420904064636" r="4" fill="#8B5CF6" opacity="1"  />
<circle cx="180" cy="197.20739057767645" r="4" fill="#8B5CF6" opacity="1"  />
<circle cx="260" cy="136.21764182999226" r="4" fill="#8B5CF6" opacity="1"  />
<circle cx="340" cy="146.56759159959444" r="4" fill="#8B5CF6" opacity="1"  />
<circle cx="420" cy="206.40079361601502" r="4" fill="#8B5CF6" opacity="1"  />
<circle cx="500" cy="189.36483128079033" r="4" fill="#8B5CF6" opacity="1"  />
<circle cx="580" cy="131.4352990397149" r="4" fill="#8B5CF6" opacity="1"  />
<circle cx="660" cy="154.94454990758697" r="4" fill="#8B5CF6" opacity="1"  />
<circle cx="100" cy="293.0141278147952" r="4" fill="#06B6D4" opacity="1"  />
<circle cx="180" cy="256.67995426117517" r="4" fill="#06B6D4" opacity="1"  />
<circle cx="260" cy="253.50419539936877" r="4" fill="#06B6D4" opacity="1"  />
<circle cx="340" cy="285.4617769414953" r="4" fill="#06B6D4" opacity="1"  />
<circle cx="420" cy="332.679071124522" r="4" fill="#06B6D4" opacity="1"  />
<circle cx="500" cy="365.7928131677862" r="4" fill="#06B6D4" opacity="1"  />
<circle cx="580" cy="364.21038775271563" r="4" fill="#06B6D4" opacity="1"  />
<circle cx="660" cy="328.91586601812344" r="4" fill="#06B6D4" opacity="1"  />
<circle cx="100" cy="478.7230418124692" r="4" fill="#10B981" opacity="1"  />
<circle cx="180" cy="500.76423313285676" r="4" fill="#10B981" opacity="1"  />
<circle cx="260" cy="479.6389724394103" r="4" fill="#10B981" opacity="1"  />
<circle cx="340" cy="433.31074496033796" r="4" fill="#10B981" opacity="1"  />
<circle cx="420" cy="401.17392513891286" r="4" fill="#10B981" opacity="1"  />
<circle cx="500" cy="410.55547932697954" r="4" fill="#10B981" opacity="1"  />
<circle cx="580" cy="453.47797176549676" r="4" fill="#10B981" opacity="1"  />
<circle cx="660" cy="493.4430335081169" r="4" fill="#10B981" opacity="1"  />
</g>
<g id="time-markers">
<line x1="150" y1="80" x2="150" y2="520" stroke="#334155" stroke-width="1" opacity="0.15" stroke-dasharray="3,6" />
<circle cx="150" cy="70" r="3" fill="#06B6D4" opacity="0.4"  />
<line x1="300" y1="80" x2="300" y2="520" stroke="#334155" stroke-width="1" opacity="0.15" stroke-dasharray="3,6" />
<circle cx="300" cy="70" r="3" fill="#06B6D4" opacity="0.4"  />
<line x1="450" y1="80" x2="450" y2="520" stroke="#334155" stroke-width="1" opacity="0.15" stroke-dasharray="3,6" />
<circle cx="450" cy="70" r="3" fill="#06B6D4" opacity="0.4"  />
<line x1="600" y1="80" x2="600" y2="520" stroke="#334155" stroke-width="1" opacity="0.15" stroke-dasharray="3,6" />
<circle cx="600" cy="70" r="3" fill="#06B6D4" opacity="0.4"  />
</g>
<g id="trend-indicators">
<path d="M 680,240 L 680,200 L 670,212 M 680,200 L 690,212" stroke="#8B5CF6" stroke-width="3" fill="none" opacity="0.6" stroke-linecap="round" stroke-linejoin="round" />
<path d="M 680,410 L 680,450 L 670,438 M 680,450 L 690,438" stroke="#06B6D4" stroke-width="3" fill="none" opacity="0.6" stroke-linecap="round" stroke-linejoin="round" />
</g>
<defs>
  <linearGradient id="temporal-gradient" x1="0%" y1="0%" x2="100%" y2="0%">
    <stop offset="0%" style="stop-color:#8B5CF6;stop-opacity:0.05" />
    <stop offset="100%" style="stop-color:#06B6D4;stop-opacity:0.05" />
  </linearGradient>
</defs>
<rect x="60" y="80" width="680" height="440" fill="url(#temporal-gradient)" />

</svg>
