<svg
  xmlns="http://www.w3.org/2000/svg"
  viewBox="0 0 800 600"
  width="800"
  height="600"
  role="img"
  aria-label="Automatonic AI Geometric Illustration"
>
  <title>Automatonic AI - Abstract Geometric Composition</title>

  <!-- Background -->
  <rect width="800" height="600" fill="#FFFFFF" />

  <g id="depth-planes">
<rect
    x="100"
    y="80"
    width="300"
    height="200"
    fill="#8B5CF6"
    opacity="0.08"
    transform="rotate(15 250 180)"
  />
<rect
    x="400"
    y="150"
    width="280"
    height="250"
    fill="#06B6D4"
    opacity="0.08"
    transform="rotate(-12 540 275)"
  />
<rect
    x="200"
    y="300"
    width="350"
    height="180"
    fill="#10B981"
    opacity="0.06"
    transform="rotate(8 375 390)"
  />
<rect
    x="450"
    y="50"
    width="200"
    height="300"
    fill="#8B5CF6"
    opacity="0.06"
    transform="rotate(-20 550 200)"
  />
</g>
<g id="cubist-fragments">
<path d="M 340,240 L 460,240 L 460,360 L 340,360 Z" fill="#8B5CF6" opacity="0.7" stroke="#8B5CF6" stroke-width="2" />
<path d="M 360,200 L 500,210 L 480,280 L 340,270 Z" fill="#06B6D4" opacity="0.6" stroke="#06B6D4" stroke-width="2" />
<path d="M 460,240 L 520,260 L 520,380 L 460,360 Z" fill="#10B981" opacity="0.65" stroke="#10B981" stroke-width="2" />
</g>
<g id="sphere-fragments">
<circle cx="200" cy="180" r="50" fill="none" stroke="#8B5CF6" stroke-width="2" opacity="0.5" stroke-dasharray="5,5" />
<circle cx="210" cy="170" r="45" fill="none" stroke="#06B6D4" stroke-width="2" opacity="0.6"  />
<circle cx="600" cy="400" r="60" fill="none" stroke="#10B981" stroke-width="2" opacity="0.4" stroke-dasharray="8,4" />
<circle cx="600" cy="400" r="60" fill="#10B981" opacity="0.12"  />
<circle cx="590" cy="390" r="55" fill="none" stroke="#8B5CF6" stroke-width="2" opacity="0.55"  />
<circle cx="590" cy="390" r="55" fill="#8B5CF6" opacity="0.165"  />
</g>
<g id="vector-lines">
<line
    x1="150"
    y1="100"
    x2="280"
    y2="80"
    stroke="#8B5CF6"
    stroke-width="2"
    opacity="0.4"
    stroke-linecap="round"
  />
<line
    x1="280"
    y1="80"
    x2="272.20073593579986"
    y2="86.25871233217153"
    stroke="#8B5CF6"
    stroke-width="2"
    opacity="0.4"
    stroke-linecap="round"
  />
<line
    x1="280"
    y1="80"
    x2="270.68016409326043"
    y2="76.37499535566536"
    stroke="#8B5CF6"
    stroke-width="2"
    opacity="0.4"
    stroke-linecap="round"
  />
<line
    x1="500"
    y1="120"
    x2="630"
    y2="200"
    stroke="#06B6D4"
    stroke-width="2"
    opacity="0.4"
    stroke-linecap="round"
  />
<line
    x1="630"
    y1="200"
    x2="620.0039354955741"
    y2="199.7194747366893"
    stroke="#06B6D4"
    stroke-width="2"
    opacity="0.4"
    stroke-linecap="round"
  />
<line
    x1="630"
    y1="200"
    x2="625.2449097522174"
    y2="191.20289156964387"
    stroke="#06B6D4"
    stroke-width="2"
    opacity="0.4"
    stroke-linecap="round"
  />
<line
    x1="300"
    y1="450"
    x2="200"
    y2="350"
    stroke="#10B981"
    stroke-width="2"
    opacity="0.4"
    stroke-linecap="round"
  />
<line
    x1="200"
    y1="350"
    x2="209.6592582628907"
    y2="352.5881904510252"
    stroke="#10B981"
    stroke-width="2"
    opacity="0.4"
    stroke-linecap="round"
  />
<line
    x1="200"
    y1="350"
    x2="202.5881904510252"
    y2="359.65925826289066"
    stroke="#10B981"
    stroke-width="2"
    opacity="0.4"
    stroke-linecap="round"
  />
<line
    x1="550"
    y1="480"
    x2="680"
    y2="420"
    stroke="#8B5CF6"
    stroke-width="2"
    opacity="0.4"
    stroke-linecap="round"
  />
<line
    x1="680"
    y1="420"
    x2="674.23213196149"
    y2="428.16894719595706"
    stroke="#8B5CF6"
    stroke-width="2"
    opacity="0.4"
    stroke-linecap="round"
  />
<line
    x1="680"
    y1="420"
    x2="670.0415501868725"
    y2="419.08935335095254"
    stroke="#8B5CF6"
    stroke-width="2"
    opacity="0.4"
    stroke-linecap="round"
  />
<line
    x1="400"
    y1="300"
    x2="480"
    y2="200"
    stroke="#06B6D4"
    stroke-width="2"
    opacity="0.4"
    stroke-linecap="round"
  />
<line
    x1="480"
    y1="200"
    x2="478.4943262392106"
    y2="209.88599749777785"
    stroke="#06B6D4"
    stroke-width="2"
    opacity="0.4"
    stroke-linecap="round"
  />
<line
    x1="480"
    y1="200"
    x2="470.6856381447802"
    y2="203.63904702223363"
    stroke="#06B6D4"
    stroke-width="2"
    opacity="0.4"
    stroke-linecap="round"
  />
</g>
<g id="dimension-markers">
<path d="M 130.5273522526068,504.88311934623096 L 119.02275227712127,488.5232850132048 L 110.6070201307586,506.6664780188662 Z" fill="#8B5CF6" opacity="0.6" />
<path d="M 688.2670023528633,108.14411886564486 L 682.9461170790261,88.86490259779148 L 668.9102686629294,103.11253254948372 Z" fill="#06B6D4" opacity="0.6" />
<path d="M 700.1684656266425,538.3964824586404 L 689.9180781599365,555.5699956921752 L 709.9159706257589,555.8603350202088 Z" fill="#10B981" opacity="0.6" />
</g>
<g id="embedding-layers">
<rect
    x="541.0802469135801"
    y="182.35811042524006"
    width="53.47565157750343"
    height="53.47565157750343"
    fill="#06B6D4"
    opacity="0.15"
    transform="rotate(20.865226337448554 567.8180727023318 209.09593621399176)"
  />
<rect
    x="168.41006515775035"
    y="321.386316872428"
    width="61.58350480109739"
    height="61.58350480109739"
    fill="#10B981"
    opacity="0.15"
    transform="rotate(20.094907407407405 199.20181755829904 352.1780692729767)"
  />
<rect
    x="579.8191015089163"
    y="546.7056755829904"
    width="77.2119341563786"
    height="77.2119341563786"
    fill="#10B981"
    opacity="0.15"
    transform="rotate(19.123971193415642 618.4250685871057 585.3116426611797)"
  />
<rect
    x="221.91229423868313"
    y="267.2668038408779"
    width="72.33624828532237"
    height="72.33624828532237"
    fill="#8B5CF6"
    opacity="0.15"
    transform="rotate(13.693158436213992 258.0804183813443 303.43492798353907)"
  />
<rect
    x="315.36865569272976"
    y="151.27957818930042"
    width="48.56138545953361"
    height="48.56138545953361"
    fill="#10B981"
    opacity="0.15"
    transform="rotate(10.654320987654323 339.6493484224966 175.56027091906722)"
  />
</g>

</svg>
